<svg width="162" height="162" viewBox="0 0 162 162" fill="none" xmlns="http://www.w3.org/2000/svg">
<path d="M162 81C162 125.735 125.735 162 81 162C36.2649 162 0 125.735 0 81C0 36.2649 36.2649 0 81 0C125.735 0 162 36.2649 162 81Z" fill="#F05152" fill-opacity="0.9"/>
<path d="M152 81C152 120.212 120.212 152 81 152C41.7878 152 10 120.212 10 81C10 41.7878 41.7878 10 81 10C120.212 10 152 41.7878 152 81Z" fill="white"/>
<path d="M138 81C138 49.5194 112.481 24 81 24C49.5194 24 24 49.5194 24 81C24 112.481 49.5194 138 81 138C112.481 138 138 112.481 138 81Z" fill="#F18BC3"/>
<path d="M126.047 76.1363C126.047 48.5722 103.701 26.2265 76.1364 26.2265C48.5722 26.2265 26.2266 48.5722 26.2266 76.1363C26.2266 103.701 48.5722 126.047 76.1364 126.047C103.701 126.047 126.047 103.701 126.047 76.1363Z" fill="#9BB9C3"/>
<path d="M76.1363 128.274C48.1434 128.274 25.3064 106.211 24.0565 78.5264C25.3168 49.0149 49.0149 25.3168 78.5264 24.0565C106.211 25.3064 128.273 48.1434 128.273 76.1363C128.274 104.931 104.931 128.274 76.1363 128.274ZM76.1363 31.4285C51.445 31.4285 31.4285 51.445 31.4285 76.1363C31.4285 100.828 51.445 120.844 76.1363 120.844C100.828 120.844 120.844 100.828 120.844 76.1363C120.844 51.445 100.828 31.4285 76.1363 31.4285V31.4285Z" fill="#B4D2D7"/>
<path d="M80.6712 24.2009C79.9598 24.14 79.2457 24.0887 78.5264 24.0565C49.0149 25.3168 25.3168 49.0149 24.0565 78.5264C25.3064 106.211 48.1434 128.274 76.1363 128.274C76.8713 128.274 77.601 128.254 78.329 128.224C78.0472 128.212 77.7671 128.199 77.4871 128.182C34.2691 125.692 14.1962 73.6288 43.7964 42.0404C53.1871 32.0182 66.1594 25.3925 80.6712 24.2009V24.2009Z" fill="#9BB9C3"/>
<path d="M106.612 79.9589C106.334 79.8606 106.055 79.7719 105.776 79.6875C105.904 79.3335 106.006 78.9743 106.077 78.6108C107.041 73.608 102.038 69.6619 94.7865 69.5497C88.7991 64.4895 80.8 62.6891 76.0512 65.3888C71.0153 62.5265 62.3247 64.7217 56.2539 70.4986C49.9673 76.4816 48.8732 84.0398 53.8099 87.3805C54.1552 87.6136 54.5231 87.818 54.9075 87.9989C54.7518 88.2885 54.6005 88.5816 54.457 88.8808C50.8606 96.4068 52.7514 103.841 58.6805 105.484C60.5731 106.009 62.6474 105.878 64.7131 105.216C65.3958 112.395 70.2099 117.961 76.0512 117.961C79.1753 117.961 82.0055 116.368 84.0668 113.787C86.6908 115.865 89.8211 116.388 92.5816 114.825C94.0976 113.967 95.3179 112.583 96.1972 110.872C101.131 114.948 107.644 115.42 111.309 111.754C114.974 108.089 114.503 101.577 110.426 96.6425C112.138 95.7631 113.522 94.5429 114.38 93.0269C117.069 88.2755 113.59 82.4238 106.612 79.9589V79.9589Z" fill="#509C49"/>
<path d="M95.8476 70.4986C92.6608 67.4658 88.7522 65.4219 85.0288 64.5765C86.6822 65.5254 88.2729 66.6926 89.715 68.0651C96.0015 74.0481 97.0957 81.6062 92.159 84.9469C91.8137 85.18 91.4458 85.3844 91.0613 85.5653C91.217 85.855 91.3684 86.1481 91.5119 86.4473C95.1083 93.9732 93.2175 101.407 87.2884 103.051C86.0472 103.395 84.7269 103.457 83.3832 103.272C82.2429 103.114 81.161 103.848 80.9114 104.972C79.5571 111.063 75.1492 115.527 69.9177 115.527C69.8481 115.527 69.7803 115.523 69.7107 115.521C71.525 117.062 73.7046 117.961 76.0512 117.961C81.5567 117.961 86.1499 113.016 87.231 106.435C87.3336 105.814 87.9372 105.395 88.5512 105.531C90.2264 105.904 91.8841 105.911 93.421 105.484C99.3501 103.841 101.241 96.4068 97.6445 88.8808C97.5019 88.5816 97.3497 88.2885 97.1948 87.9989C97.5784 87.818 97.9463 87.6136 98.2925 87.3796C103.229 84.0398 102.134 76.4816 95.8476 70.4986V70.4986Z" fill="#46853E"/>
<path d="M87.177 85.848C87.1161 83.364 86.6665 80.9418 85.922 78.7204C86.6674 75.3788 86.443 72.1912 85.0931 69.8168C87.9555 64.7809 85.7602 56.0904 79.9833 50.0195C74.0003 43.733 66.4413 42.6388 63.1014 47.5755C62.8675 47.9208 62.664 48.2887 62.4831 48.6731C62.1934 48.5175 61.9003 48.3661 61.6011 48.2226C54.0743 44.6262 46.6405 46.517 44.9976 52.4461C44.4722 54.3387 44.6036 56.4131 45.2663 58.4787C38.0865 59.1615 32.521 63.9755 32.521 69.8168C32.521 72.5922 33.7787 75.1336 35.8678 77.1123C34.8389 79.4719 34.8537 82.0029 36.1574 84.306C37.1237 86.015 38.6841 87.3892 40.6132 88.3808C36.0191 93.9411 35.4877 101.281 39.6173 105.41C43.7477 109.541 51.0867 109.01 56.6479 104.415C57.6394 106.345 59.0136 107.904 60.7227 108.871C66.0769 111.901 72.6704 107.982 75.4493 100.117C75.5598 99.8041 75.6598 99.4901 75.7546 99.1752C76.1538 99.3187 76.5591 99.4344 76.9688 99.5136C82.8213 100.642 87.3919 94.5238 87.177 85.848V85.848Z" fill="#B8EB6A"/>
<path d="M87.177 85.848C87.1596 85.1418 87.1083 84.4408 87.0309 83.7485C86.2003 90.6769 82.0725 95.2039 76.9688 94.2194C76.8661 94.1994 76.7644 94.1776 76.6626 94.1533C76.1486 94.0315 75.6311 94.3081 75.4554 94.8065C75.4537 94.8117 75.4519 94.8169 75.4493 94.8221C72.6713 102.687 66.0777 106.607 60.7227 103.577C59.0136 102.61 57.6394 101.05 56.6479 99.1213C51.0876 103.715 43.7477 104.247 39.6182 100.116C38.3405 98.8395 37.5108 97.2548 37.1072 95.511C36.3314 99.2492 37.1228 102.915 39.6182 105.41C43.7477 109.541 51.0876 109.009 56.6479 104.415C57.6394 106.344 59.0136 107.904 60.7227 108.871C66.0777 111.901 72.6713 107.981 75.4493 100.116C75.5598 99.8041 75.6598 99.4892 75.7555 99.1744C76.1547 99.3187 76.5591 99.4344 76.9688 99.5136C82.8213 100.642 87.3919 94.5238 87.177 85.848ZM63.1014 92.0572C62.8675 91.7119 62.664 91.344 62.4831 90.9596C62.1934 91.1152 61.9003 91.2666 61.6011 91.4101C54.0752 95.0065 46.6414 93.1157 44.9976 87.1866C44.4731 85.294 44.6036 83.2196 45.2672 81.1549C38.0865 80.4712 32.521 75.6572 32.521 69.8159C32.521 66.1386 34.7284 62.8692 38.1544 60.7809C37.3446 62.2047 36.8932 63.7825 36.8932 65.4437C36.8932 71.2849 42.4588 76.099 49.6394 76.7818C48.9767 78.8474 48.8454 80.9218 49.3698 82.8143C51.0136 88.7434 58.4474 90.6343 65.9734 87.037C66.2726 86.8943 66.5657 86.743 66.8553 86.5873C67.0362 86.9718 67.2406 87.3397 67.4746 87.6849C70.3273 91.9015 76.2573 91.7145 81.655 87.6536C81.1366 88.3303 80.58 88.9861 79.9833 89.6132C74.0003 95.8997 66.4422 96.9948 63.1014 92.0572V92.0572Z" fill="#A1E52E"/>
<path d="M50.7188 77.8828C50.7188 76.653 49.722 75.6562 48.4922 75.6562C47.2624 75.6562 46.2656 76.653 46.2656 77.8828C46.2656 79.1126 47.2624 80.1094 48.4922 80.1094C49.722 80.1094 50.7188 79.1126 50.7188 77.8828ZM57.3984 102.375C56.1686 102.375 55.1719 101.378 55.1719 100.148C55.1719 98.9186 56.1686 97.9219 57.3984 97.9219C58.6283 97.9219 59.625 98.9186 59.625 100.148C59.625 101.378 58.6283 102.375 57.3984 102.375ZM81.8906 91.2422C80.6608 91.2422 79.6641 90.2455 79.6641 89.0156C79.6641 87.7858 80.6608 86.7891 81.8906 86.7891C83.1205 86.7891 84.1172 87.7858 84.1172 89.0156C84.1172 90.2455 83.1205 91.2422 81.8906 91.2422ZM68.5312 89.0156C67.3014 89.0156 66.3047 88.0189 66.3047 86.7891C66.3047 85.5592 67.3014 84.5625 68.5312 84.5625C69.7611 84.5625 70.7578 85.5592 70.7578 86.7891C70.7578 88.0189 69.7611 89.0156 68.5312 89.0156ZM106.383 93.4688C105.153 93.4688 104.156 92.472 104.156 91.2422C104.156 90.0124 105.153 89.0156 106.383 89.0156C107.613 89.0156 108.609 90.0124 108.609 91.2422C108.609 92.472 107.613 93.4688 106.383 93.4688Z" fill="#31662B"/>
<path d="M87.2962 42.9571C86.075 42.4013 85.354 41.3176 85.354 40.1747V36.6914C85.354 34.7936 83.4188 33.2646 81.0748 33.355C78.8787 33.4402 77.1897 34.9875 77.1897 36.7862V36.8071C77.1897 38.6187 75.3675 40.0434 73.154 40.0312C73.1384 40.0312 73.1236 40.0312 73.1079 40.0312C69.0966 40.0312 65.896 42.8718 66.3474 46.2291C66.6874 48.7548 81.4862 53.6324 84.7147 53.3602C87.8624 53.0949 90.4099 51.0275 90.7543 48.4539C91.07 46.1003 89.5914 44.0016 87.2962 42.9571V42.9571Z" fill="#FDBF43"/>
<path d="M85.354 36.9175V36.6913C85.354 34.7935 83.4188 33.2645 81.0749 33.355C78.8796 33.4402 77.1905 34.9875 77.1905 36.7861V36.807C77.1905 38.6187 75.3684 40.0434 73.154 40.0312C73.1384 40.0312 73.1236 40.0312 73.1079 40.0312C69.0966 40.0312 65.8959 42.8727 66.3474 46.229C66.4561 47.0353 68.0373 48.0807 70.2447 49.1218C70.2699 46.0647 73.3045 43.5928 77.047 43.5928H77.0931C79.3075 43.605 81.1288 42.1795 81.1288 40.3678V40.3469C81.1288 38.5483 82.8178 37.001 85.014 36.9166C85.1279 36.9123 85.2418 36.9149 85.354 36.9175V36.9175Z" fill="#FCB30B"/>
<path d="M114.809 52.3843C113.361 49.9003 111.315 47.8033 108.781 46.4465C104.527 44.1686 99.51 42.8527 94.1367 42.8527C93.3244 42.8527 92.5199 42.8831 91.7258 42.9423C87.8389 43.231 84.252 45.0514 81.5801 47.8885C79.6206 49.969 77.267 51.7607 74.616 53.1784C69.5854 55.8702 66.3395 61.0574 66.3047 66.7621C66.3047 66.8048 66.3047 66.8474 66.3047 66.89C66.3047 77.0887 73.6593 85.8036 84.0389 89.2948C88.6677 90.8516 93.7245 90.482 98.121 88.3554C101.177 86.8769 104.959 85.6801 108.112 84.826C116.015 82.6855 121.73 75.6693 121.96 67.4849C121.965 67.2866 121.969 67.0883 121.969 66.89C121.969 66.8622 121.969 66.8343 121.968 66.8065C121.953 63.0309 120.518 59.3753 117.95 56.6069C116.742 55.304 115.687 53.889 114.809 52.3843V52.3843Z" fill="#8F4A4B"/>
<path d="M121.961 67.4849C121.966 67.2866 121.969 67.0883 121.969 66.89V66.8065C121.954 63.0309 120.518 59.3753 117.951 56.6069C116.742 55.304 115.687 53.8889 114.809 52.3843C113.361 49.9003 111.315 47.8033 108.781 46.4465C105.584 44.7348 101.957 43.5667 98.0715 43.0918C94.6673 43.6389 91.5544 45.3567 89.1705 47.8885C87.2109 49.969 84.8574 51.7607 82.2072 53.1783C77.1766 55.8702 73.9298 61.0574 73.8959 66.7621C73.8959 66.8047 73.895 66.8474 73.895 66.89C73.895 77.0887 81.2505 85.8036 91.6301 89.2948C92.3137 89.5252 93.0078 89.7079 93.7071 89.854C95.2231 89.5392 96.706 89.0399 98.1211 88.3554C101.177 86.8768 104.96 85.6801 108.112 84.826C116.015 82.6855 121.73 75.6692 121.961 67.4849V67.4849Z" fill="#B7696A"/>
<path d="M115.833 62.931L114.792 63.7259L116.689 65.622C117.558 66.4917 117.558 67.9016 116.689 68.7713L116.26 69.2001C115.39 70.0699 113.98 70.0699 113.111 69.2001L110.737 66.8257L104.755 71.3988L109.009 75.6528C109.878 76.5226 109.878 77.9324 109.009 78.8022L108.58 79.231C107.71 80.1007 106.3 80.1007 105.43 79.231L100.699 74.4995L94.7168 79.0718L96.4485 80.8035C97.3173 81.6723 97.3173 83.0822 96.4485 83.952L96.0188 84.3816C95.149 85.2514 93.7392 85.2514 92.8694 84.3816L90.6611 82.1725L88.0997 84.1303C87.123 84.8765 85.7253 84.6904 84.979 83.7137L84.6103 83.2309C83.8632 82.2542 84.0502 80.8565 85.0269 80.1094L87.0508 78.5621L82.3785 73.8907L80.5085 75.3197C79.5318 76.0668 78.1341 75.8798 77.3879 74.9031L77.0191 74.4204C76.272 73.4436 76.459 72.0459 77.4357 71.2988L78.7682 70.2803L76.9521 68.4643C76.0824 67.5946 76.0824 66.1847 76.9521 65.3149L77.3809 64.8862C78.2507 64.0164 79.6605 64.0164 80.5303 64.8862L82.8238 67.1806L88.806 62.6074L84.5424 58.343C83.6727 57.4741 83.6727 56.0643 84.5424 55.1945L84.9721 54.7657C85.841 53.896 87.2508 53.896 88.1206 54.7657L92.8625 59.5076L98.8446 54.9345L95.9283 52.0182C95.0586 51.1484 95.0586 49.7386 95.9283 48.8697L96.358 48.44C97.2269 47.5703 98.6367 47.5703 99.5065 48.44L102.9 51.8338L105.458 49.8795C106.435 49.1324 107.833 49.3194 108.579 50.2961L108.948 50.7788C109.695 51.7555 109.508 53.1532 108.531 53.8995L106.511 55.4441L111.183 60.1164L112.759 58.911C113.736 58.1647 115.133 58.3508 115.88 59.3276L116.249 59.8103C116.995 60.787 116.809 62.1838 115.833 62.931V62.931ZM86.4341 70.79L91.1064 75.4623L97.0886 70.8892L92.4163 66.2177L86.4341 70.79ZM102.454 58.5439L96.4719 63.1171L101.144 67.7885L107.126 63.2162L102.454 58.5439Z" fill="#783D3E"/>
<path d="M79.6641 54.5039C79.6641 44.0512 71.1909 35.5781 60.7383 35.5781C50.2856 35.5781 41.8125 44.0512 41.8125 54.5039C41.8125 64.9566 50.2856 73.4297 60.7383 73.4297C71.1909 73.4297 79.6641 64.9566 79.6641 54.5039Z" fill="#E84444"/>
<path d="M60.7383 73.4297C61.8785 73.4297 62.9935 73.3227 64.0781 73.1296C59.1449 72.2512 54.8744 69.461 52.0564 65.5541C53.5533 65.3427 54.7996 64.2434 55.1684 62.7413L56.0347 59.2075L52.5009 60.0738C51.4093 60.3417 50.5309 61.0749 50.0508 62.029C49.355 60.4252 48.8749 58.7074 48.647 56.9105C49.4376 56.9923 50.256 56.8261 50.9745 56.3904L54.0873 54.5039L50.9745 52.6174C50.256 52.1825 49.4376 52.0155 48.647 52.0982C48.8749 50.3004 49.355 48.5826 50.0508 46.9797C50.5318 47.9338 51.4093 48.6661 52.5009 48.934L56.0347 49.8012L55.1684 46.2665C54.7996 44.7644 53.5533 43.6651 52.0564 43.4537C54.8735 39.5468 59.1449 36.7566 64.0781 35.8782C62.9935 35.6842 61.8785 35.5781 60.7383 35.5781C50.2856 35.5781 41.8125 44.0512 41.8125 54.5039C41.8125 64.9566 50.2856 73.4297 60.7383 73.4297V73.4297ZM60.7383 57.8438C58.8935 57.8438 57.3984 56.3486 57.3984 54.5039C57.3984 52.6592 58.8935 51.1641 60.7383 51.1641C62.583 51.1641 64.0781 52.6592 64.0781 54.5039C64.0781 56.3486 62.583 57.8438 60.7383 57.8438ZM60.7383 61.1549L62.6248 64.2677C63.518 65.742 63.2893 67.6354 62.0699 68.8548C62.0664 68.8591 62.062 68.8626 62.0586 68.867C61.3349 69.5828 60.1408 69.5828 59.418 68.867C59.4136 68.8626 59.4102 68.8591 59.4058 68.8548C58.1873 67.6363 57.9586 65.742 58.8518 64.2677L60.7383 61.1549ZM60.7383 47.8529L58.8518 44.7401C57.9586 43.2659 58.1873 41.3724 59.4067 40.153C59.4102 40.1487 59.4145 40.1452 59.418 40.1408C60.1416 39.425 61.3358 39.425 62.0586 40.1408C62.0629 40.1452 62.0664 40.1487 62.0707 40.153C63.2893 41.3715 63.518 43.2659 62.6248 44.7401L60.7383 47.8529ZM75.1005 55.8242C75.097 55.8277 75.0926 55.832 75.0892 55.8355C73.8698 57.0549 71.9763 57.2836 70.5021 56.3904L67.3893 54.5039L70.5021 52.6174C71.9763 51.7242 73.8698 51.9529 75.0892 53.1723C75.0935 53.1758 75.097 53.1801 75.1013 53.1836C75.8172 53.9064 75.8172 55.1014 75.1005 55.8242V55.8242ZM68.9757 48.934L65.441 49.8012L66.3082 46.2665C66.7187 44.5922 68.2199 43.4146 69.9437 43.4146H69.9611C70.9787 43.4189 71.8233 44.2635 71.8276 45.2811C71.8276 45.2872 71.8276 45.2924 71.8276 45.2976C71.8276 47.0223 70.65 48.5235 68.9757 48.934V48.934ZM71.8276 63.7094C71.8276 63.7154 71.8276 63.7207 71.8276 63.7267C71.8233 64.7444 70.9779 65.5889 69.9602 65.5932C69.955 65.5932 69.9498 65.5932 69.9437 65.5932C68.2199 65.5932 66.7187 64.4156 66.3082 62.7413L65.441 59.2066L68.9757 60.0738C70.65 60.4843 71.8276 61.9855 71.8276 63.7094Z" fill="#C92C2C"/>
<path d="M121.969 125.754C121.969 123.909 120.474 122.414 118.629 122.414H93.0234C91.7936 122.414 90.7969 121.417 90.7969 120.188C90.7969 118.958 91.7936 117.961 93.0234 117.961H105.27C107.114 117.961 108.609 116.466 108.609 114.621C108.609 112.776 107.114 111.281 105.27 111.281H101.93C100.7 111.281 99.7031 110.285 99.7031 109.055C99.7031 107.825 100.7 106.828 101.93 106.828H103.043C104.888 106.828 106.383 105.333 106.383 103.488C106.383 101.644 104.888 100.148 103.043 100.148H94.1367C92.292 100.148 90.7969 101.644 90.7969 103.488C90.7969 105.333 92.292 106.828 94.1367 106.828H95.25C96.4798 106.828 97.4766 107.825 97.4766 109.055C97.4766 110.285 96.4798 111.281 95.25 111.281H78.5508C76.706 111.281 75.2109 112.776 75.2109 114.621C75.2109 116.466 76.706 117.961 78.5508 117.961H86.3438C87.5736 117.961 88.5703 118.958 88.5703 120.188C88.5703 121.417 87.5736 122.414 86.3438 122.414H85.2305C83.3857 122.414 81.8906 123.909 81.8906 125.754C81.8906 127.599 83.3857 129.094 85.2305 129.094H118.629C120.474 129.094 121.969 127.599 121.969 125.754Z" fill="#FFF5F5"/>
</svg>
