<svg width="162" height="162" viewBox="0 0 162 162" fill="none" xmlns="http://www.w3.org/2000/svg">
<circle cx="81" cy="81" r="81" fill="#FFE2E2"/>
<path d="M128 58.1338V112.083C128 114.144 126.328 115.816 124.265 115.816H43.2449C41.1815 115.816 39.5095 114.144 39.5095 112.083V58.1338H128Z" fill="#DDEDE5"/>
<path d="M82.2275 104.462C82.2275 108.542 81.2591 112.398 79.538 115.816H43.2449C41.1815 115.816 39.5095 114.144 39.5095 112.082V86.0272C44.0507 81.747 50.1673 79.1182 56.8853 79.1182C70.8586 79.1178 82.2275 90.4868 82.2275 104.462Z" fill="#AFC3C3"/>
<path d="M128 58.1328H39.5097V62.835H128V58.1328Z" fill="#AFC3C3"/>
<path d="M128 54.3097V60.52H39.51V54.3097C39.51 49.9048 43.0798 46.335 47.4848 46.335H120.025C124.43 46.335 128 49.9048 128 54.3097Z" fill="#FF4F19"/>
<path d="M128 58.1328H39.5096V60.5214H128V58.1328Z" fill="#FF9900"/>
<path d="M67.1521 46.335V50.0953C67.1521 51.274 66.1959 52.232 65.0154 52.232H52.9972C51.8167 52.232 50.8605 51.274 50.8605 50.0953V46.335H67.1521Z" fill="#F40029"/>
<path d="M116.649 46.335V50.0953C116.649 51.274 115.693 52.232 114.513 52.232H102.495C101.314 52.232 100.358 51.274 100.358 50.0953V46.335H116.649Z" fill="#F40029"/>
<path d="M63.7025 49.9169H54.3101C53.6833 49.9169 53.1753 49.4089 53.1753 48.7821V43.7891C53.1753 43.1623 53.6833 42.6543 54.3101 42.6543H63.7025C64.3293 42.6543 64.8373 43.1623 64.8373 43.7891V48.7821C64.8373 49.4087 64.3293 49.9169 63.7025 49.9169Z" fill="#4E7693"/>
<path d="M64.8373 44.9608H53.1751V43.7891C53.1751 43.1623 53.6831 42.6543 54.3099 42.6543H63.7023C64.3291 42.6543 64.8371 43.1623 64.8371 43.7891V44.9608H64.8373Z" fill="#618BAA"/>
<path d="M113.2 49.9169H103.807C103.181 49.9169 102.673 49.4089 102.673 48.7821V43.7891C102.673 43.1623 103.181 42.6543 103.807 42.6543H113.2C113.827 42.6543 114.335 43.1623 114.335 43.7891V48.7821C114.335 49.4087 113.827 49.9169 113.2 49.9169Z" fill="#4E7693"/>
<path d="M114.335 44.9608H102.673V43.7891C102.673 43.1623 103.181 42.6543 103.807 42.6543H113.2C113.827 42.6543 114.335 43.1623 114.335 43.7891V44.9608H114.335Z" fill="#618BAA"/>
<path d="M73.3689 78.1015H69.6893C68.9059 78.1015 68.2709 77.4665 68.2709 76.6831C68.2709 75.8997 68.9059 75.2646 69.6893 75.2646H73.3689C74.1523 75.2646 74.7874 75.8997 74.7874 76.6831C74.7874 77.4665 74.1523 78.1015 73.3689 78.1015Z" fill="#35696A"/>
<path d="M84.5265 78.1015H80.8469C80.0635 78.1015 79.4284 77.4665 79.4284 76.6831C79.4284 75.8997 80.0635 75.2646 80.8469 75.2646H84.5265C85.31 75.2646 85.9449 75.8997 85.9449 76.6831C85.9449 77.4665 85.31 78.1015 84.5265 78.1015Z" fill="#35696A"/>
<path d="M73.3689 85.7168H69.6893C68.9059 85.7168 68.2709 85.0817 68.2709 84.2983C68.2709 83.5149 68.9059 82.8799 69.6893 82.8799H73.3689C74.1523 82.8799 74.7874 83.5149 74.7874 84.2983C74.7874 85.0817 74.1523 85.7168 73.3689 85.7168Z" fill="#35696A"/>
<path d="M84.5265 85.7168H80.8469C80.0635 85.7168 79.4284 85.0817 79.4284 84.2983C79.4284 83.5149 80.0635 82.8799 80.8469 82.8799H84.5265C85.31 82.8799 85.9449 83.5149 85.9449 84.2983C85.9449 85.0817 85.31 85.7168 84.5265 85.7168Z" fill="#35696A"/>
<path d="M84.5265 93.333H80.8469C80.0635 93.333 79.4284 92.6979 79.4284 91.9145C79.4284 91.1311 80.0635 90.4961 80.8469 90.4961H84.5265C85.31 90.4961 85.9449 91.1311 85.9449 91.9145C85.9449 92.6979 85.31 93.333 84.5265 93.333Z" fill="#35696A"/>
<path d="M91.5298 107.827C90.7463 107.827 90.1114 107.192 90.1114 106.409V69.3237C90.1114 68.5403 90.7464 67.9053 91.5298 67.9053C92.3132 67.9053 92.9483 68.5403 92.9483 69.3237V106.409C92.9483 107.192 92.3134 107.827 91.5298 107.827Z" fill="#FF4F19"/>
<path d="M121.633 84.9744V78.0619C121.633 77.5045 121.307 76.9987 120.799 76.7692C120.291 76.5401 119.696 76.6291 119.277 76.9976L117.819 78.2818C117.231 78.7995 117.175 79.696 117.692 80.2839C117.982 80.6125 118.39 80.7754 118.796 80.7642V84.9731H118.757C117.973 84.9731 117.339 85.6081 117.339 86.3915C117.339 87.1749 117.974 87.81 118.757 87.81H121.606C122.389 87.81 123.024 87.1749 123.024 86.3915C123.024 85.6175 122.404 84.989 121.633 84.9744Z" fill="#35696A"/>
<path d="M115.26 84.9744V78.0619C115.26 77.5045 114.933 76.9987 114.425 76.7692C113.918 76.5401 113.322 76.629 112.904 76.9974L111.446 78.2817C110.858 78.7994 110.801 79.6959 111.319 80.2838C111.608 80.6126 112.016 80.7753 112.423 80.7641V84.9729H112.383C111.6 84.9729 110.965 85.608 110.965 86.3914C110.965 87.1748 111.6 87.8098 112.383 87.8098H115.232C116.016 87.8098 116.651 87.1748 116.651 86.3914C116.651 85.6175 116.03 84.9895 115.26 84.9744Z" fill="#35696A"/>
<path d="M113.835 97.7938V90.8813C113.835 90.3239 113.509 89.8181 113.001 89.5887C112.493 89.3593 111.898 89.4484 111.479 89.8169L110.021 91.1011C109.434 91.619 109.377 92.5153 109.895 93.1032C110.184 93.432 110.591 93.5954 110.998 93.5835V97.7925H110.959C110.175 97.7925 109.541 98.4276 109.541 99.211C109.541 99.9944 110.176 100.629 110.959 100.629H113.808C114.591 100.629 115.226 99.9944 115.226 99.211C115.226 98.4368 114.606 97.8087 113.835 97.7938Z" fill="#35696A"/>
<path d="M107.548 97.7938V90.8813C107.548 90.3239 107.222 89.8181 106.714 89.5887C106.206 89.3593 105.611 89.4484 105.192 89.8169L103.734 91.1011C103.146 91.6188 103.089 92.5153 103.607 93.103C103.897 93.4318 104.305 93.5954 104.711 93.5835V97.7925H104.672C103.888 97.7925 103.253 98.4276 103.253 99.211C103.253 99.9944 103.888 100.629 104.672 100.629H107.521C108.304 100.629 108.939 99.9944 108.939 99.211C108.939 98.4368 108.319 97.8087 107.548 97.7938Z" fill="#35696A"/>
<path d="M56.885 127.346C69.524 127.346 79.7699 117.1 79.7699 104.461C79.7699 91.8221 69.524 81.5762 56.885 81.5762C44.2459 81.5762 34 91.8221 34 104.461C34 117.1 44.2459 127.346 56.885 127.346Z" fill="#FF4F19"/>
<path d="M56.8846 124.912C45.6081 124.912 36.4341 115.738 36.4341 104.461C36.4341 93.1847 45.6081 84.0107 56.8846 84.0107C68.1611 84.0107 77.3351 93.1847 77.3351 104.461C77.3351 115.738 68.1611 124.912 56.8846 124.912Z" fill="#F40029"/>
<path d="M56.885 122.453C66.8218 122.453 74.8772 114.398 74.8772 104.461C74.8772 94.5241 66.8218 86.4688 56.885 86.4688C46.9481 86.4688 38.8928 94.5241 38.8928 104.461C38.8928 114.398 46.9481 122.453 56.885 122.453Z" fill="#DDEDE5"/>
<path d="M56.8846 93.1314C56.1012 93.1314 55.4661 92.4964 55.4661 91.713V90.1772C55.4661 89.3938 56.1012 88.7588 56.8846 88.7588C57.668 88.7588 58.303 89.3938 58.303 90.1772V91.713C58.3032 92.4962 57.668 93.1314 56.8846 93.1314Z" fill="#FF4F19"/>
<path d="M56.8846 120.163C56.1012 120.163 55.4661 119.528 55.4661 118.745V117.209C55.4661 116.426 56.1012 115.791 56.8846 115.791C57.668 115.791 58.303 116.426 58.303 117.209V118.745C58.3032 119.528 57.668 120.163 56.8846 120.163Z" fill="#FF4F19"/>
<path d="M71.1687 105.88H69.6332C68.8498 105.88 68.2147 105.245 68.2147 104.461C68.2147 103.678 68.8498 103.043 69.6332 103.043H71.1687C71.9521 103.043 72.5872 103.678 72.5872 104.461C72.5874 105.245 71.9521 105.88 71.1687 105.88Z" fill="#FF4F19"/>
<path d="M44.1362 105.88H42.6006C41.8172 105.88 41.1822 105.245 41.1822 104.461C41.1822 103.678 41.8172 103.043 42.6006 103.043H44.1362C44.9196 103.043 45.5547 103.678 45.5547 104.461C45.5548 105.245 44.9196 105.88 44.1362 105.88Z" fill="#FF4F19"/>
<path d="M65.8992 96.8652C65.5363 96.8652 65.1731 96.7266 64.8963 96.4497C64.3422 95.8958 64.3422 94.9977 64.8963 94.4436L65.982 93.3578C66.5359 92.8039 67.4341 92.8039 67.9882 93.3578C68.5422 93.9117 68.5422 94.8098 67.9882 95.3639L66.9024 96.4497C66.6253 96.7266 66.2622 96.8652 65.8992 96.8652Z" fill="#FF4F19"/>
<path d="M46.7844 115.98C46.4214 115.98 46.0583 115.842 45.7814 115.565C45.2273 115.011 45.2273 114.113 45.7814 113.559L46.8672 112.473C47.4211 111.919 48.3192 111.919 48.8733 112.473C49.4274 113.027 49.4274 113.925 48.8733 114.479L47.7875 115.565C47.5105 115.842 47.1473 115.98 46.7844 115.98Z" fill="#FF4F19"/>
<path d="M66.985 115.98C66.622 115.98 66.2589 115.842 65.982 115.565L64.8963 114.479C64.3422 113.925 64.3422 113.027 64.8963 112.473C65.4502 111.919 66.3483 111.919 66.9024 112.473L67.9882 113.559C68.5422 114.113 68.5422 115.011 67.9882 115.565C67.7111 115.842 67.3482 115.98 66.985 115.98Z" fill="#FF4F19"/>
<path d="M47.8701 96.8652C47.5072 96.8652 47.144 96.7266 46.8672 96.4497L45.7814 95.3639C45.2273 94.81 45.2273 93.9119 45.7814 93.3578C46.3353 92.8039 47.2334 92.8039 47.7875 93.3578L48.8733 94.4436C49.4274 94.9975 49.4274 95.8956 48.8733 96.4497C48.5963 96.7266 48.2333 96.8652 47.8701 96.8652Z" fill="#FF4F19"/>
<path d="M56.8627 103.378C56.0794 103.378 55.4443 102.743 55.4443 101.959V95.4468C55.4443 94.6634 56.0794 94.0283 56.8627 94.0283C57.6461 94.0283 58.2812 94.6634 58.2812 95.4468V101.959C58.2812 102.743 57.6461 103.378 56.8627 103.378Z" fill="#AFC3C3"/>
<path d="M56.885 107.354C58.4928 107.354 59.7962 106.05 59.7962 104.442C59.7962 102.835 58.4928 101.531 56.885 101.531C55.2771 101.531 53.9737 102.835 53.9737 104.442C53.9737 106.05 55.2771 107.354 56.885 107.354Z" fill="#4E7693"/>
<path d="M100.229 75.8587H97.833C97.2062 75.8587 96.6982 75.3507 96.6982 74.7239V72.3282C96.6982 71.7014 97.2062 71.1934 97.833 71.1934H100.229C100.855 71.1934 101.363 71.7014 101.363 72.3282V74.7239C101.363 75.3507 100.855 75.8587 100.229 75.8587Z" fill="#FF4F19"/>
</svg>
