<svg width="162" height="162" viewBox="0 0 162 162" fill="none" xmlns="http://www.w3.org/2000/svg">
<circle cx="81" cy="81" r="81" fill="#FFE2E2"/>
<path d="M138 81C138 49.5194 112.481 24 81 24C49.5194 24 24 49.5194 24 81C24 112.481 49.5194 138 81 138C112.481 138 138 112.481 138 81Z" fill="#F18BC3"/>
<path d="M126.047 76.1362C126.047 48.5721 103.701 26.2264 76.1364 26.2264C48.5722 26.2264 26.2266 48.5721 26.2266 76.1362C26.2266 103.701 48.5722 126.047 76.1364 126.047C103.701 126.047 126.047 103.701 126.047 76.1362Z" fill="#9BB9C3"/>
<path d="M76.1364 128.273C48.1434 128.273 25.3064 106.211 24.0565 78.5263C25.3168 49.0148 49.0149 25.3167 78.5264 24.0564C106.211 25.3062 128.273 48.1433 128.273 76.1362C128.274 104.931 104.931 128.273 76.1364 128.273ZM76.1364 31.4284C51.445 31.4284 31.4285 51.4449 31.4285 76.1362C31.4285 100.828 51.445 120.844 76.1364 120.844C100.828 120.844 120.844 100.828 120.844 76.1362C120.844 51.4449 100.828 31.4284 76.1364 31.4284V31.4284Z" fill="#B4D2D7"/>
<path d="M80.6712 24.2008C79.9598 24.1399 79.2457 24.0886 78.5264 24.0564C49.0149 25.3167 25.3168 49.0148 24.0565 78.5263C25.3064 106.211 48.1434 128.273 76.1364 128.273C76.8713 128.273 77.601 128.254 78.329 128.224C78.0472 128.212 77.7671 128.199 77.4871 128.182C34.2691 125.692 14.1962 73.6287 43.7964 42.0402C53.1871 32.0181 66.1594 25.3923 80.6712 24.2008V24.2008Z" fill="#9BB9C3"/>
<path d="M106.612 79.9589C106.334 79.8606 106.055 79.7719 105.776 79.6875C105.904 79.3335 106.006 78.9743 106.077 78.6108C107.041 73.608 102.038 69.6619 94.7864 69.5497C88.7991 64.4895 80.8 62.6891 76.0511 65.3888C71.0153 62.5265 62.3247 64.7217 56.2538 70.4986C49.9673 76.4816 48.8731 84.0398 53.8098 87.3805C54.1551 87.6136 54.523 87.818 54.9075 87.9989C54.7518 88.2885 54.6005 88.5816 54.4569 88.8808C50.8605 96.4068 52.7514 103.841 58.6805 105.484C60.573 106.009 62.6474 105.878 64.713 105.216C65.3958 112.395 70.2099 117.961 76.0511 117.961C79.1753 117.961 82.0054 116.368 84.0667 113.787C86.6908 115.865 89.821 116.388 92.5816 114.825C94.0976 113.967 95.3178 112.583 96.1972 110.872C101.131 114.948 107.644 115.42 111.309 111.754C114.974 108.089 114.503 101.577 110.426 96.6425C112.138 95.7631 113.522 94.5429 114.38 93.0269C117.069 88.2755 113.59 82.4238 106.612 79.9589V79.9589Z" fill="#509C49"/>
<path d="M95.8475 70.4986C92.6608 67.4658 88.7521 65.4219 85.0287 64.5765C86.6821 65.5254 88.2729 66.6926 89.7149 68.0651C96.0015 74.0481 97.0956 81.6062 92.1589 84.9469C91.8136 85.18 91.4457 85.3844 91.0613 85.5653C91.217 85.855 91.3683 86.1481 91.5118 86.4473C95.1082 93.9732 93.2174 101.407 87.2883 103.051C86.0472 103.395 84.7269 103.457 83.3831 103.272C82.2429 103.114 81.1609 103.848 80.9113 104.972C79.5571 111.063 75.1492 115.527 69.9176 115.527C69.8481 115.527 69.7802 115.523 69.7106 115.521C71.5249 117.062 73.7045 117.961 76.0511 117.961C81.5566 117.961 86.1498 113.016 87.2309 106.435C87.3335 105.814 87.9371 105.395 88.5512 105.531C90.2263 105.904 91.8841 105.911 93.4209 105.484C99.35 103.841 101.241 96.4068 97.6444 88.8808C97.5018 88.5816 97.3496 88.2885 97.1948 87.9989C97.5783 87.818 97.9462 87.6136 98.2924 87.3796C103.229 84.0398 102.134 76.4816 95.8475 70.4986V70.4986Z" fill="#46853E"/>
<path d="M87.177 85.8478C87.1161 83.3638 86.6664 80.9415 85.9219 78.7202C86.6673 75.3786 86.4429 72.191 85.0931 69.8165C87.9554 64.7807 85.7602 56.0901 79.9833 50.0193C74.0003 43.7327 66.4412 42.6386 63.1014 47.5753C62.8674 47.9206 62.6639 48.2885 62.483 48.6729C62.1934 48.5172 61.9003 48.3659 61.6011 48.2224C54.0743 44.6259 46.6405 46.5168 44.9975 52.4459C44.4722 54.3385 44.6035 56.4128 45.2663 58.4785C38.0865 59.1612 32.521 63.9753 32.521 69.8165C32.521 72.5919 33.7786 75.1333 35.8678 77.112C34.8388 79.4716 34.8536 82.0026 36.1574 84.3057C37.1237 86.0148 38.684 87.389 40.6131 88.3805C36.0191 93.9408 35.4877 101.281 39.6172 105.41C43.7477 109.541 51.0867 109.009 56.6478 104.415C57.6394 106.344 59.0136 107.904 60.7226 108.871C66.0768 111.901 72.6704 107.982 75.4493 100.117C75.5597 99.8038 75.6597 99.4898 75.7545 99.175C76.1538 99.3185 76.5591 99.4342 76.9687 99.5133C82.8213 100.642 87.3918 94.5236 87.177 85.8478V85.8478Z" fill="#B8EB6A"/>
<path d="M87.177 85.8479C87.1596 85.1417 87.1083 84.4407 87.0309 83.7483C86.2003 90.6768 82.0724 95.2038 76.9687 94.2193C76.8661 94.1993 76.7643 94.1775 76.6626 94.1532C76.1485 94.0314 75.631 94.308 75.4553 94.8063C75.4536 94.8116 75.4519 94.8168 75.4493 94.822C72.6713 102.687 66.0777 106.607 60.7226 103.577C59.0136 102.61 57.6394 101.05 56.6478 99.1212C51.0875 103.715 43.7477 104.247 39.6181 100.116C38.3405 98.8394 37.5107 97.2547 37.1071 95.5108C36.3313 99.249 37.1228 102.915 39.6181 105.41C43.7477 109.541 51.0875 109.009 56.6478 104.414C57.6394 106.344 59.0136 107.904 60.7226 108.871C66.0777 111.901 72.6713 107.981 75.4493 100.116C75.5597 99.8039 75.6597 99.4891 75.7554 99.1742C76.1546 99.3186 76.5591 99.4343 76.9687 99.5134C82.8213 100.642 87.3918 94.5237 87.177 85.8479ZM63.1014 92.0571C62.8674 91.7118 62.6639 91.3439 62.483 90.9594C62.1934 91.1151 61.9003 91.2665 61.6011 91.41C54.0751 95.0064 46.6414 93.1155 44.9975 87.1865C44.4731 85.2939 44.6035 83.2195 45.2672 81.1547C38.0865 80.4711 32.521 75.657 32.521 69.8158C32.521 66.1385 34.7284 62.8691 38.1543 60.7808C37.3446 62.2046 36.8932 63.7823 36.8932 65.4436C36.8932 71.2848 42.4587 76.0989 49.6394 76.7816C48.9766 78.8473 48.8453 80.9216 49.3698 82.8142C51.0136 88.7433 58.4474 90.6341 65.9733 87.0369C66.2725 86.8942 66.5656 86.7429 66.8552 86.5872C67.0362 86.9716 67.2405 87.3395 67.4745 87.6848C70.3273 91.9014 76.2573 91.7144 81.6549 87.6535C81.1366 88.3302 80.5799 88.986 79.9833 89.6131C74.0003 95.8996 66.4421 96.9946 63.1014 92.0571V92.0571Z" fill="#A1E52E"/>
<path d="M50.7188 77.8828C50.7188 76.653 49.722 75.6562 48.4922 75.6562C47.2624 75.6562 46.2656 76.653 46.2656 77.8828C46.2656 79.1126 47.2624 80.1094 48.4922 80.1094C49.722 80.1094 50.7188 79.1126 50.7188 77.8828ZM57.3984 102.375C56.1686 102.375 55.1719 101.378 55.1719 100.148C55.1719 98.9186 56.1686 97.9219 57.3984 97.9219C58.6283 97.9219 59.625 98.9186 59.625 100.148C59.625 101.378 58.6283 102.375 57.3984 102.375ZM81.8906 91.2422C80.6608 91.2422 79.6641 90.2455 79.6641 89.0156C79.6641 87.7858 80.6608 86.7891 81.8906 86.7891C83.1205 86.7891 84.1172 87.7858 84.1172 89.0156C84.1172 90.2455 83.1205 91.2422 81.8906 91.2422ZM68.5312 89.0156C67.3014 89.0156 66.3047 88.0189 66.3047 86.7891C66.3047 85.5592 67.3014 84.5625 68.5312 84.5625C69.7611 84.5625 70.7578 85.5592 70.7578 86.7891C70.7578 88.0189 69.7611 89.0156 68.5312 89.0156ZM106.383 93.4688C105.153 93.4688 104.156 92.472 104.156 91.2422C104.156 90.0124 105.153 89.0156 106.383 89.0156C107.613 89.0156 108.609 90.0124 108.609 91.2422C108.609 92.472 107.613 93.4688 106.383 93.4688Z" fill="#31662B"/>
<path d="M87.2961 42.9571C86.075 42.4013 85.354 41.3176 85.354 40.1747V36.6914C85.354 34.7936 83.4188 33.2646 81.0748 33.355C78.8787 33.4402 77.1896 34.9875 77.1896 36.7862V36.8071C77.1896 38.6187 75.3675 40.0434 73.154 40.0312C73.1383 40.0312 73.1235 40.0312 73.1079 40.0312C69.0966 40.0312 65.8959 42.8718 66.3473 46.2291C66.6874 48.7548 81.4862 53.6324 84.7147 53.3602C87.8623 53.0949 90.4098 51.0275 90.7543 48.4539C91.07 46.1003 89.5914 44.0016 87.2961 42.9571V42.9571Z" fill="#FDBF43"/>
<path d="M85.354 36.9177V36.6916C85.354 34.7938 83.4188 33.2648 81.0748 33.3552C78.8796 33.4405 77.1905 34.9877 77.1905 36.7864V36.8073C77.1905 38.619 75.3684 40.0436 73.154 40.0314C73.1383 40.0314 73.1235 40.0314 73.1079 40.0314C69.0966 40.0314 65.8959 42.8729 66.3473 46.2293C66.456 47.0355 68.0372 48.081 70.2447 49.1221C70.2699 46.0649 73.3044 43.5931 77.047 43.5931H77.0931C79.3075 43.6052 81.1287 42.1797 81.1287 40.368V40.3471C81.1287 38.5485 82.8178 37.0012 85.0139 36.9169C85.1278 36.9125 85.2418 36.9151 85.354 36.9177V36.9177Z" fill="#FCB30B"/>
<path d="M114.809 52.3844C113.361 49.9004 111.315 47.8034 108.781 46.4466C104.527 44.1687 99.51 42.8528 94.1367 42.8528C93.3244 42.8528 92.5199 42.8832 91.7258 42.9424C87.8389 43.2312 84.252 45.0515 81.5801 47.8887C79.6206 49.9691 77.267 51.7608 74.616 53.1785C69.5854 55.8704 66.3395 61.0576 66.3047 66.7623C66.3047 66.8049 66.3047 66.8475 66.3047 66.8901C66.3047 77.0888 73.6593 85.8037 84.0389 89.2949C88.6677 90.8518 93.7245 90.4821 98.121 88.3556C101.177 86.877 104.959 85.6802 108.112 84.8261C116.015 82.6857 121.73 75.6694 121.96 67.485C121.965 67.2867 121.969 67.0884 121.969 66.8901C121.969 66.8623 121.969 66.8345 121.968 66.8066C121.953 63.031 120.518 59.3755 117.95 56.6071C116.742 55.3042 115.687 53.8891 114.809 52.3844V52.3844Z" fill="#8F4A4B"/>
<path d="M121.961 67.4854C121.966 67.2871 121.969 67.0888 121.969 66.8905V66.807C121.954 63.0314 120.518 59.3758 117.951 56.6074C116.742 55.3045 115.687 53.8894 114.809 52.3848C113.361 49.9007 111.315 47.8038 108.781 46.447C105.584 44.7353 101.957 43.5672 98.0715 43.0923C94.6673 43.6394 91.5544 45.3572 89.1704 47.889C87.2109 49.9695 84.8573 51.7611 82.2072 53.1788C77.1766 55.8707 73.9298 61.0579 73.8959 66.7626C73.8959 66.8052 73.895 66.8478 73.895 66.8905C73.895 77.0892 81.2505 85.8041 91.6301 89.2952C92.3137 89.5257 93.0078 89.7084 93.7071 89.8545C95.223 89.5396 96.706 89.0404 98.121 88.3559C101.177 86.8773 104.96 85.6806 108.112 84.8265C116.015 82.686 121.73 75.6697 121.961 67.4854V67.4854Z" fill="#B7696A"/>
<path d="M115.833 62.9312L114.792 63.7262L116.689 65.6222C117.558 66.492 117.558 67.9018 116.689 68.7716L116.26 69.2004C115.39 70.0701 113.98 70.0701 113.111 69.2004L110.737 66.8259L104.755 71.3991L109.009 75.653C109.878 76.5228 109.878 77.9327 109.009 78.8024L108.58 79.2312C107.71 80.101 106.3 80.101 105.43 79.2312L100.699 74.4998L94.7168 79.072L96.4485 80.8037C97.3174 81.6726 97.3174 83.0825 96.4485 83.9522L96.0189 84.3819C95.1491 85.2516 93.7392 85.2516 92.8695 84.3819L90.6612 82.1727L88.0998 84.1305C87.123 84.8768 85.7254 84.6906 84.9791 83.7139L84.6103 83.2312C83.8632 82.2545 84.0502 80.8568 85.0269 80.1096L87.0509 78.5624L82.3786 73.8909L80.5086 75.3199C79.5319 76.067 78.1342 75.8801 77.3879 74.9033L77.0191 74.4206C76.272 73.4439 76.459 72.0462 77.4358 71.2991L78.7682 70.2806L76.9522 68.4646C76.0824 67.5948 76.0824 66.1849 76.9522 65.3152L77.381 64.8864C78.2507 64.0166 79.6606 64.0166 80.5303 64.8864L82.8239 67.1808L88.806 62.6077L84.5425 58.3433C83.6727 57.4744 83.6727 56.0645 84.5425 55.1948L84.9722 54.766C85.841 53.8962 87.2509 53.8962 88.1207 54.766L92.8625 59.5079L98.8447 54.9347L95.9284 52.0184C95.0587 51.1487 95.0587 49.7388 95.9284 48.8699L96.3581 48.4403C97.2269 47.5705 98.6368 47.5705 99.5066 48.4403L102.9 51.834L105.458 49.8797C106.435 49.1326 107.833 49.3196 108.579 50.2963L108.948 50.779C109.695 51.7558 109.508 53.1535 108.531 53.8997L106.511 55.4444L111.183 60.1167L112.759 58.9112C113.737 58.165 115.133 58.3511 115.88 59.3278L116.249 59.8105C116.996 60.7873 116.809 62.1841 115.833 62.9312V62.9312ZM86.4342 70.7903L91.1065 75.4626L97.0887 70.8894L92.4164 66.218L86.4342 70.7903ZM102.454 58.5442L96.472 63.1173L101.144 67.7888L107.126 63.2165L102.454 58.5442Z" fill="#783D3E"/>
<path d="M79.6641 54.5039C79.6641 44.0512 71.1909 35.5781 60.7383 35.5781C50.2856 35.5781 41.8125 44.0512 41.8125 54.5039C41.8125 64.9566 50.2856 73.4297 60.7383 73.4297C71.1909 73.4297 79.6641 64.9566 79.6641 54.5039Z" fill="#E84444"/>
<path d="M60.7383 73.4297C61.8785 73.4297 62.9935 73.3227 64.0781 73.1296C59.1449 72.2512 54.8744 69.461 52.0564 65.5541C53.5533 65.3427 54.7996 64.2434 55.1684 62.7413L56.0347 59.2075L52.5009 60.0738C51.4093 60.3417 50.5309 61.0749 50.0508 62.029C49.355 60.4252 48.8749 58.7074 48.647 56.9105C49.4376 56.9923 50.256 56.8261 50.9745 56.3904L54.0873 54.5039L50.9745 52.6174C50.256 52.1825 49.4376 52.0155 48.647 52.0982C48.8749 50.3004 49.355 48.5826 50.0508 46.9797C50.5318 47.9338 51.4093 48.6661 52.5009 48.934L56.0347 49.8012L55.1684 46.2665C54.7996 44.7644 53.5533 43.6651 52.0564 43.4537C54.8735 39.5468 59.1449 36.7566 64.0781 35.8782C62.9935 35.6842 61.8785 35.5781 60.7383 35.5781C50.2856 35.5781 41.8125 44.0512 41.8125 54.5039C41.8125 64.9566 50.2856 73.4297 60.7383 73.4297V73.4297ZM60.7383 57.8438C58.8935 57.8438 57.3984 56.3486 57.3984 54.5039C57.3984 52.6592 58.8935 51.1641 60.7383 51.1641C62.583 51.1641 64.0781 52.6592 64.0781 54.5039C64.0781 56.3486 62.583 57.8438 60.7383 57.8438ZM60.7383 61.1549L62.6248 64.2677C63.518 65.742 63.2893 67.6354 62.0699 68.8548C62.0664 68.8591 62.062 68.8626 62.0586 68.867C61.3349 69.5828 60.1408 69.5828 59.418 68.867C59.4136 68.8626 59.4102 68.8591 59.4058 68.8548C58.1873 67.6363 57.9586 65.742 58.8518 64.2677L60.7383 61.1549ZM60.7383 47.8529L58.8518 44.7401C57.9586 43.2659 58.1873 41.3724 59.4067 40.153C59.4102 40.1487 59.4145 40.1452 59.418 40.1408C60.1416 39.425 61.3358 39.425 62.0586 40.1408C62.0629 40.1452 62.0664 40.1487 62.0707 40.153C63.2893 41.3715 63.518 43.2659 62.6248 44.7401L60.7383 47.8529ZM75.1005 55.8242C75.097 55.8277 75.0926 55.832 75.0892 55.8355C73.8698 57.0549 71.9763 57.2836 70.5021 56.3904L67.3893 54.5039L70.5021 52.6174C71.9763 51.7242 73.8698 51.9529 75.0892 53.1723C75.0935 53.1758 75.097 53.1801 75.1013 53.1836C75.8172 53.9064 75.8172 55.1014 75.1005 55.8242V55.8242ZM68.9757 48.934L65.441 49.8012L66.3082 46.2665C66.7187 44.5922 68.2199 43.4146 69.9437 43.4146H69.9611C70.9787 43.4189 71.8233 44.2635 71.8276 45.2811C71.8276 45.2872 71.8276 45.2924 71.8276 45.2976C71.8276 47.0223 70.65 48.5235 68.9757 48.934V48.934ZM71.8276 63.7094C71.8276 63.7154 71.8276 63.7207 71.8276 63.7267C71.8233 64.7444 70.9779 65.5889 69.9602 65.5932C69.955 65.5932 69.9498 65.5932 69.9437 65.5932C68.2199 65.5932 66.7187 64.4156 66.3082 62.7413L65.441 59.2066L68.9757 60.0738C70.65 60.4843 71.8276 61.9855 71.8276 63.7094Z" fill="#C92C2C"/>
<path d="M121.969 125.754C121.969 123.909 120.474 122.414 118.629 122.414H93.0234C91.7936 122.414 90.7969 121.417 90.7969 120.188C90.7969 118.958 91.7936 117.961 93.0234 117.961H105.27C107.114 117.961 108.609 116.466 108.609 114.621C108.609 112.776 107.114 111.281 105.27 111.281H101.93C100.7 111.281 99.7031 110.285 99.7031 109.055C99.7031 107.825 100.7 106.828 101.93 106.828H103.043C104.888 106.828 106.383 105.333 106.383 103.488C106.383 101.644 104.888 100.148 103.043 100.148H94.1367C92.292 100.148 90.7969 101.644 90.7969 103.488C90.7969 105.333 92.292 106.828 94.1367 106.828H95.25C96.4798 106.828 97.4766 107.825 97.4766 109.055C97.4766 110.285 96.4798 111.281 95.25 111.281H78.5508C76.706 111.281 75.2109 112.776 75.2109 114.621C75.2109 116.466 76.706 117.961 78.5508 117.961H86.3438C87.5736 117.961 88.5703 118.958 88.5703 120.188C88.5703 121.417 87.5736 122.414 86.3438 122.414H85.2305C83.3857 122.414 81.8906 123.909 81.8906 125.754C81.8906 127.599 83.3857 129.094 85.2305 129.094H118.629C120.474 129.094 121.969 127.599 121.969 125.754Z" fill="#FFF5F5"/>
</svg>
