<svg width="162" height="162" viewBox="0 0 162 162" fill="none" xmlns="http://www.w3.org/2000/svg">
<circle cx="81" cy="81" r="81" fill="#F16263"/>
<path d="M152 81C152 120.212 120.212 152 81 152C41.7878 152 10 120.212 10 81C10 41.7878 41.7878 10 81 10C120.212 10 152 41.7878 152 81Z" fill="white"/>
<path d="M128 58.1334V112.082C128 114.144 126.328 115.816 124.265 115.816H43.2449C41.1814 115.816 39.5095 114.144 39.5095 112.082V58.1334H128Z" fill="#DDEDE5"/>
<path d="M82.2275 104.462C82.2275 108.542 81.259 112.398 79.538 115.816H43.2449C41.1814 115.816 39.5095 114.144 39.5095 112.082V86.027C44.0507 81.7469 50.1673 79.118 56.8853 79.118C70.8586 79.1177 82.2275 90.4867 82.2275 104.462Z" fill="#AFC3C3"/>
<path d="M128 58.1329H39.5097V62.8351H128V58.1329Z" fill="#AFC3C3"/>
<path d="M128 54.3101V60.5203H39.51V54.3101C39.51 49.9051 43.0798 46.3353 47.4848 46.3353H120.025C124.43 46.3353 128 49.9051 128 54.3101Z" fill="#FF4F19"/>
<path d="M128 58.1329H39.5096V60.5215H128V58.1329Z" fill="#FF9900"/>
<path d="M67.1521 46.3353V50.0957C67.1521 51.2744 66.1959 52.2324 65.0154 52.2324H52.9972C51.8167 52.2324 50.8605 51.2744 50.8605 50.0957V46.3353H67.1521Z" fill="#F40029"/>
<path d="M116.65 46.3353V50.0957C116.65 51.2744 115.693 52.2324 114.513 52.2324H102.495C101.314 52.2324 100.358 51.2744 100.358 50.0957V46.3353H116.65Z" fill="#F40029"/>
<path d="M63.7026 49.9169H54.3101C53.6833 49.9169 53.1753 49.4089 53.1753 48.7821V43.7891C53.1753 43.1623 53.6833 42.6543 54.3101 42.6543H63.7026C64.3293 42.6543 64.8374 43.1623 64.8374 43.7891V48.7821C64.8374 49.4087 64.3293 49.9169 63.7026 49.9169Z" fill="#4E7693"/>
<path d="M64.8374 44.9608H53.1751V43.7891C53.1751 43.1623 53.6831 42.6543 54.3099 42.6543H63.7024C64.3292 42.6543 64.8372 43.1623 64.8372 43.7891V44.9608H64.8374Z" fill="#618BAA"/>
<path d="M113.2 49.9169H103.807C103.181 49.9169 102.673 49.4089 102.673 48.7821V43.7891C102.673 43.1623 103.181 42.6543 103.807 42.6543H113.2C113.827 42.6543 114.335 43.1623 114.335 43.7891V48.7821C114.335 49.4087 113.827 49.9169 113.2 49.9169Z" fill="#4E7693"/>
<path d="M114.335 44.9608H102.672V43.7891C102.672 43.1623 103.18 42.6543 103.807 42.6543H113.2C113.827 42.6543 114.335 43.1623 114.335 43.7891V44.9608H114.335Z" fill="#618BAA"/>
<path d="M73.3689 78.1019H69.6893C68.9059 78.1019 68.2709 77.4669 68.2709 76.6835C68.2709 75.9001 68.9059 75.265 69.6893 75.265H73.3689C74.1523 75.265 74.7873 75.9001 74.7873 76.6835C74.7873 77.4669 74.1523 78.1019 73.3689 78.1019Z" fill="#35696A"/>
<path d="M84.5264 78.1019H80.8469C80.0635 78.1019 79.4284 77.4669 79.4284 76.6835C79.4284 75.9001 80.0635 75.265 80.8469 75.265H84.5264C85.31 75.265 85.9449 75.9001 85.9449 76.6835C85.9449 77.4669 85.31 78.1019 84.5264 78.1019Z" fill="#35696A"/>
<path d="M73.3689 85.7175H69.6893C68.9059 85.7175 68.2709 85.0825 68.2709 84.2991C68.2709 83.5157 68.9059 82.8806 69.6893 82.8806H73.3689C74.1523 82.8806 74.7873 83.5157 74.7873 84.2991C74.7873 85.0825 74.1523 85.7175 73.3689 85.7175Z" fill="#35696A"/>
<path d="M84.5264 85.7175H80.8469C80.0635 85.7175 79.4284 85.0825 79.4284 84.2991C79.4284 83.5157 80.0635 82.8806 80.8469 82.8806H84.5264C85.31 82.8806 85.9449 83.5157 85.9449 84.2991C85.9449 85.0825 85.31 85.7175 84.5264 85.7175Z" fill="#35696A"/>
<path d="M84.5264 93.3332H80.8469C80.0635 93.3332 79.4284 92.6982 79.4284 91.9148C79.4284 91.1314 80.0635 90.4963 80.8469 90.4963H84.5264C85.31 90.4963 85.9449 91.1314 85.9449 91.9148C85.9449 92.6982 85.31 93.3332 84.5264 93.3332Z" fill="#35696A"/>
<path d="M91.5298 107.827C90.7463 107.827 90.1114 107.192 90.1114 106.409V69.3238C90.1114 68.5404 90.7464 67.9054 91.5298 67.9054C92.3132 67.9054 92.9483 68.5404 92.9483 69.3238V106.409C92.9483 107.192 92.3134 107.827 91.5298 107.827Z" fill="#FF4F19"/>
<path d="M121.633 84.9748V78.0624C121.633 77.505 121.307 76.9992 120.799 76.7697C120.291 76.5405 119.696 76.6296 119.277 76.9981L117.819 78.2823C117.231 78.8 117.175 79.6965 117.692 80.2844C117.982 80.613 118.39 80.7759 118.796 80.7647V84.9736H118.757C117.973 84.9736 117.339 85.6086 117.339 86.392C117.339 87.1754 117.974 87.8105 118.757 87.8105H121.606C122.389 87.8105 123.024 87.1754 123.024 86.392C123.024 85.618 122.404 84.9895 121.633 84.9748Z" fill="#35696A"/>
<path d="M115.26 84.9749V78.0624C115.26 77.505 114.933 76.9992 114.425 76.7697C113.918 76.5406 113.322 76.6295 112.904 76.9979L111.446 78.2822C110.858 78.7999 110.801 79.6964 111.319 80.2843C111.608 80.6131 112.016 80.7757 112.423 80.7645V84.9734H112.383C111.6 84.9734 110.965 85.6085 110.965 86.3919C110.965 87.1753 111.6 87.8103 112.383 87.8103H115.232C116.016 87.8103 116.651 87.1753 116.651 86.3919C116.651 85.618 116.03 84.99 115.26 84.9749Z" fill="#35696A"/>
<path d="M113.835 97.7946V90.8821C113.835 90.3247 113.509 89.8189 113.001 89.5894C112.493 89.3601 111.898 89.4491 111.479 89.8176L110.021 91.1018C109.434 91.6197 109.377 92.5161 109.895 93.1039C110.184 93.4327 110.592 93.5961 110.998 93.5842V97.7933H110.959C110.175 97.7933 109.541 98.4283 109.541 99.2117C109.541 99.9951 110.176 100.63 110.959 100.63H113.808C114.591 100.63 115.226 99.9951 115.226 99.2117C115.226 98.4375 114.606 97.8094 113.835 97.7946Z" fill="#35696A"/>
<path d="M107.548 97.7946V90.8821C107.548 90.3247 107.222 89.8189 106.714 89.5894C106.206 89.3601 105.611 89.4491 105.192 89.8176L103.734 91.1018C103.146 91.6196 103.089 92.5161 103.607 93.1037C103.897 93.4326 104.305 93.5961 104.711 93.5842V97.7933H104.672C103.888 97.7933 103.253 98.4283 103.253 99.2117C103.253 99.9951 103.888 100.63 104.672 100.63H107.521C108.304 100.63 108.939 99.9951 108.939 99.2117C108.939 98.4375 108.319 97.8094 107.548 97.7946Z" fill="#35696A"/>
<path d="M56.885 127.346C69.524 127.346 79.7699 117.1 79.7699 104.461C79.7699 91.8219 69.524 81.5759 56.885 81.5759C44.2459 81.5759 34 91.8219 34 104.461C34 117.1 44.2459 127.346 56.885 127.346Z" fill="#FF4F19"/>
<path d="M56.8846 124.912C45.6081 124.912 36.4341 115.738 36.4341 104.461C36.4341 93.1846 45.6081 84.0106 56.8846 84.0106C68.1611 84.0106 77.3351 93.1846 77.3351 104.461C77.3351 115.738 68.1611 124.912 56.8846 124.912Z" fill="#F40029"/>
<path d="M56.885 122.453C66.8218 122.453 74.8771 114.398 74.8771 104.461C74.8771 94.5241 66.8218 86.4688 56.885 86.4688C46.9481 86.4688 38.8928 94.5241 38.8928 104.461C38.8928 114.398 46.9481 122.453 56.885 122.453Z" fill="#DDEDE5"/>
<path d="M56.8846 93.1312C56.1012 93.1312 55.4661 92.4961 55.4661 91.7128V90.177C55.4661 89.3936 56.1012 88.7585 56.8846 88.7585C57.668 88.7585 58.303 89.3936 58.303 90.177V91.7128C58.3032 92.496 57.668 93.1312 56.8846 93.1312Z" fill="#FF4F19"/>
<path d="M56.8846 120.164C56.1012 120.164 55.4661 119.529 55.4661 118.745V117.21C55.4661 116.426 56.1012 115.791 56.8846 115.791C57.668 115.791 58.303 116.426 58.303 117.21V118.745C58.3032 119.528 57.668 120.164 56.8846 120.164Z" fill="#FF4F19"/>
<path d="M71.1687 105.88H69.6332C68.8498 105.88 68.2147 105.245 68.2147 104.461C68.2147 103.678 68.8498 103.043 69.6332 103.043H71.1687C71.9521 103.043 72.5872 103.678 72.5872 104.461C72.5874 105.245 71.9521 105.88 71.1687 105.88Z" fill="#FF4F19"/>
<path d="M44.1362 105.88H42.6006C41.8172 105.88 41.1822 105.245 41.1822 104.461C41.1822 103.678 41.8172 103.043 42.6006 103.043H44.1362C44.9196 103.043 45.5547 103.678 45.5547 104.461C45.5548 105.245 44.9196 105.88 44.1362 105.88Z" fill="#FF4F19"/>
<path d="M65.8992 96.8652C65.5363 96.8652 65.1731 96.7266 64.8963 96.4497C64.3422 95.8958 64.3422 94.9977 64.8963 94.4436L65.982 93.3578C66.5359 92.8039 67.4341 92.8039 67.9882 93.3578C68.5423 93.9117 68.5423 94.8098 67.9882 95.3639L66.9024 96.4497C66.6254 96.7266 66.2622 96.8652 65.8992 96.8652Z" fill="#FF4F19"/>
<path d="M46.7844 115.98C46.4214 115.98 46.0583 115.841 45.7814 115.564C45.2273 115.011 45.2273 114.112 45.7814 113.558L46.8672 112.473C47.4211 111.919 48.3192 111.919 48.8733 112.473C49.4274 113.026 49.4274 113.925 48.8733 114.479L47.7875 115.564C47.5105 115.841 47.1473 115.98 46.7844 115.98Z" fill="#FF4F19"/>
<path d="M66.985 115.98C66.6221 115.98 66.2589 115.841 65.982 115.564L64.8963 114.479C64.3422 113.925 64.3422 113.027 64.8963 112.473C65.4502 111.919 66.3483 111.919 66.9024 112.473L67.9882 113.558C68.5423 114.112 68.5423 115.01 67.9882 115.564C67.7111 115.841 67.3482 115.98 66.985 115.98Z" fill="#FF4F19"/>
<path d="M47.8702 96.8652C47.5072 96.8652 47.144 96.7266 46.8672 96.4497L45.7814 95.3639C45.2273 94.81 45.2273 93.9119 45.7814 93.3578C46.3353 92.8039 47.2335 92.8039 47.7875 93.3578L48.8733 94.4436C49.4274 94.9975 49.4274 95.8956 48.8733 96.4497C48.5963 96.7266 48.2333 96.8652 47.8702 96.8652Z" fill="#FF4F19"/>
<path d="M56.8627 103.378C56.0793 103.378 55.4443 102.743 55.4443 101.959V95.4465C55.4443 94.6631 56.0793 94.0281 56.8627 94.0281C57.6461 94.0281 58.2812 94.6631 58.2812 95.4465V101.959C58.2812 102.743 57.6461 103.378 56.8627 103.378Z" fill="#AFC3C3"/>
<path d="M56.8849 107.354C58.4928 107.354 59.7962 106.05 59.7962 104.443C59.7962 102.835 58.4928 101.531 56.8849 101.531C55.2771 101.531 53.9737 102.835 53.9737 104.443C53.9737 106.05 55.2771 107.354 56.8849 107.354Z" fill="#4E7693"/>
<path d="M100.229 75.8583H97.833C97.2062 75.8583 96.6982 75.3503 96.6982 74.7235V72.3278C96.6982 71.701 97.2062 71.193 97.833 71.193H100.229C100.855 71.193 101.363 71.701 101.363 72.3278V74.7235C101.363 75.3503 100.855 75.8583 100.229 75.8583Z" fill="#FF4F19"/>
</svg>
