<svg width="162" height="162" viewBox="0 0 162 162" fill="none" xmlns="http://www.w3.org/2000/svg">
<circle cx="81" cy="81" r="81" fill="#F16263"/>
<path d="M152 81C152 120.212 120.212 152 81 152C41.7878 152 10 120.212 10 81C10 41.7878 41.7878 10 81 10C120.212 10 152 41.7878 152 81Z" fill="white"/>
<path d="M75.9609 38C71.793 38 68.4023 41.3906 68.4023 45.5586V48.2461L73.4414 50.7656H75.9609H78.4805L83.5195 48.2461V45.5586C83.5195 41.3906 80.1289 38 75.9609 38Z" fill="#FF6A4D"/>
<path d="M83.5195 48.2461V45.5586C83.5195 41.3906 80.1289 38 75.9609 38V50.7656H78.4805L83.5195 48.2461Z" fill="#E64D2E"/>
<path d="M38 113.922C39.1676 119.672 44.5031 124 50.5977 124C56.6922 124 62.1957 119.672 63.3633 113.922L57.8895 111.402H41.4978L38 113.922Z" fill="#474F54"/>
<path d="M50.5977 118.961C46.4297 118.961 43.0391 115.57 43.0391 111.402C43.0391 107.234 46.4297 103.844 50.5977 103.844C54.7656 103.844 58.3242 107.234 58.3242 111.402C58.3242 115.57 54.7656 118.961 50.5977 118.961Z" fill="#F2F9FF"/>
<path d="M63.3633 68.5703H48.0781L43.0391 73.6094V88.7266L48.0781 91.2461H63.3633L70.9219 88.7266V75.1211L68.4023 73.6094L63.3633 68.5703Z" fill="#FF9100"/>
<path d="M43.0391 63.5312V73.6094H68.4023L70.9219 72.3051L68.4023 71.0898V63.5312H43.0391Z" fill="#FABE2C"/>
<path d="M78.4805 113.922H38V111.402C38 101.662 46.0642 93.7656 55.8047 93.7656L60.0039 91.2461H83.5195V109.723L78.4805 113.922Z" fill="#FF6A4D"/>
<path d="M38 88.7266H73.4414V93.7656H38V88.7266Z" fill="#32393F"/>
<path d="M91.0781 101.475V110.949L88.5586 113.922H78.4805V93.7656H73.4414C70.6699 93.7656 68.4023 91.498 68.4023 88.7266V76.1289H83.5195V83.6875C86.291 83.6875 88.5586 85.9551 88.5586 88.7266V98.8047L91.0781 101.475Z" fill="#575F64"/>
<path d="M91.0781 101.475V110.949L88.5586 113.922H78.4805V93.7656H75.9609V76.1289H83.5195V83.6875C86.291 83.6875 88.5586 85.9551 88.5586 88.7266V98.8047L91.0781 101.475Z" fill="#474F54"/>
<path d="M83.5195 73.6094V71.0898C83.5195 66.9219 80.1289 63.5312 75.9609 63.5312C71.793 63.5312 68.4023 66.9219 68.4023 71.0898V76.1289C68.4023 80.3034 71.7864 83.6875 75.9609 83.6875H96.2852C100.46 83.6875 103.844 80.3034 103.844 76.1289V73.6094H83.5195Z" fill="#FF6A4D"/>
<path d="M103.844 76.1289V73.6094H83.5195V71.0898C83.5195 66.9219 80.1289 63.5312 75.9609 63.5312V83.6875H96.2852C100.46 83.6875 103.844 80.3034 103.844 76.1289Z" fill="#E64D2E"/>
<path d="M78.4805 50.7656H75.9609H73.4414L68.4023 53.2852V55.8047C68.4023 59.9727 71.793 63.5312 75.9609 63.5312C80.1289 63.5312 83.5195 59.9727 83.5195 55.8047V53.2852L78.4805 50.7656Z" fill="#FFE1BA"/>
<path d="M83.5195 55.8047V53.2852L78.4805 50.7656H75.9609V63.5312C80.1289 63.5312 83.5195 59.9727 83.5195 55.8047Z" fill="#FFBFAB"/>
<path d="M75.9609 48.2461H68.4023V53.2852H75.9609H88.5586V48.2461H75.9609Z" fill="#474F54"/>
<path d="M75.9609 48.2461H88.5586V53.2852H75.9609V48.2461Z" fill="#32393F"/>
<path d="M110.787 89.2899C110.509 87.3289 109.958 83.4659 108.858 75.772L98.8047 71.0898V91.2461C98.8047 95.2207 95.3806 98.8047 91.0781 98.8047H88.5586V113.922H93.5977H118.961L124 111.402V106.363C124 98.3028 118.439 91.2757 110.787 89.2899V89.2899Z" fill="#E64D2E"/>
<path d="M113.922 78.6484H106.363C102.195 78.6484 98.8047 75.2578 98.8047 71.0898C98.8047 66.9219 102.195 63.5312 106.363 63.5312H113.922V78.6484Z" fill="#FF6A4D"/>
<path d="M112.16 98.8813L111.427 101.681L107.169 99.5893C102.309 101.338 98.8047 105.948 98.8047 111.402C98.8047 118.348 104.456 124 111.402 124C118.348 124 124 118.348 124 111.402C124 104.716 118.747 99.2817 112.16 98.8813V98.8813Z" fill="#32393F"/>
<path d="M111.402 103.844C107.234 103.844 103.844 107.234 103.844 111.402C103.844 115.57 107.234 118.961 111.402 118.961C115.57 118.961 118.961 115.57 118.961 111.402C118.961 107.234 115.57 103.844 111.402 103.844Z" fill="#DFE7F4"/>
<path d="M113.897 111.046L112.16 98.8813C111.904 98.8658 111.662 98.8047 111.402 98.8047C109.91 98.8047 108.498 99.1111 107.169 99.5893L108.908 111.759L113.897 111.046Z" fill="#C7CFE1"/>
</svg>
