<svg width="608" height="454" viewBox="0 0 608 454" fill="none" xmlns="http://www.w3.org/2000/svg">
<path d="M303.678 453.304C433.814 453.304 539.311 447.145 539.311 439.547C539.311 431.949 433.814 425.79 303.678 425.79C173.541 425.79 68.0444 431.949 68.0444 439.547C68.0444 447.145 173.541 453.304 303.678 453.304Z" fill="#F5F5F5"/>
<path d="M607.646 397.887H0V398.191H607.646V397.887Z" fill="#E0E0E0"/>
<path d="M132.978 412.458H62.7701V412.762H132.978V412.458Z" fill="#E0E0E0"/>
<path d="M286.396 405.859H254.409V406.163H286.396V405.859Z" fill="#E0E0E0"/>
<path d="M360.407 405.701H298.087V406.005H360.407V405.701Z" fill="#E0E0E0"/>
<path d="M479.032 409.347H463.853V409.651H479.032V409.347Z" fill="#E0E0E0"/>
<path d="M411.438 409.347H350.892V409.651H411.438V409.347Z" fill="#E0E0E0"/>
<path d="M156.773 412.458H144.742V412.762H156.773V412.458Z" fill="#E0E0E0"/>
<path d="M541.51 409.347H488.949V409.651H541.51V409.347Z" fill="#E0E0E0"/>
<path d="M288.025 0H53.3273C51.85 0.00136196 50.4116 0.473312 49.2206 1.3474C48.0297 2.22149 47.1482 3.45226 46.704 4.86117C46.5038 5.49413 46.4013 6.15393 46.4001 6.81779V336.746C46.4001 338.584 47.1296 340.347 48.4283 341.648C49.7271 342.949 51.489 343.682 53.3273 343.685H288.025C289.865 343.685 291.63 342.954 292.932 341.652C294.233 340.351 294.964 338.586 294.964 336.746V6.93932C294.964 5.0989 294.233 3.33386 292.932 2.03248C291.63 0.731105 289.865 0 288.025 0V0ZM294.66 336.746C294.657 338.504 293.957 340.19 292.713 341.434C291.469 342.678 289.784 343.378 288.025 343.381H53.3273C51.5696 343.378 49.8849 342.677 48.6432 341.433C47.4014 340.189 46.704 338.503 46.704 336.746V6.87856C46.704 5.12082 47.4014 3.43489 48.6432 2.19084C49.8849 0.946792 51.5696 0.246274 53.3273 0.243055H288.025C289.783 0.249459 291.467 0.950611 292.71 2.19362C293.953 3.43663 294.654 5.12069 294.66 6.87856V336.746Z" fill="#E0E0E0"/>
<path d="M550.905 0H316.232C314.403 0.00309692 312.649 0.726877 311.35 2.01446C310.051 3.30204 309.311 5.04968 309.292 6.87856V336.746C309.292 338.586 310.023 340.351 311.325 341.652C312.626 342.954 314.391 343.685 316.232 343.685H550.905C552.741 343.678 554.5 342.944 555.796 341.644C557.092 340.343 557.82 338.582 557.82 336.746V6.87856C557.804 5.05289 557.069 3.30706 555.774 2.01949C554.48 0.731909 552.73 0.00632499 550.905 0V0ZM557.54 336.746C557.537 338.504 556.837 340.19 555.593 341.434C554.349 342.678 552.663 343.378 550.905 343.381H316.232C314.472 343.381 312.784 342.682 311.54 341.438C310.295 340.193 309.596 338.505 309.596 336.746V6.87856C309.599 5.1197 310.299 3.4338 311.543 2.1901C312.787 0.946398 314.473 0.246267 316.232 0.243055H550.905C552.662 0.249459 554.347 0.950611 555.59 2.19362C556.833 3.43663 557.534 5.12069 557.54 6.87856V336.746Z" fill="#E0E0E0"/>
<path d="M450.91 59.7074H579.549C579.549 59.7074 571.783 45.6343 555.766 49.9851C555.766 49.9851 557.71 26.4691 545.083 22.7017C532.456 18.9343 525.639 33.4814 525.639 33.4814C525.639 33.4814 516.901 6.29529 500.397 9.69811C483.893 13.1009 477.1 41.2957 477.1 41.2957C477.1 41.2957 452.855 32.5213 450.91 59.7074Z" fill="#F5F5F5"/>
<path d="M264.922 105.731H393.609C393.609 105.731 385.831 91.6454 369.814 96.0083C369.814 96.0083 371.758 72.4923 359.131 68.7128C346.505 64.9332 339.687 79.5046 339.687 79.5046C339.687 79.5046 330.949 52.3185 314.445 55.7091C297.941 59.0998 291.136 87.3068 291.136 87.3068C291.136 87.3068 266.866 78.5445 264.922 105.731Z" fill="#F5F5F5"/>
<path d="M262.588 19.0073H46.8375V397.887H262.588V19.0073Z" fill="#F5F5F5"/>
<path d="M226.64 140.002H89.871V398.191H226.64V140.002Z" fill="#FAFAFA"/>
<path d="M217.999 148.205H99.7272V398.191H217.999V148.205Z" fill="#E6E6E6"/>
<path d="M270.403 21.7659H46.7888V4.92196C47.3517 3.45666 48.3554 2.20214 49.6614 1.33143C50.9675 0.460734 52.5115 0.0167697 54.0806 0.0607833H262.759L262.856 0.303843L268.337 15.9447L270.403 21.7659Z" fill="#EBEBEB"/>
<path d="M57.6295 31.9379C63.8111 31.9379 68.8223 27.3837 68.8223 21.7659C68.8223 16.148 63.8111 11.5939 57.6295 11.5939C51.4479 11.5939 46.4366 16.148 46.4366 21.7659C46.4366 27.3837 51.4479 31.9379 57.6295 31.9379Z" fill="#EBEBEB"/>
<path d="M80.0272 31.9379C86.2088 31.9379 91.22 27.3837 91.22 21.7659C91.22 16.148 86.2088 11.5939 80.0272 11.5939C73.8456 11.5939 68.8344 16.148 68.8344 21.7659C68.8344 27.3837 73.8456 31.9379 80.0272 31.9379Z" fill="#EBEBEB"/>
<path d="M102.425 31.9379C108.607 31.9379 113.618 27.3837 113.618 21.7659C113.618 16.148 108.607 11.5939 102.425 11.5939C96.2435 11.5939 91.2323 16.148 91.2323 21.7659C91.2323 27.3837 96.2435 31.9379 102.425 31.9379Z" fill="#EBEBEB"/>
<path d="M124.823 31.9379C131.004 31.9379 136.016 27.3837 136.016 21.7659C136.016 16.148 131.004 11.5939 124.823 11.5939C118.641 11.5939 113.63 16.148 113.63 21.7659C113.63 27.3837 118.641 31.9379 124.823 31.9379Z" fill="#EBEBEB"/>
<path d="M147.221 31.9379C153.402 31.9379 158.414 27.3837 158.414 21.7659C158.414 16.148 153.402 11.5939 147.221 11.5939C141.039 11.5939 136.028 16.148 136.028 21.7659C136.028 27.3837 141.039 31.9379 147.221 31.9379Z" fill="#EBEBEB"/>
<path d="M169.619 31.9379C175.8 31.9379 180.811 27.3837 180.811 21.7659C180.811 16.148 175.8 11.5939 169.619 11.5939C163.437 11.5939 158.426 16.148 158.426 21.7659C158.426 27.3837 163.437 31.9379 169.619 31.9379Z" fill="#EBEBEB"/>
<path d="M192.004 31.9379C198.186 31.9379 203.197 27.3837 203.197 21.7659C203.197 16.148 198.186 11.5939 192.004 11.5939C185.822 11.5939 180.811 16.148 180.811 21.7659C180.811 27.3837 185.822 31.9379 192.004 31.9379Z" fill="#EBEBEB"/>
<path d="M214.402 31.9379C220.584 31.9379 225.595 27.3837 225.595 21.7659C225.595 16.148 220.584 11.5939 214.402 11.5939C208.221 11.5939 203.209 16.148 203.209 21.7659C203.209 27.3837 208.221 31.9379 214.402 31.9379Z" fill="#EBEBEB"/>
<path d="M236.8 31.9379C242.982 31.9379 247.993 27.3837 247.993 21.7659C247.993 16.148 242.982 11.5939 236.8 11.5939C230.618 11.5939 225.607 16.148 225.607 21.7659C225.607 27.3837 230.618 31.9379 236.8 31.9379Z" fill="#EBEBEB"/>
<path d="M270.403 21.7659C270.403 27.3806 265.384 31.9379 259.198 31.9379C253.012 31.9379 247.993 27.3806 247.993 21.7659C247.993 16.1513 253.012 11.5939 259.198 11.5939C260.947 11.5692 262.678 11.9426 264.262 12.6858C265.845 13.429 267.238 14.5227 268.337 15.8839L270.403 21.7659Z" fill="#EBEBEB"/>
<path d="M262.588 51.8931H46.8375V55.4417H262.588V51.8931Z" fill="#FAFAFA"/>
<path d="M429.946 317.58H262.601V325.103H429.946V317.58Z" fill="#E0E0E0"/>
<path d="M297.795 397.875H272.53V280.611L285.156 269.819L297.795 280.611V397.875Z" fill="#E6E6E6"/>
<path d="M333.987 397.875H308.721V280.611L321.36 269.819L333.987 280.611V397.875Z" fill="#E6E6E6"/>
<path d="M370.191 397.875H344.925V280.611L357.551 269.819L370.191 280.611V397.875Z" fill="#E6E6E6"/>
<path d="M406.382 397.875H381.116V280.611L393.755 269.819L406.382 280.611V397.875Z" fill="#E6E6E6"/>
<path d="M442.573 397.875H417.32V280.611L429.946 269.819L442.573 280.611V397.875Z" fill="#E6E6E6"/>
<path d="M181.504 42.5596C181.504 42.5596 179.159 36.8234 164.709 38.5248C150.259 40.2262 148.764 59.3549 141.545 72.9541C134.326 86.5532 126.658 93.1523 126.658 93.1523C126.658 93.1523 125.601 101.441 141.327 106.119C157.052 110.798 187.872 102.984 187.872 102.984C187.872 102.984 191.858 66.7804 185.94 55.7334C180.021 44.6864 181.504 42.5596 181.504 42.5596Z" fill="#263238"/>
<path d="M223.748 404.194L204.169 405.41C204.169 405.41 195.869 329.964 186.73 275.033C186.73 274.851 186.73 274.644 186.645 274.438C182.902 252.015 179.025 233.118 175.525 224.258C175.525 224.258 171.028 294.587 169.691 325.808C168.355 357.029 162.12 411.656 162.12 411.656L144.024 414.342C144.024 414.342 141.035 305.598 142.809 285.059C144.584 264.521 136.502 188.443 150.429 169.606H200.803C200.803 169.606 220.308 276.479 221.718 306.108C223.128 335.737 223.748 404.194 223.748 404.194Z" fill="#263238"/>
<path d="M157.867 411.899L157.575 417.733L156.894 431.234L146.759 432.741L146.528 418.17L146.443 412.568L157.867 411.899Z" fill="#FF8B7B"/>
<path d="M219.397 426.689L208.058 429.849C208.058 429.849 207.791 423.031 207.523 416.481C207.353 412.264 207.183 408.156 207.074 406.054C207.074 405.239 207.001 404.741 206.977 404.632L219.202 403.417V407.257L219.287 415.934L219.397 426.689Z" fill="#FF8B7B"/>
<path d="M160.978 428.245C160.978 428.245 162.862 420.698 165.839 421.075C168.817 421.451 160.978 428.245 160.978 428.245Z" stroke="#8F52AC" stroke-miterlimit="10"/>
<path d="M161.828 428.245C161.828 428.245 168.914 423.25 170.226 425.814C171.539 428.379 161.828 428.245 161.828 428.245Z" stroke="#8F52AC" stroke-miterlimit="10"/>
<path d="M223.748 429.011C223.748 429.011 225.328 421.026 227.114 421.026C228.901 421.026 223.748 429.011 223.748 429.011Z" stroke="#8F52AC" stroke-miterlimit="10"/>
<path d="M223.371 431.49C223.371 431.49 227.527 423.311 229.703 425.073C231.878 426.835 223.371 431.49 223.371 431.49Z" stroke="#8F52AC" stroke-miterlimit="10"/>
<path d="M169.825 438.04C169.825 438.04 148.217 438.599 146.65 438.405C145.082 438.211 143.344 438.125 143.223 436.424C143.223 435.598 143.964 430.578 144.085 428.828C144.207 427.078 143.769 426.167 145.969 425.608C148.169 425.049 158.851 423.809 160.139 425.134C161.428 426.459 165.827 431.502 169.084 432.085C172.341 432.669 175.075 432.438 175.306 434.285C175.537 436.132 175.61 437.907 169.825 438.04Z" fill="#263238"/>
<path d="M232.036 438.04C232.036 438.04 210.44 438.599 208.86 438.405C207.28 438.211 205.725 437.737 205.47 436.947C205.214 436.157 206.187 430.578 206.296 428.828C206.405 427.078 205.98 426.167 208.18 425.608C210.379 425.049 221.062 423.809 222.35 425.134C223.638 426.459 228.038 431.502 231.307 432.085C234.576 432.669 237.286 432.438 237.517 434.285C237.748 436.132 237.821 437.907 232.036 438.04Z" fill="#263238"/>
<path opacity="0.3" d="M186.645 274.425C182.902 252.003 179.025 233.106 175.525 224.246L177.846 211.51C177.846 211.51 183.862 256.962 186.645 274.425Z" fill="black"/>
<path opacity="0.2" d="M157.842 411.899L157.551 417.733C154.707 417.842 149.044 418.049 146.504 418.17L146.419 412.568L157.842 411.899Z" fill="black"/>
<path opacity="0.2" d="M219.312 415.922L207.524 416.481C207.354 412.264 207.183 408.156 207.074 406.054L219.227 407.269L219.312 415.922Z" fill="black"/>
<path d="M227.09 403.405L225.279 412.653L203.695 414.33L200.864 403.405H227.09Z" fill="#8F52AC"/>
<path d="M165.025 406.418L163.129 415.557L140.598 416.627L140.61 406.418H165.025Z" fill="#8F52AC"/>
<path d="M231.854 141.375C226.993 143.696 213.624 146.236 213.624 146.236C213.624 146.236 204.874 123.62 202.565 110.762C201.841 106.165 199.645 101.928 196.308 98.6846C192.971 95.4416 188.672 93.3682 184.056 92.7756C178.15 92.01 153.212 92.2652 144.462 94.0638C135.712 95.8625 134.193 108.708 133.415 116.425C132.637 124.142 127.764 152.884 131.872 161.391C135.979 169.898 150.38 166.52 150.38 166.52V169.606H200.767L199.551 146.03C199.551 146.03 204.315 158.547 211.704 159.058C219.093 159.568 235.864 147.245 235.864 147.245L231.854 141.375ZM143.137 154.561C143.137 154.561 143.696 139.88 144.693 135.651L146.212 143.49L148.351 154.561H143.137Z" fill="#FFC600"/>
<path d="M175.185 151.231L183.108 141.643L194.228 139.941L195.93 149.821L187.423 152.933C187.423 152.933 183.327 157.867 175.148 157.016L175.185 151.231Z" fill="#FF8B7B"/>
<path d="M231.854 141.375L235.973 133.816L246.024 129.587L249.828 139.88L241.503 143.125C241.503 143.125 239.328 147.913 235.973 147.294L231.854 141.375Z" fill="#FF8B7B"/>
<path d="M175.355 83.5636C175.3 84.4378 175.3 85.3145 175.355 86.1887C175.476 87.8536 175.16 90.904 178.429 92.5082C176.74 96.1541 172.669 105.293 170.202 108.392C166.447 105.317 157.624 92.9092 157.624 92.9092C157.624 92.9092 163.822 86.1887 159.374 73.5253C159.374 73.5253 153.127 68.9558 154.379 66.4402C155.813 63.5113 159.884 65.0912 160.747 66.3308C159.835 64.994 155.594 50.3254 160.747 44.9295C163.955 41.5631 167.164 41.5267 173.143 41.2836H173.641C177.469 41.1499 180.313 41.2836 180.313 41.2836C181.613 42.6837 182.758 44.2198 183.728 45.8653C186.44 50.292 188.102 55.2804 188.589 60.4488C189.719 72.4923 187.35 82.2511 175.355 83.5636Z" fill="#FF8B7B"/>
<path d="M178.66 68.5913C178.66 68.5913 173.216 70.4386 171.235 66.3066" stroke="#263238" stroke-width="0.5" stroke-linecap="round" stroke-linejoin="round"/>
<path d="M172.086 51.2124C171.175 51.1856 170.275 51.4152 169.489 51.875C168.702 52.3349 168.061 53.0064 167.638 53.8132" stroke="#263238" stroke-linecap="round" stroke-linejoin="round"/>
<path d="M185.94 49.9607C185.499 49.4778 184.964 49.0891 184.369 48.8176C183.774 48.5461 183.13 48.3976 182.476 48.3808" stroke="#263238" stroke-linecap="round" stroke-linejoin="round"/>
<path d="M180.933 66.355L179.863 57.2524L185.223 64.131C185.223 64.131 184.7 66.5008 180.933 66.355Z" fill="#FF5652"/>
<path d="M172.134 57.3254C172.195 58.249 172.742 58.966 173.349 58.9296C173.957 58.8931 174.382 58.1032 174.31 57.1674C174.237 56.2316 173.714 55.5268 173.094 55.5754C172.474 55.624 172.061 56.4382 172.134 57.3254Z" fill="#263238"/>
<path d="M182.732 55.8063C182.805 56.7421 183.339 57.4591 183.947 57.4105C184.555 57.3619 184.98 56.5841 184.907 55.6484C184.834 54.7126 184.299 54.0077 183.692 54.0563C183.084 54.1049 182.671 54.8827 182.732 55.8063Z" fill="#263238"/>
<path d="M157.052 59.5981C157.052 59.5981 150.842 51.2733 155.971 45.8774C159.179 42.511 167.808 40.3114 173.775 40.0562C173.641 41.4659 173.775 53.8133 157.052 59.5981Z" fill="#263238"/>
<path d="M183.825 45.9016C180.01 45.5162 176.429 43.8796 173.641 41.247L173.167 40.7487C175.561 40.6498 177.958 40.8211 180.313 41.2592V41.2592C181.613 42.6592 182.758 44.1953 183.728 45.8408L183.825 45.9016Z" fill="#263238"/>
<path opacity="0.2" d="M175.391 86.1887C172.75 85.3856 170.407 83.8164 168.659 81.6799C170.752 82.7246 173.024 83.3637 175.355 83.5636C175.313 84.4386 175.325 85.3153 175.391 86.1887V86.1887Z" fill="black"/>
<path opacity="0.2" d="M146.224 143.49L144.705 135.651V124.397C144.705 124.397 146.455 136.271 146.224 143.49Z" fill="black"/>
<path d="M369.569 107.082L280.983 112.097L284.842 180.275L373.429 175.26L369.569 107.082Z" fill="#FD9C14"/>
<path opacity="0.3" d="M369.569 107.082L280.983 112.097L284.842 180.275L373.429 175.26L369.569 107.082Z" fill="black"/>
<path d="M337.373 108.91L248.786 113.925L252.645 182.103L341.232 177.089L337.373 108.91Z" fill="#FD9C14"/>
<path opacity="0.3" d="M337.373 108.91L248.786 113.925L252.645 182.103L341.232 177.089L337.373 108.91Z" fill="white"/>
<path opacity="0.3" d="M348.332 114.802L329.422 115.937L329.804 122.317L348.714 121.183L348.332 114.802Z" fill="black"/>
<path opacity="0.5" d="M273.197 121.075L254.317 122.144L254.901 132.458L273.781 131.389L273.197 121.075Z" fill="white"/>
<path opacity="0.3" d="M279.791 147.97L250.816 149.61L251.271 157.655L280.246 156.015L279.791 147.97Z" fill="black"/>
<path d="M395.165 50.8843L390.304 57.0823C391.651 58.0225 393.199 58.6343 394.825 58.8688L395.165 50.8843Z" fill="#A02724"/>
<path d="M479.069 431.004L464.947 430.202L462.079 418.158L460.511 411.559L459.928 409.128L470.793 408.387L471.57 408.326L473.879 415.314L479.069 431.004Z" fill="#EBB7B2"/>
<path d="M397.863 432.985C398.13 433.945 384.75 432.231 384.75 432.231L384.276 420.99L383.911 412.313V411.839H384.021L397.608 413.188C397.608 413.188 397.608 416.833 397.608 420.978C397.632 426.301 397.705 432.462 397.863 432.985Z" fill="#EBB7B2"/>
<path d="M426.204 83.4786C426.204 83.4786 407.124 88.6435 408.533 84.9004C409.244 82.6349 409.528 80.2574 409.372 77.8882C409.372 76.3326 409.177 75.2267 409.177 75.2267C402.275 75.6278 397.632 70.6329 395.566 64.4835C392.905 56.5963 393.877 47.7854 397.11 40.2992C397.365 39.6915 398.094 37.1151 398.738 36.7991L406.224 33.3477C406.224 33.3477 413.516 38.1238 417.308 41.0891C421.099 44.0545 424.15 57.8359 424.15 68.5548C424.15 79.2736 426.204 83.4786 426.204 83.4786Z" fill="#EBB7B2"/>
<path d="M394.594 48.6116C394.257 48.7038 393.957 48.9005 393.739 49.1734C393.521 49.4464 393.394 49.7816 393.378 50.1307C393.329 50.4551 393.379 50.787 393.522 51.0822C393.665 51.3774 393.895 51.622 394.181 51.7835L394.594 48.6116Z" fill="#263238"/>
<path d="M394.594 42.438C395.388 42.4202 396.169 42.6357 396.842 43.0578" stroke="#263238" stroke-linecap="round" stroke-linejoin="round"/>
<path d="M401.229 62.1623C401.229 62.1623 406.771 70.8152 415.594 72.7961C424.417 74.777 427.2 71.7145 428.379 66.7196C429.4 62.0101 431.662 57.6591 434.929 54.117C437.98 50.9694 436.145 42.4259 432.268 35.4015C432.268 35.4015 436.424 31.9136 429.728 28.5594C423.032 25.2052 420.565 30.7834 414.756 27.5264C408.946 24.2694 416.7 23.1878 411.219 33.3477C405.738 43.5075 402.712 36.1185 401.898 40.6394C401.084 45.1603 396.842 53.0111 401.229 62.1623Z" fill="#263238"/>
<path d="M401.897 42.7418C401.351 42.5595 383.777 36.2035 383.607 33.3233C383.437 30.443 397.231 35.681 397.753 35.8876L401.314 41.5144L401.897 42.7418Z" fill="#FC4F4F"/>
<path d="M437.36 49.7055C437.19 50.2281 436.145 53.6917 435.695 53.6917L434.225 53.6066C432.855 53.4932 431.494 53.3352 430.141 53.1326C428.646 52.9017 427.176 52.6101 425.73 52.2698H425.669C424.198 51.9173 422.752 51.5285 421.342 51.0545C417.882 50.0097 414.486 48.7639 411.17 47.3235V47.3235C409.299 46.5093 407.646 45.7194 406.309 45.0388C403.575 43.6777 401.946 42.7176 401.946 42.7176L401.703 42.3165L400.707 40.7488L398.58 37.3824L397.851 36.2522V36.1671C397.817 36.0646 397.817 35.9537 397.851 35.8512C397.924 34.563 400.561 30.99 401.035 30.3824C402.987 27.7735 405.473 25.6108 408.327 24.0385C412.24 21.8753 416.651 22.8232 420.808 23.5524C422.183 23.8379 423.523 24.2698 424.806 24.8406V24.8406L425.62 25.1931L425.778 25.266C425.924 25.351 426.082 25.4118 426.228 25.4847L426.495 25.6184C429.584 27.0647 432.393 29.0435 434.796 31.464C440.265 37.6012 438.041 47.7246 437.36 49.7055Z" fill="#FD9C14"/>
<path d="M431.417 90.0045C431.417 90.0045 430.542 83.9281 428.634 82.7128C426.726 81.4975 407.768 81.6798 404.814 83.7579C401.861 85.8361 402.384 92.6296 402.384 92.6296L431.417 90.0045Z" fill="#FC4F4F"/>
<path d="M397.766 52.5615C397.766 52.5615 400.998 48.3809 404.462 50.9694C407.925 53.558 405.179 59.6952 401.108 61.421C401.108 61.421 395.845 63.1345 395.165 57.7751C394.484 52.4156 397.766 52.5615 397.766 52.5615Z" fill="#EBB7B2"/>
<path d="M384.799 198.056C384.799 198.056 377.568 267.243 375.55 299.059C373.533 330.876 380.946 412.24 380.946 412.24H398.531C398.531 412.24 400.549 331.41 403.587 307.165C406.625 282.92 416.712 250.047 416.712 250.047C416.712 250.047 422.789 302.073 428.865 323.292C434.942 344.511 454.678 409.335 454.678 409.335L474.925 405.446C474.925 405.446 450.619 322.284 450.619 296.519C450.619 270.755 450.85 218.741 444.798 198.081L384.799 198.056Z" fill="#FC4F4F"/>
<path opacity="0.3" d="M419.848 274.109C417.915 260.607 416.7 250.083 416.7 250.083L417.915 231.197L419.848 274.109Z" fill="black"/>
<path d="M379.038 408.861H400.111L399.078 417.538H379.864L379.038 408.861Z" fill="#263238"/>
<path d="M452.114 407.597L474.9 399.127L477.781 411.45L455.541 417.538L452.114 407.597Z" fill="#263238"/>
<path opacity="0.2" d="M470.793 408.387L460.511 411.559L462.079 418.158L473.879 415.314L470.793 408.387Z" fill="black"/>
<path opacity="0.2" d="M397.608 421.026H384.239L383.875 412.349L383.96 411.887L397.547 413.236C397.547 413.236 397.583 416.833 397.608 421.026Z" fill="black"/>
<path d="M377.81 437.299C377.896 437.53 369.401 432.584 371.734 430.275C374.067 427.965 377.81 437.299 377.81 437.299Z" stroke="#FC4F4F" stroke-miterlimit="10"/>
<path d="M379.026 436.946C378.965 437.189 374.286 428.549 377.47 427.783C380.654 427.017 379.026 436.946 379.026 436.946Z" stroke="#FC4F4F" stroke-miterlimit="10"/>
<path d="M462.99 432.049C462.99 432.049 460.207 423.092 457.509 424.563C454.811 426.033 462.99 432.049 462.99 432.049Z" stroke="#FC4F4F" stroke-miterlimit="10"/>
<path d="M462.237 432.827C462.237 432.827 455.954 425.887 454.119 428.318C452.284 430.748 462.237 432.827 462.237 432.827Z" stroke="#FC4F4F" stroke-miterlimit="10"/>
<path d="M479.591 430.177H464.497C464.497 430.177 455.771 435.427 451.943 435.913C448.115 436.4 445.867 436.63 445.976 439.377C446.086 442.124 448.407 442.367 456.245 442.245C464.084 442.124 479.64 443.084 481.329 441.528C483.018 439.973 481.949 437.044 479.591 430.177Z" fill="#263238"/>
<path d="M397.863 432.049L383.279 432.158C383.279 432.158 374.554 437.408 370.738 437.894C366.922 438.381 364.661 438.611 364.758 441.358C364.856 444.105 367.189 444.348 375.04 444.226C382.891 444.105 396.733 445.235 398.422 443.679C400.111 442.124 399.175 439.571 397.863 432.049Z" fill="#263238"/>
<path opacity="0.3" d="M397.753 35.8875C398.13 37.8199 398.519 39.3025 401.715 42.6689C397.656 41.1619 383.753 35.7903 383.607 33.3233C383.462 30.8562 394.253 34.5629 397.753 35.8875Z" fill="black"/>
<path opacity="0.3" d="M397.753 36.1919C397.719 36.0892 397.719 35.9781 397.753 35.8754V35.8754C397.753 35.8754 397.753 36.0093 397.753 36.265V36.1919Z" fill="black"/>
<path opacity="0.3" d="M401.898 42.7424L401.521 42.5963C401.54 42.5453 401.565 42.4963 401.594 42.4502L401.898 42.7424Z" fill="black"/>
<path d="M437.36 49.7055C437.19 50.2281 436.145 53.6917 435.695 53.6917L434.225 53.6066C432.855 53.4932 431.494 53.3352 430.141 53.1326C428.646 52.9017 427.176 52.6101 425.73 52.2698H425.669C424.198 51.9173 422.752 51.5285 421.342 51.0545C417.882 50.0097 414.486 48.7639 411.17 47.3235V47.3235C409.299 46.5093 407.646 45.7194 406.309 45.0388C403.575 43.6777 401.946 42.7176 401.946 42.7176L401.703 42.3165L400.707 40.7488L398.58 37.3824L397.851 36.2522V36.1671C397.817 36.0646 397.817 35.9537 397.851 35.8512C397.924 34.563 400.561 30.99 401.035 30.3824C402.987 27.7735 405.473 25.6108 408.327 24.0385C412.24 21.8753 416.651 22.8232 420.808 23.5524C422.183 23.8379 423.523 24.2698 424.806 24.8406V24.8406L425.62 25.1931L425.778 25.266C425.924 25.351 426.082 25.4118 426.228 25.4847L426.495 25.6184C429.584 27.0647 432.393 29.0435 434.796 31.464C440.265 37.6012 438.041 47.7246 437.36 49.7055Z" fill="#FC4F4F"/>
<path opacity="0.2" d="M413.455 74.06C412.161 75.4061 410.799 76.6839 409.372 77.8882C409.372 76.3326 409.177 75.2267 409.177 75.2267C410.643 75.0034 412.079 74.612 413.455 74.06V74.06Z" fill="black"/>
<path d="M384.799 198.737V136.49L373.436 131.859C373.436 131.859 375.611 98.6454 391.786 93.4075C407.962 88.1696 436.752 85.9699 444.676 93.4075C449.683 98.135 450.351 105.718 450.534 112.22C450.923 125.467 447.459 138.422 446.693 151.596C446.086 162.315 445.721 173.033 445.478 183.765C445.478 184.591 445.162 198.737 445.138 198.737H384.799Z" fill="#263238"/>
<path d="M391.021 138.616C391.021 138.616 382.611 166.398 374.298 168.136C365.986 169.874 337.596 154.379 337.596 154.379H324.921L323.122 143.235C323.122 143.235 334.923 138.859 342.786 144.097C342.786 144.097 361.149 152.106 367.262 154.44L376.121 133.002L391.021 138.616Z" fill="#EBB7B2"/>
</svg>
