<svg width="90" height="72" viewBox="0 0 90 72" fill="none" xmlns="http://www.w3.org/2000/svg">
<path d="M35.5129 39.4813C36.2346 39.4988 36.8312 39.7345 36.9753 40.1493C37.8964 42.8762 37.8062 47.4455 37.4802 49.685C37.4628 49.8654 37.4075 50.0284 37.3725 50.2088C37.4628 50.4984 37.5894 50.8229 37.7523 51.1299C38.2034 51.9783 38.9267 52.7015 39.7212 52.7015C40.8053 52.7015 41.69 53.5863 41.69 54.6703C41.69 55.7544 40.8053 56.6217 39.7212 56.6217C38.0958 56.6217 36.578 55.574 35.4765 54.1654C35.3499 54.3095 35.2597 54.4186 35.1331 54.5452C29.6966 59.9642 21.0995 53.1366 25.0371 46.5258C26.5549 43.9967 29.3721 42.4979 32.0452 42.137C31.9375 41.7936 31.8284 41.5768 31.8284 41.5768C32.2082 40.2046 34.0315 39.5003 35.4052 39.4813H35.5129ZM28.6256 37.7584C28.8904 38.9022 28.1745 40.0503 27.0482 40.3122C25.8869 40.5814 24.7912 39.8524 24.5264 38.7101C24.2615 37.5664 24.9251 36.4299 26.0863 36.1607C27.2111 35.8973 28.3607 36.6147 28.6256 37.7584ZM28.4873 51.2391C29.2105 52.3042 30.9262 53.0449 32.3522 52.2329C33.8511 51.3482 33.9049 48.0246 33.4902 45.9117C30.4562 46.1096 26.9347 48.8555 28.4873 51.2391ZM33.675 36.587C33.9398 37.7308 33.2239 38.8789 32.0801 39.1438C30.9364 39.4086 29.7882 38.6926 29.5219 37.5489C29.2571 36.4051 29.973 35.257 31.1168 34.9907C32.2606 34.7273 33.4101 35.4433 33.675 36.587Z" fill="#F05152"/>
<path d="M40.7515 52.7015C41.8356 52.7015 42.7203 53.5863 42.7203 54.6704C42.7203 55.7545 41.8356 56.6217 40.7515 56.6217L40.5885 56.6392H40.3891L40.1723 56.6217H40.0093C38.9252 56.6217 38.0405 55.7545 38.0405 54.6704C38.0405 53.5863 38.9252 52.7015 40.0093 52.7015H40.7515Z" fill="#F05152"/>
<path d="M41.7817 52.7015C42.8658 52.7015 43.7505 53.5863 43.7505 54.6704C43.7505 55.7545 42.8658 56.6217 41.7817 56.6217L41.6187 56.6392H41.4194L41.2026 56.6217H41.0396C39.9555 56.6217 39.0707 55.7545 39.0707 54.6704C39.0707 53.5863 39.9555 52.7015 41.0396 52.7015H41.7817Z" fill="#F05152"/>
<path d="M42.8105 52.7015C43.8946 52.7015 44.7793 53.5863 44.7793 54.6704C44.7793 55.7545 43.8946 56.6217 42.8105 56.6217L42.6475 56.6392H42.4482L42.2313 56.6217H42.0684C40.9843 56.6217 40.0995 55.7545 40.0995 54.6704C40.0995 53.5863 40.9843 52.7015 42.0684 52.7015H42.8105Z" fill="#F05152"/>
<path d="M50.3061 31.8053C51.1006 34.1889 51.137 44.1043 50.9202 48.1861V48.2588C50.9202 48.2763 50.9202 48.3127 50.9202 48.3316C50.9027 48.6197 50.9202 48.9093 50.9566 49.2163C51.1559 51.0949 51.914 52.1063 53.8276 52.5574C54.171 52.6476 54.5857 52.7014 54.9291 52.7014C56.0132 52.7014 56.8791 53.5862 56.8791 54.6703C56.8791 55.7544 56.0118 56.6391 54.9291 56.6391C52.6722 56.6391 50.3236 55.8621 48.7156 54.0926C47.1266 55.7908 44.9045 56.6391 42.7742 56.6391C41.6901 56.6391 40.8053 55.7544 40.8053 54.6703C40.8053 53.5862 41.6901 52.7014 42.7742 52.7014C43.1176 52.7014 43.5148 52.6476 43.8757 52.5574C45.7907 52.0874 46.5299 50.7326 46.7293 48.8554C47.0363 46.0557 45.1941 33.2867 45.1941 33.2867C45.555 31.9319 47.2895 31.2276 48.6443 31.1912C49.4577 31.1548 50.1431 31.3542 50.3061 31.8053Z" fill="#F05152"/>
<path d="M55.9419 52.7015C57.026 52.7015 57.9108 53.5863 57.9108 54.6704C57.9108 55.7545 57.026 56.6217 55.9419 56.6217L55.7789 56.6392H55.5796L55.3628 56.6217H55.1998C54.1157 56.6217 53.231 55.7545 53.231 54.6704C53.231 53.5863 54.1157 52.7015 55.1998 52.7015H55.9419Z" fill="#F05152"/>
<path d="M56.9707 52.7015C58.0548 52.7015 58.9396 53.5863 58.9396 54.6704C58.9396 55.7545 58.0548 56.6217 56.9707 56.6217L56.8077 56.6392H56.6084L56.3916 56.6217H56.2286C55.1445 56.6217 54.2598 55.7545 54.2598 54.6704C54.2598 53.5863 55.1445 52.7015 56.2286 52.7015H56.9707Z" fill="#F05152"/>
<path d="M73.2976 34.8946C72.3939 35.9424 70.1545 37.9112 67.8611 39.7898C71.9254 40.7473 75.428 43.9618 75.428 49.5787C75.428 50.6264 75.265 51.5475 75.1035 52.3057C75.5182 52.4323 75.9344 52.54 76.3491 52.7029C77.5598 53.1904 77.0534 56.7119 74.8866 57.2911C67.7171 54.0941 64.2305 56.6406 56.9343 56.6406C55.8502 56.6406 54.9655 55.7559 54.9655 54.6718C54.9655 53.5877 55.8502 52.7029 56.9343 52.7029C61.9008 52.6302 66.3987 51.3846 70.914 51.6014C71.7813 45.9655 68.3311 43.2036 65.2244 43.2036C63.8885 43.2036 62.8044 43.6911 61.7029 44.1975C59.3557 42.8253 59.427 40.9641 60.3481 40.5494C60.3656 40.5494 60.4019 40.5319 60.4209 40.513C63.0402 39.2674 69.488 31.1942 69.488 31.1942C69.6146 31.1578 69.7587 31.1214 69.8852 31.1214C71.9443 31.0108 74.111 33.991 73.2976 34.8946Z" fill="#F05152"/>
<path fill-rule="evenodd" clip-rule="evenodd" d="M10.2133 40.6658C12.0847 39.6778 15.1464 40.4635 15.6105 40.7924C17.8253 37.7206 26.2915 27.0149 38.4974 25.8944L39.3734 18.6084L42.0058 17.6611L41.8573 18.9024L40.8664 27.1488L40.75 28.1223C30.2015 29.3999 23.7798 34.007 15.7968 43.8948C13.7247 42.2694 12.741 41.6611 10.2133 40.6658Z" fill="#1A204C"/>
<path fill-rule="evenodd" clip-rule="evenodd" d="M24.9469 15.7707L24.5598 14.5833C26.4661 14.6662 28.2327 17.7308 27.54 20.4388C27.1064 22.1297 26.2173 23.6693 25.0095 24.9746C23.515 26.5898 21.5258 27.8442 19.3169 28.5732C15.2555 29.9134 13.0582 27.6855 12.5868 26.6058L13.8324 26.728C15.4418 26.8896 17.0541 26.6888 18.5413 26.1969C20.3472 25.6018 21.9667 24.5831 23.176 23.2749C24.3489 22.0075 25.1274 20.4708 25.2962 18.7959C25.3937 17.8297 25.2903 16.814 24.9469 15.7707Z" fill="#1A204C"/>
<path fill-rule="evenodd" clip-rule="evenodd" d="M35.0399 12.8489L35.1185 11.6018C36.4762 12.6903 37.1252 15.8727 35.9363 17.7615C34.4462 20.1305 31.5737 22.4108 26.0528 21.98L24.8058 21.8869L26.2405 19.4844C34.6456 20.1407 35.0385 12.8707 35.0399 12.8489Z" fill="#1A204C"/>
<path fill-rule="evenodd" clip-rule="evenodd" d="M31.8691 5.25434L30.9509 6.1027L29.2542 4.26628L30.1724 3.41793C31.0179 2.63796 34.1858 1.21335 37.6898 1.14787C39.9293 1.10712 42.3551 1.58733 44.5014 3.07596C45.2974 3.62747 45.974 4.26192 46.5386 4.95312C47.9662 6.70223 48.6486 8.79185 48.7025 10.832C48.7563 12.8779 48.1757 14.8861 47.0829 16.462C46.6696 17.0586 46.1792 17.5956 45.6161 18.0554C43.9033 19.4538 42.0291 19.9879 40.232 20.0199C37.8411 20.0635 35.6089 19.2094 34.1174 18.3581L33.0304 17.7367L34.2716 15.5642L35.3572 16.1841C36.5548 16.868 38.3272 17.5534 40.1825 17.5199C41.4761 17.4966 42.8192 17.1168 44.0387 16.12C44.4126 15.8145 44.7444 15.4478 45.0325 15.033C45.8242 13.8907 46.2432 12.4152 46.204 10.8975C46.1632 9.37391 45.6597 7.81979 44.6033 6.52615C44.1856 6.01539 43.6778 5.54101 43.071 5.12192C41.4223 3.97816 39.5146 3.61001 37.7349 3.64347C34.8784 3.69877 32.4628 4.70574 31.8691 5.25434Z" fill="#1A204C"/>
<path fill-rule="evenodd" clip-rule="evenodd" d="M31.9724 8.29564L31.498 7.13879C31.4951 7.13297 30.6293 4.98078 27.9489 3.60856C25.5741 2.39205 22.5721 2.21306 19.7476 2.88098C16.9231 3.5489 14.3096 5.0579 12.7133 7.21882C11.6409 8.66962 10.9904 10.3271 10.7067 11.9714C10.3967 13.7671 10.5219 15.5278 11.0108 16.9728L11.4081 18.1544C9.75789 18.022 7.50676 15.8116 8.24307 11.545C8.5894 9.54272 9.38828 7.51713 10.7096 5.72728C12.6653 3.08034 15.8085 1.24538 19.1757 0.449403C22.5444 -0.348026 26.1707 -0.112289 29.0897 1.38216C33.5105 3.65076 33.0522 6.78227 31.9724 8.29564Z" fill="#1A204C"/>
<path fill-rule="evenodd" clip-rule="evenodd" d="M6.39505 32.4949L7.24777 33.4073C1.72252 33.8555 -0.0105837 25.6484 0.837777 21.8184C2.3948 14.7914 9.03617 13.4599 9.05654 13.457L10.2774 13.1995L9.57167 15.9002C9.55711 15.9032 4.48587 16.9189 3.281 22.3539C2.04265 27.9359 6.38195 32.4818 6.39505 32.4949Z" fill="#1A204C"/>
<path fill-rule="evenodd" clip-rule="evenodd" d="M18.6999 26.2871L21.3818 27.0685L20.5334 27.9853C20.5174 28.0027 14.7913 34.1901 12.7104 37.1484C11.4648 38.9194 9.78556 40.1199 8.02918 40.6132C6.21314 41.1225 4.32579 40.8868 2.72802 39.7663C2.29438 39.4622 1.90294 39.094 1.55952 38.6778C0.65441 37.5806 0.107267 36.1458 0.0141364 34.663C-0.078994 33.17 0.284797 31.6232 1.20155 30.315C1.53042 29.845 1.93495 29.4041 2.41661 29.0054L3.38284 28.2123L4.00274 30.9378C3.7088 31.1808 3.45851 31.4559 3.25042 31.7513C2.67272 32.5749 2.44426 33.5571 2.50392 34.5073C2.56358 35.4677 2.91428 36.3932 3.49052 37.0932C3.68552 37.3303 3.91106 37.5413 4.16426 37.7189C5.11594 38.3853 6.25388 38.5221 7.3598 38.2122C8.57486 37.8717 9.76228 37.0058 10.6703 35.7137C12.8647 32.5909 18.6839 26.3046 18.6999 26.2871Z" fill="#1A204C"/>
<path fill-rule="evenodd" clip-rule="evenodd" d="M25.0822 67.3652C36.207 62.8484 51.7336 58.3286 70.8297 59.4229C83.6875 60.1607 80.3217 67.7494 71.5325 68.1335C69.5302 68.2223 67.9252 67.8207 64.3367 67.2502C55.5665 65.8562 41.9971 65.3847 26.194 70.6568C22.3276 71.9475 21.0063 71.4862 20.8041 70.4269C20.6542 69.6425 21.9056 68.6545 25.0822 67.3652Z" fill="#1A204C"/>
<path d="M89.6421 26.0704C88.9683 23.0218 87.5699 22.3161 87.0402 22.1545V22.1516C87.0402 22.1516 87.0009 22.1385 86.9267 22.1254C86.8656 22.1123 86.8307 22.1094 86.8307 22.1094V22.1123C86.2908 22.0512 84.7644 22.1531 82.8828 24.6662C80.5662 27.7627 79.2304 31.7935 82.9585 35.1972C82.9585 35.1972 82.5598 40.5362 80.6055 47.7974C78.8608 54.2845 76.5238 57.5325 79.4152 58.1728C79.4152 58.1742 79.4152 58.1742 79.4152 58.1742C79.4225 58.1757 79.4297 58.1771 79.437 58.1786C79.4443 58.18 79.4516 58.1829 79.4588 58.1844V58.1829C82.3662 58.749 81.5193 54.8375 82.5045 48.1932C83.609 40.7544 85.3726 35.6992 85.3726 35.6992C90.1499 34.0621 90.4773 29.8465 89.6421 26.0704Z" fill="#F05152"/>
<path d="M88.3572 27.7249C88.3572 27.7249 87.4229 28.6562 86.6997 28.4801C85.7015 27.0977 83.7399 27.2476 84.2347 28.9196C84.4704 29.7243 85.1281 29.8451 86.0827 30.0386C86.6022 30.1652 87.145 30.3558 87.6645 30.7196C88.0632 30.935 87.5117 32.3916 86.7434 32.4003C86.7434 32.4003 85.9998 31.8256 85.0263 31.7062C84.063 31.6291 83.2743 32.0453 83.2743 32.0453C82.5147 31.8605 82.3386 30.3238 82.7635 30.1929C83.0225 30.0983 83.2393 30.0139 83.4838 29.9761C82.6718 28.7959 82.8072 27.3553 83.8665 26.4749C84.5344 25.9103 85.3901 25.7852 86.1919 25.9613C87.2221 26.1723 88.1112 26.8795 88.3572 27.7249Z" fill="white"/>
</svg>
