<svg width="108" height="60" viewBox="0 0 108 60" fill="none" xmlns="http://www.w3.org/2000/svg">
<g clip-path="url(#clip0_199_14153)">
<path d="M29.4186 54.6162C29.4186 55.5344 29.1752 56.1327 28.6883 56.4112L22.3618 60.0027C22.3709 59.5573 22.505 59.1235 22.7488 58.7506C22.9925 58.3777 23.3361 58.0808 23.7404 57.8938L29.4186 54.6162Z" fill="#FFAD33"/>
<path d="M90.6311 43.9859H89.2326C87.8283 43.9862 86.4659 43.5071 85.3708 42.6279C85.0088 42.3356 84.0138 41.3475 82.3858 39.6635C81.6925 40.4644 80.9537 41.2249 80.1731 41.9411C77.1938 44.5717 71.4454 46.4715 62.928 47.6407C56.4202 48.4754 49.8638 48.873 43.3028 48.8307C39.1881 48.8999 35.0732 48.6978 30.985 48.2258C25.2912 47.4191 21.8951 45.7838 20.7967 43.3197C20.2089 41.8612 19.9246 40.2982 19.9611 38.7261C23.385 40.9539 28.5569 42.4362 35.4767 43.1731C39.3732 43.5906 44.9958 43.7994 52.3446 43.7994C68.3783 43.7994 78.6222 41.3498 83.0762 36.4507C85.1217 38.4269 87.1399 39.4151 89.1308 39.4151H90.6311V43.9859ZM57.6071 31.5425C57.6071 32.0715 57.1476 32.8822 56.2285 33.9745C55.3094 35.0668 54.5929 35.6125 54.0791 35.6115C53.3505 35.1709 52.5891 34.7871 51.8016 34.4635C51.6345 34.4635 51.2075 34.9159 50.5205 35.8208C49.8334 36.7256 49.2662 37.1781 48.8187 37.1781C48.1511 37.0813 47.5071 36.8619 46.9191 36.5311C45.9702 36.0718 45.4957 35.7026 45.4957 35.4236L47.2081 33.2108C48.1272 32.072 48.7048 31.5026 48.9411 31.5026C49.8327 32.0389 50.7601 32.5131 51.7169 32.9218C51.8701 32.9218 52.3885 32.3895 53.272 31.3247C54.1555 30.2599 54.7365 29.7275 55.015 29.7275C56.7397 30.5332 57.6021 31.1382 57.6021 31.5425H57.6071Z" fill="#323333"/>
<path d="M98.2502 29.8095C97.7695 31.9976 97.1701 34.1578 96.4545 36.2807C95.8398 38.4381 94.7241 40.4198 93.1984 42.0643C91.9732 43.3455 90.9851 43.986 90.234 43.986H89.3152V39.4138H90.9849C92.3761 39.4138 93.3642 39.0451 93.9492 38.3077C93.9919 38.0563 94.1312 37.1374 94.367 35.5512C94.6629 34.3562 95.1724 33.2246 95.8709 32.2109C96.5058 31.1307 97.247 30.1166 98.0836 29.1839C98.1965 29.3728 98.2542 29.5895 98.2502 29.8095V29.8095ZM96.9136 26.7198C96.9136 27.2071 95.8142 28.1953 93.6154 29.6842C92.1535 27.8603 91.1441 26.9485 90.587 26.949V26.7198L94.0119 23.4629C95.9459 24.8404 96.9133 25.926 96.9143 26.7198H96.9136Z" fill="#323333"/>
<path d="M108 10.7278C107.859 11.2692 107.571 11.7608 107.167 12.1477C106.744 12.5539 106.453 13.0779 106.331 13.6516C106.693 14.3032 107.007 14.9799 107.271 15.6765C106.157 18.5856 104.904 20.0402 103.513 20.0402C103.026 20.0402 102.782 19.9081 102.782 19.6438C102.782 19.5456 103.099 19.2322 103.733 18.7036C103.996 18.5285 104.218 18.2974 104.382 18.0267C104.547 17.7561 104.649 17.4525 104.683 17.1377C104.502 16.6931 104.231 16.0877 103.869 15.3214C103.869 14.752 104.325 13.7569 105.236 12.3363C106.148 10.9157 106.841 10.2056 107.313 10.2061C107.772 10.2056 108.001 10.3795 108 10.7278ZM107.666 18.5356C107.666 20.5123 107.395 24.2635 106.852 29.789C106.726 31.3482 106.552 33.262 106.33 35.5306C106.07 37.4835 105.572 39.3973 104.849 41.2295C104.453 42.4014 103.92 43.5225 103.261 44.5698L103.157 44.5491C103.463 41.5147 103.915 36.4763 104.514 29.4338C104.829 27.6787 105.247 25.9438 105.767 24.2381C106.462 21.7052 107.005 19.8471 107.396 18.6637L107.666 18.5356Z" fill="#323333"/>
<path opacity="0.8" d="M25.393 2.73688C24.6777 1.67354 23.756 0.577451 22.4877 0.402362C21.4139 0.363566 20.3614 0.708772 19.5191 1.37602C16.0077 3.62321 13.3036 6.93073 11.7991 10.8187C10.3182 14.7329 10.4257 19.071 12.0987 22.907C12.8775 24.4838 13.798 25.9865 14.8488 27.3967L17.3242 28.4935L21.8251 23.5383C23.3927 21.9046 24.8211 20.1428 26.0955 18.2714C27.3739 16.3896 28.1604 14.2174 28.383 11.9533C28.6121 8.66998 27.2292 5.46713 25.393 2.73688Z" fill="#FF9900"/>
<path opacity="0.8" d="M37.5365 18.8896C36.4183 17.5586 34.3935 17.5309 32.6782 17.8113C29.4897 18.3534 26.4508 19.5597 23.7586 21.3521C21.0664 23.1445 18.7811 25.4829 17.0509 28.2156L25.4806 32.76C30.1212 31.5848 34.1715 28.7525 36.8682 24.7971C37.5014 23.9354 37.9534 22.9543 38.197 21.9131C38.3143 21.3915 38.316 20.8504 38.2019 20.3281C38.0878 19.8058 37.8606 19.3148 37.5365 18.8896V18.8896Z" fill="#FF9900"/>
<path d="M20.8835 29.5019C25.3553 31.993 28.7644 34.403 28.4989 34.8791C28.2335 35.3553 24.393 33.7204 19.922 31.2271C15.4509 28.7339 12.041 26.3261 12.3065 25.8492C12.572 25.3723 16.4139 27.0086 20.8835 29.5019Z" fill="#2D241C"/>
<path d="M12.5001 24.5661C12.7101 24.6833 12.8806 24.86 12.9901 25.074C13.0996 25.2881 13.1432 25.5298 13.1153 25.7686C13.0875 26.0074 12.9895 26.2325 12.8337 26.4156C12.6779 26.5987 12.4713 26.7315 12.24 26.7972C12.0087 26.8629 11.7632 26.8585 11.5344 26.7846C11.3056 26.7108 11.1039 26.5707 10.9547 26.3822C10.8055 26.1937 10.7155 25.9651 10.6962 25.7255C10.6769 25.4859 10.729 25.2459 10.8461 25.0359C10.9238 24.8964 11.0283 24.7736 11.1535 24.6745C11.2787 24.5754 11.4222 24.502 11.5758 24.4584C11.7294 24.4147 11.8901 24.4018 12.0487 24.4203C12.2073 24.4388 12.3607 24.4883 12.5001 24.5661V24.5661Z" fill="#2D241C"/>
<path d="M12.7719 22.1051C11.6816 18.7108 12.3413 15.0083 13.3378 11.5856C14.4979 7.5998 16.9341 3.79624 20.6059 1.68805C24.9524 -0.807319 29.2555 1.93788 30.3736 6.54784C30.9522 8.93432 30.4113 11.1372 29.3936 13.3037C27.0274 18.3176 23.5239 22.7103 19.1618 26.1322" stroke="#2D241C" stroke-width="2" stroke-miterlimit="10"/>
<path d="M19.5077 27.3596C22.7987 23.3845 27.5359 20.6813 32.4895 19.1169C34.1265 18.6009 35.8852 18.1916 37.5428 18.6472C38.3188 18.8214 38.9985 19.2862 39.4424 19.9461C40.0409 20.9525 39.7513 22.25 39.268 23.3162C37.9727 26.1753 35.4603 28.3447 32.6782 29.7973C30.8466 30.7182 28.9275 31.4533 26.9495 31.9916" stroke="#2D241C" stroke-width="2" stroke-miterlimit="10"/>
<path d="M11.4346 25.1915C11.5843 21.6499 10.3214 18.1937 7.92368 15.583C7.12392 14.7178 6.02337 14.1915 4.84785 14.1121C3.67233 14.0326 2.511 14.4061 1.60214 15.1559C0.724583 15.9004 -0.123083 17.1488 0.547362 18.2969C0.631839 18.4541 0.772297 18.5738 0.940899 18.6323C1.1095 18.6909 1.29394 18.6839 1.45766 18.6129" stroke="#2D241C" stroke-width="0.75" stroke-miterlimit="10"/>
<path d="M11.1514 25.6099C10.8257 23.3951 10.0652 21.2664 8.91373 19.3466C8.07746 17.9508 6.40489 16.042 4.55939 16.558C3.70532 16.7971 2.88685 18.116 3.5758 18.9003C3.67489 19.0183 3.81048 19.1 3.96115 19.1323C4.11183 19.1647 4.26899 19.1459 4.4078 19.079" stroke="#2D241C" stroke-width="0.75" stroke-miterlimit="10"/>
</g>
<defs>
<clipPath id="clip0_199_14153">
<rect width="108" height="60" fill="white"/>
</clipPath>
</defs>
</svg>
