<svg width="180" height="169" viewBox="0 0 180 169" fill="none" xmlns="http://www.w3.org/2000/svg">
<path d="M176.23 66.99L164.53 38H156.73L164.01 66.99H176.23ZM155.95 66.99L144.12 38H136.32L143.73 66.99H155.95Z" fill="#FC4F4F"/>
<path d="M113.906 53.5625L115.937 57.7188L120.531 58.375C121.344 58.5 121.656 59.5 121.062 60.0938L117.781 63.3125L118.562 67.8438C118.687 68.6562 117.812 69.2812 117.094 68.9062L113 66.75L108.937 68.9062C108.219 69.2812 107.344 68.6562 107.469 67.8438L108.25 63.3125L104.969 60.0938C104.375 59.5 104.687 58.5 105.5 58.375L110.062 57.7188L112.125 53.5625C112.469 52.8438 113.531 52.8125 113.906 53.5625Z" fill="#FAAD13"/>
<path d="M87.9062 53.5625L89.9374 57.7188L94.5312 58.375C95.3437 58.5 95.6562 59.5 95.0624 60.0938L91.7812 63.3125L92.5624 67.8438C92.6874 68.6562 91.8124 69.2812 91.0937 68.9062L86.9999 66.75L82.9374 68.9062C82.2187 69.2812 81.3437 68.6562 81.4687 67.8438L82.2499 63.3125L78.9687 60.0938C78.3749 59.5 78.6874 58.5 79.4999 58.375L84.0624 57.7188L86.1249 53.5625C86.4687 52.8438 87.5312 52.8125 87.9062 53.5625Z" fill="#FAAD13"/>
<path d="M61.9062 53.5625L63.9374 57.7188L68.5312 58.375C69.3437 58.5 69.6562 59.5 69.0624 60.0938L65.7812 63.3125L66.5624 67.8438C66.6874 68.6562 65.8124 69.2812 65.0937 68.9062L60.9999 66.75L56.9374 68.9062C56.2187 69.2812 55.3437 68.6562 55.4687 67.8438L56.2499 63.3125L52.9687 60.0938C52.3749 59.5 52.6874 58.5 53.4999 58.375L58.0624 57.7188L60.1249 53.5625C60.4687 52.8438 61.5312 52.8125 61.9062 53.5625Z" fill="#FAAD13"/>
<path d="M35.9062 53.5625L37.9374 57.7188L42.5312 58.375C43.3437 58.5 43.6562 59.5 43.0624 60.0938L39.7812 63.3125L40.5624 67.8438C40.6874 68.6562 39.8124 69.2812 39.0937 68.9062L34.9999 66.75L30.9374 68.9062C30.2187 69.2812 29.3437 68.6562 29.4687 67.8438L30.2499 63.3125L26.9687 60.0938C26.3749 59.5 26.6874 58.5 27.4999 58.375L32.0624 57.7188L34.1249 53.5625C34.4687 52.8438 35.5312 52.8125 35.9062 53.5625Z" fill="#FAAD13"/>
<path d="M9.90619 53.5625L11.9374 57.7188L16.5312 58.375C17.3437 58.5 17.6562 59.5 17.0624 60.0938L13.7812 63.3125L14.5624 67.8438C14.6874 68.6562 13.8124 69.2812 13.0937 68.9062L8.99994 66.75L4.93744 68.9062C4.21869 69.2812 3.34369 68.6562 3.46869 67.8438L4.24994 63.3125L0.968689 60.0938C0.374939 59.5 0.687439 58.5 1.49994 58.375L6.06244 57.7188L8.12494 53.5625C8.46869 52.8438 9.53119 52.8125 9.90619 53.5625Z" fill="#FAAD13"/>
</svg>
