<svg width="1059" height="198" viewBox="0 0 1059 198" fill="none" xmlns="http://www.w3.org/2000/svg">
<path d="M31.2783 137.026C30.3716 136.573 29.4583 136.346 28.5383 136.346C27.8849 136.346 27.3516 136.499 26.9383 136.806C26.5249 137.099 26.3183 137.479 26.3183 137.946C26.3183 138.786 26.8716 139.413 27.9783 139.826C29.6316 140.439 30.8049 141.086 31.4983 141.766C32.1916 142.433 32.5383 143.259 32.5383 144.246C32.5383 145.446 32.0783 146.386 31.1583 147.066C30.4116 147.626 29.4849 147.906 28.3783 147.906C27.0583 147.906 25.6849 147.453 24.2583 146.546L25.0583 145.406C25.9516 145.953 26.9916 146.226 28.1783 146.226C29.8049 146.226 30.6183 145.539 30.6183 144.166C30.6183 143.099 29.9316 142.333 28.5583 141.866C27.1183 141.373 26.0716 140.826 25.4183 140.226C24.7783 139.626 24.4583 138.899 24.4583 138.046C24.4583 137.033 24.8516 136.219 25.6383 135.606C26.3583 135.046 27.3049 134.766 28.4783 134.766C29.7983 134.766 30.9983 135.139 32.0783 135.886L31.2783 137.026ZM43.1042 143.706H36.7042C36.7976 144.586 37.1176 145.286 37.6642 145.806C38.2109 146.313 38.9109 146.566 39.7642 146.566C40.5909 146.566 41.4309 146.313 42.2842 145.806L42.8042 146.786C41.8709 147.533 40.7642 147.906 39.4842 147.906C38.0176 147.906 36.8509 147.446 35.9842 146.526C35.1842 145.673 34.7842 144.553 34.7842 143.166C34.7842 141.753 35.2176 140.573 36.0842 139.626C36.8709 138.773 37.8376 138.346 38.9842 138.346C40.3842 138.346 41.4576 138.873 42.2042 139.926C42.8042 140.766 43.1042 141.826 43.1042 143.106V143.706ZM36.6442 142.366H41.3442C41.3176 141.499 41.0976 140.833 40.6842 140.366C40.2842 139.886 39.7376 139.646 39.0442 139.646C38.3776 139.646 37.8242 139.893 37.3842 140.386C36.9576 140.879 36.7109 141.539 36.6442 142.366ZM52.4986 147.666H51.1586L50.9586 146.726C50.2386 147.513 49.2653 147.906 48.0386 147.906C47.1053 147.906 46.3653 147.653 45.8186 147.146C45.2853 146.626 45.0186 145.926 45.0186 145.046C45.0186 144.046 45.4253 143.279 46.2386 142.746C47.0653 142.199 48.2319 141.926 49.7386 141.926H50.7986V141.826C50.7986 140.439 50.0986 139.746 48.6986 139.746C47.8053 139.746 46.9719 140.033 46.1986 140.606L45.6786 139.686C46.7186 138.793 47.9119 138.346 49.2586 138.346C51.4186 138.346 52.4986 139.633 52.4986 142.206V147.666ZM50.7786 143.086H49.8986C47.8453 143.086 46.8186 143.699 46.8186 144.926C46.8186 145.433 46.9653 145.833 47.2586 146.126C47.5653 146.419 47.9719 146.566 48.4786 146.566C48.9853 146.566 49.4586 146.439 49.8986 146.186C50.3386 145.919 50.6319 145.586 50.7786 145.186V143.086ZM57.1609 139.486H57.2409C57.8676 138.726 58.6009 138.346 59.4409 138.346C60.5076 138.346 61.2943 138.759 61.8009 139.586L60.3609 140.486C59.9209 140.046 59.4409 139.826 58.9209 139.826C58.2543 139.826 57.6943 140.166 57.2409 140.846V147.666H55.5209V138.586H57.0009L57.1609 139.486ZM70.3777 146.746C69.6043 147.519 68.5643 147.906 67.2577 147.906C65.7643 147.906 64.5777 147.413 63.6977 146.426C62.9377 145.559 62.5577 144.473 62.5577 143.166C62.5577 141.699 63.051 140.499 64.0377 139.566C64.891 138.753 65.9243 138.346 67.1377 138.346C68.311 138.346 69.3443 138.706 70.2377 139.426L69.7577 140.386C69.051 139.906 68.2777 139.666 67.4377 139.666C66.5443 139.666 65.811 139.999 65.2377 140.666C64.6643 141.333 64.3777 142.186 64.3777 143.226C64.3777 144.239 64.6977 145.066 65.3377 145.706C65.9243 146.279 66.6577 146.566 67.5377 146.566C68.4443 146.566 69.211 146.293 69.8377 145.746L70.3777 146.746ZM74.5066 134.766V139.586C75.2532 138.759 76.1932 138.346 77.3266 138.346C79.5532 138.346 80.6666 139.653 80.6666 142.266V147.666H78.9466V142.366C78.9466 140.673 78.1999 139.826 76.7066 139.826C76.2932 139.826 75.8732 139.926 75.4466 140.126C75.0199 140.326 74.7066 140.566 74.5066 140.846V147.666H72.7866V135.686L74.5066 134.766ZM85.445 138.586V147.666H83.725V138.586H85.445ZM83.585 135.786C83.585 135.506 83.685 135.266 83.885 135.066C84.085 134.866 84.325 134.766 84.605 134.766C84.885 134.766 85.125 134.866 85.325 135.066C85.5383 135.266 85.645 135.506 85.645 135.786C85.645 136.079 85.545 136.326 85.345 136.526C85.145 136.726 84.8983 136.826 84.605 136.826C84.3117 136.826 84.065 136.726 83.865 136.526C83.6783 136.326 83.585 136.079 83.585 135.786ZM90.2069 139.486H90.3069C90.9869 138.726 91.9335 138.346 93.1469 138.346C95.3735 138.346 96.4869 139.653 96.4869 142.266V147.666H94.7669V142.366C94.7669 140.673 94.0202 139.826 92.5269 139.826C92.1135 139.826 91.6935 139.926 91.2669 140.126C90.8402 140.326 90.5269 140.566 90.3269 140.846V147.666H88.6069V138.586H90.0469L90.2069 139.486ZM105.645 146.806V146.706C105.045 147.506 104.185 147.906 103.065 147.906C101.719 147.906 100.659 147.413 99.8853 146.426C99.232 145.599 98.9053 144.559 98.9053 143.306C98.9053 141.653 99.3853 140.373 100.345 139.466C101.119 138.719 102.059 138.346 103.165 138.346C103.699 138.346 104.225 138.466 104.745 138.706C105.265 138.933 105.625 139.206 105.825 139.526L106.025 138.586H107.365V146.806C107.365 149.926 105.999 151.486 103.265 151.486C102.079 151.486 100.925 151.046 99.8053 150.166L100.325 149.246C101.139 149.806 102.045 150.086 103.045 150.086C104.779 150.086 105.645 148.993 105.645 146.806ZM105.645 144.806V141.206C105.552 140.793 105.285 140.433 104.845 140.126C104.419 139.819 103.959 139.666 103.465 139.666C102.652 139.666 101.992 139.986 101.485 140.626C100.979 141.266 100.725 142.093 100.725 143.106C100.725 144.266 100.992 145.153 101.525 145.766C101.992 146.299 102.592 146.566 103.325 146.566C103.832 146.566 104.305 146.399 104.745 146.066C105.199 145.719 105.499 145.299 105.645 144.806ZM114.43 139.986V138.586H115.77V137.306C115.77 135.613 116.543 134.766 118.09 134.766C118.943 134.766 119.737 135.039 120.47 135.586L119.87 136.506C119.417 136.239 118.957 136.106 118.49 136.106C117.823 136.106 117.49 136.546 117.49 137.426V138.586H119.91V139.986H117.49V147.666H115.77V139.986H114.43ZM125.787 147.906C124.413 147.906 123.3 147.393 122.447 146.366C121.713 145.486 121.347 144.413 121.347 143.146C121.347 141.679 121.793 140.493 122.687 139.586C123.487 138.759 124.513 138.346 125.767 138.346C127.207 138.346 128.34 138.873 129.167 139.926C129.847 140.806 130.187 141.879 130.187 143.146C130.187 144.599 129.72 145.786 128.787 146.706C127.96 147.506 126.96 147.906 125.787 147.906ZM125.747 146.546C126.547 146.546 127.18 146.239 127.647 145.626C128.127 145.013 128.367 144.186 128.367 143.146C128.367 142.066 128.113 141.206 127.607 140.566C127.14 139.966 126.527 139.666 125.767 139.666C124.993 139.666 124.367 139.986 123.887 140.626C123.407 141.266 123.167 142.106 123.167 143.146C123.167 144.266 123.433 145.133 123.967 145.746C124.433 146.279 125.027 146.546 125.747 146.546ZM134.348 139.486H134.428C135.055 138.726 135.788 138.346 136.628 138.346C137.695 138.346 138.482 138.759 138.988 139.586L137.548 140.486C137.108 140.046 136.628 139.826 136.108 139.826C135.442 139.826 134.882 140.166 134.428 140.846V147.666H132.708V138.586H134.188L134.348 139.486ZM152.401 147.666H151.061L150.861 146.726C150.141 147.513 149.168 147.906 147.941 147.906C147.008 147.906 146.268 147.653 145.721 147.146C145.188 146.626 144.921 145.926 144.921 145.046C144.921 144.046 145.328 143.279 146.141 142.746C146.968 142.199 148.134 141.926 149.641 141.926H150.701V141.826C150.701 140.439 150.001 139.746 148.601 139.746C147.708 139.746 146.874 140.033 146.101 140.606L145.581 139.686C146.621 138.793 147.814 138.346 149.161 138.346C151.321 138.346 152.401 139.633 152.401 142.206V147.666ZM150.681 143.086H149.801C147.748 143.086 146.721 143.699 146.721 144.926C146.721 145.433 146.868 145.833 147.161 146.126C147.468 146.419 147.874 146.566 148.381 146.566C148.888 146.566 149.361 146.439 149.801 146.186C150.241 145.919 150.534 145.586 150.681 145.186V143.086ZM157.023 139.486H157.123C157.803 138.726 158.75 138.346 159.963 138.346C162.19 138.346 163.303 139.653 163.303 142.266V147.666H161.583V142.366C161.583 140.673 160.837 139.826 159.343 139.826C158.93 139.826 158.51 139.926 158.083 140.126C157.657 140.326 157.343 140.566 157.143 140.846V147.666H155.423V138.586H156.863L157.023 139.486ZM75.4645 171.906C74.0911 171.906 72.9778 171.393 72.1245 170.366C71.3911 169.486 71.0245 168.413 71.0245 167.146C71.0245 165.679 71.4711 164.493 72.3645 163.586C73.1645 162.759 74.1911 162.346 75.4445 162.346C76.8845 162.346 78.0178 162.873 78.8445 163.926C79.5245 164.806 79.8645 165.879 79.8645 167.146C79.8645 168.599 79.3978 169.786 78.4645 170.706C77.6378 171.506 76.6378 171.906 75.4645 171.906ZM75.4245 170.546C76.2245 170.546 76.8578 170.239 77.3245 169.626C77.8045 169.013 78.0445 168.186 78.0445 167.146C78.0445 166.066 77.7911 165.206 77.2845 164.566C76.8178 163.966 76.2045 163.666 75.4445 163.666C74.6711 163.666 74.0445 163.986 73.5645 164.626C73.0845 165.266 72.8445 166.106 72.8445 167.146C72.8445 168.266 73.1111 169.133 73.6445 169.746C74.1111 170.279 74.7045 170.546 75.4245 170.546ZM84.0262 163.486H84.1062C84.7328 162.726 85.4662 162.346 86.3062 162.346C87.3728 162.346 88.1595 162.759 88.6662 163.586L87.2262 164.486C86.7862 164.046 86.3062 163.826 85.7862 163.826C85.1195 163.826 84.5595 164.166 84.1062 164.846V171.666H82.3862V162.586H83.8662L84.0262 163.486ZM96.6601 171.666L96.4001 170.706C95.8001 171.506 94.9001 171.906 93.7001 171.906C92.3534 171.906 91.2934 171.413 90.5201 170.426C89.8667 169.599 89.5401 168.559 89.5401 167.306C89.5401 165.653 90.0201 164.373 90.9801 163.466C91.7534 162.719 92.6934 162.346 93.8001 162.346C94.8134 162.346 95.6401 162.666 96.2801 163.306V159.766L98.0001 158.806V171.666H96.6601ZM96.2801 168.806V165.206C96.1867 164.793 95.9201 164.433 95.4801 164.126C95.0534 163.819 94.5934 163.666 94.1001 163.666C93.2867 163.666 92.6267 163.986 92.1201 164.626C91.6134 165.266 91.3601 166.093 91.3601 167.106C91.3601 168.266 91.6267 169.153 92.1601 169.766C92.6267 170.299 93.2267 170.566 93.9601 170.566C94.4667 170.566 94.9401 170.399 95.3801 170.066C95.8334 169.719 96.1334 169.299 96.2801 168.806ZM108.837 167.706H102.437C102.53 168.586 102.85 169.286 103.397 169.806C103.943 170.313 104.643 170.566 105.497 170.566C106.323 170.566 107.163 170.313 108.017 169.806L108.537 170.786C107.603 171.533 106.497 171.906 105.217 171.906C103.75 171.906 102.583 171.446 101.717 170.526C100.917 169.673 100.517 168.553 100.517 167.166C100.517 165.753 100.95 164.573 101.817 163.626C102.603 162.773 103.57 162.346 104.717 162.346C106.117 162.346 107.19 162.873 107.937 163.926C108.537 164.766 108.837 165.826 108.837 167.106V167.706ZM102.377 166.366H107.077C107.05 165.499 106.83 164.833 106.417 164.366C106.017 163.886 105.47 163.646 104.777 163.646C104.11 163.646 103.557 163.893 103.117 164.386C102.69 164.879 102.443 165.539 102.377 166.366ZM112.991 163.486H113.071C113.698 162.726 114.431 162.346 115.271 162.346C116.338 162.346 117.124 162.759 117.631 163.586L116.191 164.486C115.751 164.046 115.271 163.826 114.751 163.826C114.084 163.826 113.524 164.166 113.071 164.846V171.666H111.351V162.586H112.831L112.991 163.486Z" fill="#3F3439"/>
<path d="M310.919 44.446C309.799 45.4193 308.579 45.906 307.259 45.906C305.339 45.906 303.852 45.166 302.799 43.686C301.972 42.5127 301.559 41.106 301.559 39.466C301.559 37.5993 302.072 36.006 303.099 34.686C304.112 33.406 305.399 32.766 306.959 32.766C308.345 32.766 309.612 33.226 310.759 34.146L310.019 35.266C309.112 34.666 308.212 34.366 307.319 34.366C306.105 34.366 305.152 34.866 304.459 35.866C303.832 36.7727 303.519 37.9727 303.519 39.466C303.519 40.946 303.912 42.1327 304.699 43.026C305.419 43.8527 306.352 44.266 307.499 44.266C308.365 44.266 309.259 43.9527 310.179 43.326L310.919 44.446ZM315.206 32.766V37.586C315.952 36.7593 316.892 36.346 318.026 36.346C320.252 36.346 321.366 37.6527 321.366 40.266V45.666H319.646V40.366C319.646 38.6727 318.899 37.826 317.406 37.826C316.992 37.826 316.572 37.926 316.146 38.126C315.719 38.326 315.406 38.566 315.206 38.846V45.666H313.486V33.686L315.206 32.766ZM328.224 45.906C326.851 45.906 325.738 45.3927 324.884 44.366C324.151 43.486 323.784 42.4127 323.784 41.146C323.784 39.6793 324.231 38.4927 325.124 37.586C325.924 36.7593 326.951 36.346 328.204 36.346C329.644 36.346 330.778 36.8727 331.604 37.926C332.284 38.806 332.624 39.8793 332.624 41.146C332.624 42.5993 332.158 43.786 331.224 44.706C330.398 45.506 329.398 45.906 328.224 45.906ZM328.184 44.546C328.984 44.546 329.618 44.2393 330.084 43.626C330.564 43.0127 330.804 42.186 330.804 41.146C330.804 40.066 330.551 39.206 330.044 38.566C329.578 37.966 328.964 37.666 328.204 37.666C327.431 37.666 326.804 37.986 326.324 38.626C325.844 39.266 325.604 40.106 325.604 41.146C325.604 42.266 325.871 43.1327 326.404 43.746C326.871 44.2793 327.464 44.546 328.184 44.546ZM338.986 45.906C337.613 45.906 336.499 45.3927 335.646 44.366C334.913 43.486 334.546 42.4127 334.546 41.146C334.546 39.6793 334.993 38.4927 335.886 37.586C336.686 36.7593 337.713 36.346 338.966 36.346C340.406 36.346 341.539 36.8727 342.366 37.926C343.046 38.806 343.386 39.8793 343.386 41.146C343.386 42.5993 342.919 43.786 341.986 44.706C341.159 45.506 340.159 45.906 338.986 45.906ZM338.946 44.546C339.746 44.546 340.379 44.2393 340.846 43.626C341.326 43.0127 341.566 42.186 341.566 41.146C341.566 40.066 341.313 39.206 340.806 38.566C340.339 37.966 339.726 37.666 338.966 37.666C338.193 37.666 337.566 37.986 337.086 38.626C336.606 39.266 336.366 40.106 336.366 41.146C336.366 42.266 336.633 43.1327 337.166 43.746C337.633 44.2793 338.226 44.546 338.946 44.546ZM350.848 38.226C350.181 37.8527 349.448 37.666 348.648 37.666C348.208 37.666 347.854 37.7727 347.588 37.986C347.321 38.186 347.188 38.4593 347.188 38.806C347.188 39.1927 347.308 39.4927 347.548 39.706C347.801 39.906 348.268 40.0993 348.948 40.286C349.974 40.5793 350.688 40.8927 351.088 41.226C351.634 41.6927 351.908 42.3527 351.908 43.206C351.908 44.0193 351.608 44.6727 351.008 45.166C350.421 45.6593 349.641 45.906 348.668 45.906C347.374 45.906 346.254 45.546 345.308 44.826L345.908 43.866C346.654 44.3327 347.488 44.566 348.408 44.566C349.634 44.566 350.248 44.0993 350.248 43.166C350.248 42.766 350.114 42.466 349.848 42.266C349.594 42.0527 349.101 41.8527 348.368 41.666C346.421 41.186 345.448 40.246 345.448 38.846C345.448 38.126 345.734 37.5327 346.308 37.066C346.894 36.586 347.628 36.346 348.508 36.346C349.628 36.346 350.608 36.6593 351.448 37.286L350.848 38.226ZM361.948 41.706H355.548C355.641 42.586 355.961 43.286 356.508 43.806C357.055 44.3127 357.755 44.566 358.608 44.566C359.435 44.566 360.275 44.3127 361.128 43.806L361.648 44.786C360.715 45.5327 359.608 45.906 358.328 45.906C356.861 45.906 355.695 45.446 354.828 44.526C354.028 43.6727 353.628 42.5527 353.628 41.166C353.628 39.7527 354.061 38.5727 354.928 37.626C355.715 36.7727 356.681 36.346 357.828 36.346C359.228 36.346 360.301 36.8727 361.048 37.926C361.648 38.766 361.948 39.826 361.948 41.106V41.706ZM355.488 40.366H360.188C360.161 39.4993 359.941 38.8327 359.528 38.366C359.128 37.886 358.581 37.646 357.888 37.646C357.221 37.646 356.668 37.8927 356.228 38.386C355.801 38.8793 355.555 39.5393 355.488 40.366ZM372.97 45.906C371.597 45.906 370.484 45.3927 369.63 44.366C368.897 43.486 368.53 42.4127 368.53 41.146C368.53 39.6793 368.977 38.4927 369.87 37.586C370.67 36.7593 371.697 36.346 372.95 36.346C374.39 36.346 375.524 36.8727 376.35 37.926C377.03 38.806 377.37 39.8793 377.37 41.146C377.37 42.5993 376.904 43.786 375.97 44.706C375.144 45.506 374.144 45.906 372.97 45.906ZM372.93 44.546C373.73 44.546 374.364 44.2393 374.83 43.626C375.31 43.0127 375.55 42.186 375.55 41.146C375.55 40.066 375.297 39.206 374.79 38.566C374.324 37.966 373.71 37.666 372.95 37.666C372.177 37.666 371.55 37.986 371.07 38.626C370.59 39.266 370.35 40.106 370.35 41.146C370.35 42.266 370.617 43.1327 371.15 43.746C371.617 44.2793 372.21 44.546 372.93 44.546ZM381.532 37.486H381.612C382.239 36.726 382.972 36.346 383.812 36.346C384.879 36.346 385.665 36.7593 386.172 37.586L384.732 38.486C384.292 38.046 383.812 37.826 383.292 37.826C382.625 37.826 382.065 38.166 381.612 38.846V45.666H379.892V36.586H381.372L381.532 37.486ZM394.166 45.666L393.906 44.706C393.306 45.506 392.406 45.906 391.206 45.906C389.859 45.906 388.799 45.4127 388.026 44.426C387.373 43.5993 387.046 42.5593 387.046 41.306C387.046 39.6527 387.526 38.3727 388.486 37.466C389.259 36.7193 390.199 36.346 391.306 36.346C392.319 36.346 393.146 36.666 393.786 37.306V33.766L395.506 32.806V45.666H394.166ZM393.786 42.806V39.206C393.693 38.7927 393.426 38.4327 392.986 38.126C392.559 37.8193 392.099 37.666 391.606 37.666C390.793 37.666 390.133 37.986 389.626 38.626C389.119 39.266 388.866 40.0927 388.866 41.106C388.866 42.266 389.133 43.1527 389.666 43.766C390.133 44.2993 390.733 44.566 391.466 44.566C391.973 44.566 392.446 44.3993 392.886 44.066C393.339 43.7193 393.639 43.2993 393.786 42.806ZM406.343 41.706H399.943C400.036 42.586 400.356 43.286 400.903 43.806C401.449 44.3127 402.149 44.566 403.003 44.566C403.829 44.566 404.669 44.3127 405.523 43.806L406.043 44.786C405.109 45.5327 404.003 45.906 402.723 45.906C401.256 45.906 400.089 45.446 399.223 44.526C398.423 43.6727 398.023 42.5527 398.023 41.166C398.023 39.7527 398.456 38.5727 399.323 37.626C400.109 36.7727 401.076 36.346 402.223 36.346C403.623 36.346 404.696 36.8727 405.443 37.926C406.043 38.766 406.343 39.826 406.343 41.106V41.706ZM399.883 40.366H404.583C404.556 39.4993 404.336 38.8327 403.923 38.366C403.523 37.886 402.976 37.646 402.283 37.646C401.616 37.646 401.063 37.8927 400.623 38.386C400.196 38.8793 399.949 39.5393 399.883 40.366ZM410.497 37.486H410.577C411.204 36.726 411.937 36.346 412.777 36.346C413.844 36.346 414.63 36.7593 415.137 37.586L413.697 38.486C413.257 38.046 412.777 37.826 412.257 37.826C411.59 37.826 411.03 38.166 410.577 38.846V45.666H408.857V36.586H410.337L410.497 37.486Z" fill="#3F3439"/>
<path d="M699.792 69V56.36C700.966 56.1867 702.046 56.1 703.032 56.1C706.099 56.1 707.632 57.3933 707.632 59.98C707.632 61.38 707.166 62.44 706.232 63.16C705.472 63.7467 704.499 64.04 703.312 64.04C702.739 64.04 702.186 63.9933 701.652 63.9V69H699.792ZM701.652 57.72V62.4C702.186 62.4933 702.739 62.54 703.312 62.54C704.886 62.54 705.672 61.6867 705.672 59.98C705.672 58.38 704.826 57.58 703.132 57.58C702.519 57.58 702.026 57.6267 701.652 57.72ZM716.686 69H715.346L715.146 68.06C714.426 68.8467 713.453 69.24 712.226 69.24C711.293 69.24 710.553 68.9867 710.006 68.48C709.473 67.96 709.206 67.26 709.206 66.38C709.206 65.38 709.613 64.6133 710.426 64.08C711.253 63.5333 712.419 63.26 713.926 63.26H714.986V63.16C714.986 61.7733 714.286 61.08 712.886 61.08C711.993 61.08 711.159 61.3667 710.386 61.94L709.866 61.02C710.906 60.1267 712.099 59.68 713.446 59.68C715.606 59.68 716.686 60.9667 716.686 63.54V69ZM714.966 64.42H714.086C712.033 64.42 711.006 65.0333 711.006 66.26C711.006 66.7667 711.153 67.1667 711.446 67.46C711.753 67.7533 712.159 67.9 712.666 67.9C713.173 67.9 713.646 67.7733 714.086 67.52C714.526 67.2533 714.819 66.92 714.966 66.52V64.42ZM721.468 59.92V69H719.748V59.92H721.468ZM719.608 57.12C719.608 56.84 719.708 56.6 719.908 56.4C720.108 56.2 720.348 56.1 720.628 56.1C720.908 56.1 721.148 56.2 721.348 56.4C721.562 56.6 721.668 56.84 721.668 57.12C721.668 57.4133 721.568 57.66 721.368 57.86C721.168 58.06 720.922 58.16 720.628 58.16C720.335 58.16 720.088 58.06 719.888 57.86C719.702 57.66 719.608 57.4133 719.608 57.12ZM732.35 65.04H725.95C726.044 65.92 726.364 66.62 726.91 67.14C727.457 67.6467 728.157 67.9 729.01 67.9C729.837 67.9 730.677 67.6467 731.53 67.14L732.05 68.12C731.117 68.8667 730.01 69.24 728.73 69.24C727.264 69.24 726.097 68.78 725.23 67.86C724.43 67.0067 724.03 65.8867 724.03 64.5C724.03 63.0867 724.464 61.9067 725.33 60.96C726.117 60.1067 727.084 59.68 728.23 59.68C729.63 59.68 730.704 60.2067 731.45 61.26C732.05 62.1 732.35 63.16 732.35 64.44V65.04ZM725.89 63.7H730.59C730.564 62.8333 730.344 62.1667 729.93 61.7C729.53 61.22 728.984 60.98 728.29 60.98C727.624 60.98 727.07 61.2267 726.63 61.72C726.204 62.2133 725.957 62.8733 725.89 63.7ZM736.465 60.82H736.565C737.245 60.06 738.185 59.68 739.385 59.68C740.891 59.68 741.871 60.22 742.325 61.3C743.098 60.22 744.198 59.68 745.625 59.68C747.811 59.68 748.905 60.9733 748.905 63.56V69H747.185V63.94C747.185 62.94 747.005 62.2267 746.645 61.8C746.298 61.3733 745.711 61.16 744.885 61.16C744.058 61.16 743.305 61.5267 742.625 62.26C742.705 62.6333 742.745 63.0667 742.745 63.56V69H741.025V63.8C741.025 62.88 740.838 62.2133 740.465 61.8C740.105 61.3733 739.518 61.16 738.705 61.16C738.318 61.16 737.918 61.26 737.505 61.46C737.091 61.66 736.785 61.9 736.585 62.18V69H734.865V59.92H736.305L736.465 60.82ZM759.635 65.04H753.235C753.329 65.92 753.649 66.62 754.195 67.14C754.742 67.6467 755.442 67.9 756.295 67.9C757.122 67.9 757.962 67.6467 758.815 67.14L759.335 68.12C758.402 68.8667 757.295 69.24 756.015 69.24C754.549 69.24 753.382 68.78 752.515 67.86C751.715 67.0067 751.315 65.8867 751.315 64.5C751.315 63.0867 751.749 61.9067 752.615 60.96C753.402 60.1067 754.369 59.68 755.515 59.68C756.915 59.68 757.989 60.2067 758.735 61.26C759.335 62.1 759.635 63.16 759.635 64.44V65.04ZM753.175 63.7H757.875C757.849 62.8333 757.629 62.1667 757.215 61.7C756.815 61.22 756.269 60.98 755.575 60.98C754.909 60.98 754.355 61.2267 753.915 61.72C753.489 62.2133 753.242 62.8733 753.175 63.7ZM763.75 60.82H763.85C764.53 60.06 765.477 59.68 766.69 59.68C768.917 59.68 770.03 60.9867 770.03 63.6V69H768.31V63.7C768.31 62.0067 767.563 61.16 766.07 61.16C765.657 61.16 765.237 61.26 764.81 61.46C764.383 61.66 764.07 61.9 763.87 62.18V69H762.15V59.92H763.59L763.75 60.82ZM775.213 61.32L775.193 66.6C775.193 67.48 775.526 67.92 776.193 67.92C776.66 67.92 777.12 67.7867 777.573 67.52L778.173 68.44C777.44 68.9867 776.646 69.26 775.793 69.26C774.246 69.26 773.473 68.4133 773.473 66.72V61.32H772.133V59.92H773.493V58.06L775.213 57.16V59.92H777.933V61.32H775.213Z" fill="#3F3439"/>
<path d="M514.737 146.446C513.617 147.419 512.397 147.906 511.077 147.906C509.157 147.906 507.67 147.166 506.617 145.686C505.79 144.513 505.377 143.106 505.377 141.466C505.377 139.599 505.89 138.006 506.917 136.686C507.93 135.406 509.217 134.766 510.777 134.766C512.164 134.766 513.43 135.226 514.577 136.146L513.837 137.266C512.93 136.666 512.03 136.366 511.137 136.366C509.924 136.366 508.97 136.866 508.277 137.866C507.65 138.773 507.337 139.973 507.337 141.466C507.337 142.946 507.73 144.133 508.517 145.026C509.237 145.853 510.17 146.266 511.317 146.266C512.184 146.266 513.077 145.953 513.997 145.326L514.737 146.446ZM520.636 147.906C519.263 147.906 518.15 147.393 517.296 146.366C516.563 145.486 516.196 144.413 516.196 143.146C516.196 141.679 516.643 140.493 517.536 139.586C518.336 138.759 519.363 138.346 520.616 138.346C522.056 138.346 523.19 138.873 524.016 139.926C524.696 140.806 525.036 141.879 525.036 143.146C525.036 144.599 524.57 145.786 523.636 146.706C522.81 147.506 521.81 147.906 520.636 147.906ZM520.596 146.546C521.396 146.546 522.03 146.239 522.496 145.626C522.976 145.013 523.216 144.186 523.216 143.146C523.216 142.066 522.963 141.206 522.456 140.566C521.99 139.966 521.376 139.666 520.616 139.666C519.843 139.666 519.216 139.986 518.736 140.626C518.256 141.266 518.016 142.106 518.016 143.146C518.016 144.266 518.283 145.133 518.816 145.746C519.283 146.279 519.876 146.546 520.596 146.546ZM529.158 139.486H529.258C529.938 138.726 530.885 138.346 532.098 138.346C534.325 138.346 535.438 139.653 535.438 142.266V147.666H533.718V142.366C533.718 140.673 532.971 139.826 531.478 139.826C531.065 139.826 530.645 139.926 530.218 140.126C529.791 140.326 529.478 140.566 529.278 140.846V147.666H527.558V138.586H528.998L529.158 139.486ZM545.676 139.986H540.796V147.666H539.076V139.986H537.736V138.586H539.076V137.306C539.076 135.613 539.85 134.766 541.396 134.766C542.25 134.766 543.043 135.039 543.776 135.586L543.176 136.506C542.723 136.239 542.263 136.106 541.796 136.106C541.13 136.106 540.796 136.546 540.796 137.426V138.586H547.396V147.666H545.676V139.986ZM545.536 135.786C545.536 135.506 545.636 135.266 545.836 135.066C546.036 134.866 546.276 134.766 546.556 134.766C546.836 134.766 547.076 134.866 547.276 135.066C547.49 135.266 547.596 135.506 547.596 135.786C547.596 136.079 547.496 136.326 547.296 136.526C547.096 136.726 546.85 136.826 546.556 136.826C546.263 136.826 546.016 136.726 545.816 136.526C545.63 136.326 545.536 136.079 545.536 135.786ZM552.206 139.486H552.286C552.913 138.726 553.646 138.346 554.486 138.346C555.553 138.346 556.339 138.759 556.846 139.586L555.406 140.486C554.966 140.046 554.486 139.826 553.966 139.826C553.299 139.826 552.739 140.166 552.286 140.846V147.666H550.566V138.586H552.046L552.206 139.486ZM560.115 139.486H560.215C560.895 138.726 561.835 138.346 563.035 138.346C564.542 138.346 565.522 138.886 565.975 139.966C566.748 138.886 567.848 138.346 569.275 138.346C571.462 138.346 572.555 139.639 572.555 142.226V147.666H570.835V142.606C570.835 141.606 570.655 140.893 570.295 140.466C569.948 140.039 569.362 139.826 568.535 139.826C567.708 139.826 566.955 140.193 566.275 140.926C566.355 141.299 566.395 141.733 566.395 142.226V147.666H564.675V142.466C564.675 141.546 564.488 140.879 564.115 140.466C563.755 140.039 563.168 139.826 562.355 139.826C561.968 139.826 561.568 139.926 561.155 140.126C560.742 140.326 560.435 140.566 560.235 140.846V147.666H558.515V138.586H559.955L560.115 139.486ZM582.446 147.666H581.106L580.906 146.726C580.186 147.513 579.213 147.906 577.986 147.906C577.053 147.906 576.313 147.653 575.766 147.146C575.233 146.626 574.966 145.926 574.966 145.046C574.966 144.046 575.373 143.279 576.186 142.746C577.013 142.199 578.179 141.926 579.686 141.926H580.746V141.826C580.746 140.439 580.046 139.746 578.646 139.746C577.753 139.746 576.919 140.033 576.146 140.606L575.626 139.686C576.666 138.793 577.859 138.346 579.206 138.346C581.366 138.346 582.446 139.633 582.446 142.206V147.666ZM580.726 143.086H579.846C577.793 143.086 576.766 143.699 576.766 144.926C576.766 145.433 576.913 145.833 577.206 146.126C577.513 146.419 577.919 146.566 578.426 146.566C578.933 146.566 579.406 146.439 579.846 146.186C580.286 145.919 580.579 145.586 580.726 145.186V143.086ZM587.828 139.986L587.808 145.266C587.808 146.146 588.142 146.586 588.808 146.586C589.275 146.586 589.735 146.453 590.188 146.186L590.788 147.106C590.055 147.653 589.262 147.926 588.408 147.926C586.862 147.926 586.088 147.079 586.088 145.386V139.986H584.748V138.586H586.108V136.726L587.828 135.826V138.586H590.548V139.986H587.828ZM538.029 162.586V171.666H536.309V162.586H538.029ZM536.169 159.786C536.169 159.506 536.269 159.266 536.469 159.066C536.669 158.866 536.909 158.766 537.189 158.766C537.469 158.766 537.709 158.866 537.909 159.066C538.122 159.266 538.229 159.506 538.229 159.786C538.229 160.079 538.129 160.326 537.929 160.526C537.729 160.726 537.482 160.826 537.189 160.826C536.896 160.826 536.649 160.726 536.449 160.526C536.262 160.326 536.169 160.079 536.169 159.786ZM545.031 171.906C543.658 171.906 542.544 171.393 541.691 170.366C540.958 169.486 540.591 168.413 540.591 167.146C540.591 165.679 541.038 164.493 541.931 163.586C542.731 162.759 543.758 162.346 545.011 162.346C546.451 162.346 547.584 162.873 548.411 163.926C549.091 164.806 549.431 165.879 549.431 167.146C549.431 168.599 548.964 169.786 548.031 170.706C547.204 171.506 546.204 171.906 545.031 171.906ZM544.991 170.546C545.791 170.546 546.424 170.239 546.891 169.626C547.371 169.013 547.611 168.186 547.611 167.146C547.611 166.066 547.358 165.206 546.851 164.566C546.384 163.966 545.771 163.666 545.011 163.666C544.238 163.666 543.611 163.986 543.131 164.626C542.651 165.266 542.411 166.106 542.411 167.146C542.411 168.266 542.678 169.133 543.211 169.746C543.678 170.279 544.271 170.546 544.991 170.546ZM553.553 163.486H553.653C554.333 162.726 555.279 162.346 556.493 162.346C558.719 162.346 559.833 163.653 559.833 166.266V171.666H558.113V166.366C558.113 164.673 557.366 163.826 555.873 163.826C555.459 163.826 555.039 163.926 554.613 164.126C554.186 164.326 553.873 164.566 553.673 164.846V171.666H551.953V162.586H553.393L553.553 163.486Z" fill="#3F3439"/>
<path d="M972.515 137.026C973.515 136.853 974.575 136.766 975.695 136.766C977.895 136.766 979.582 137.426 980.755 138.746C981.755 139.866 982.255 141.353 982.255 143.206C982.255 145.459 981.628 147.173 980.375 148.346C979.268 149.386 977.748 149.906 975.815 149.906C974.615 149.906 973.515 149.819 972.515 149.646V137.026ZM974.375 148.286C974.802 148.379 975.282 148.426 975.815 148.426C977.322 148.426 978.462 147.946 979.235 146.986C979.942 146.106 980.295 144.873 980.295 143.286C980.295 141.579 979.802 140.273 978.815 139.366C978.015 138.619 976.995 138.246 975.755 138.246C975.208 138.246 974.748 138.293 974.375 138.386V148.286ZM992.534 145.706H986.134C986.227 146.586 986.547 147.286 987.094 147.806C987.641 148.313 988.341 148.566 989.194 148.566C990.021 148.566 990.861 148.313 991.714 147.806L992.234 148.786C991.301 149.533 990.194 149.906 988.914 149.906C987.447 149.906 986.281 149.446 985.414 148.526C984.614 147.673 984.214 146.553 984.214 145.166C984.214 143.753 984.647 142.573 985.514 141.626C986.301 140.773 987.267 140.346 988.414 140.346C989.814 140.346 990.887 140.873 991.634 141.926C992.234 142.766 992.534 143.826 992.534 145.106V145.706ZM986.074 144.366H990.774C990.747 143.499 990.527 142.833 990.114 142.366C989.714 141.886 989.167 141.646 988.474 141.646C987.807 141.646 987.254 141.893 986.814 142.386C986.387 142.879 986.141 143.539 986.074 144.366ZM996.768 136.766V149.666H995.048V137.686L996.768 136.766ZM1001.65 140.586V149.666H999.932V140.586H1001.65ZM999.792 137.786C999.792 137.506 999.892 137.266 1000.09 137.066C1000.29 136.866 1000.53 136.766 1000.81 136.766C1001.09 136.766 1001.33 136.866 1001.53 137.066C1001.75 137.266 1001.85 137.506 1001.85 137.786C1001.85 138.079 1001.75 138.326 1001.55 138.526C1001.35 138.726 1001.11 138.826 1000.81 138.826C1000.52 138.826 1000.27 138.726 1000.07 138.526C999.885 138.326 999.792 138.079 999.792 137.786ZM1008.57 149.666H1007.01L1003.55 140.586H1005.35L1007.79 147.586L1010.25 140.586H1012.09L1008.57 149.666ZM1021.48 145.706H1015.08C1015.17 146.586 1015.49 147.286 1016.04 147.806C1016.59 148.313 1017.29 148.566 1018.14 148.566C1018.97 148.566 1019.81 148.313 1020.66 147.806L1021.18 148.786C1020.25 149.533 1019.14 149.906 1017.86 149.906C1016.39 149.906 1015.23 149.446 1014.36 148.526C1013.56 147.673 1013.16 146.553 1013.16 145.166C1013.16 143.753 1013.59 142.573 1014.46 141.626C1015.25 140.773 1016.21 140.346 1017.36 140.346C1018.76 140.346 1019.83 140.873 1020.58 141.926C1021.18 142.766 1021.48 143.826 1021.48 145.106V145.706ZM1015.02 144.366H1019.72C1019.69 143.499 1019.47 142.833 1019.06 142.366C1018.66 141.886 1018.11 141.646 1017.42 141.646C1016.75 141.646 1016.2 141.893 1015.76 142.386C1015.33 142.879 1015.09 143.539 1015.02 144.366ZM1025.63 141.486H1025.71C1026.34 140.726 1027.07 140.346 1027.91 140.346C1028.98 140.346 1029.77 140.759 1030.27 141.586L1028.83 142.486C1028.39 142.046 1027.91 141.826 1027.39 141.826C1026.73 141.826 1026.17 142.166 1025.71 142.846V149.666H1023.99V140.586H1025.47L1025.63 141.486ZM1039.99 140.586L1036.09 151.026C1035.46 152.666 1034.62 153.486 1033.55 153.486C1032.83 153.486 1032.08 153.199 1031.31 152.626L1031.83 151.746C1032.28 152.013 1032.68 152.146 1033.01 152.146C1033.62 152.146 1034.11 151.706 1034.47 150.826L1034.93 149.666H1034.57L1031.17 140.586H1032.95L1035.53 147.786L1038.19 140.586H1039.99Z" fill="#3F3439"/>
<path d="M266.664 98.87C266.664 72.648 256.247 47.5001 237.706 28.9583C219.164 10.4166 194.016 1.9797e-06 167.794 0C141.572 -1.9797e-06 116.424 10.4166 97.8824 28.9583C79.3407 47.5 68.9241 72.648 68.9241 98.8699L76.6731 98.8699C76.6731 74.7032 86.2733 51.5262 103.362 34.4377C120.45 17.3493 143.627 7.74905 167.794 7.74905C191.961 7.74906 215.138 17.3493 232.226 34.4378C249.315 51.5262 258.915 74.7032 258.915 98.87H266.664Z" fill="#FC4F4F"/>
<path d="M646.724 98.87C646.724 72.648 636.307 47.5001 617.765 28.9583C599.224 10.4166 574.076 1.9797e-06 547.854 0C521.632 -1.9797e-06 496.484 10.4166 477.942 28.9583C459.4 47.5 448.984 72.648 448.984 98.8699L456.733 98.8699C456.733 74.7032 466.333 51.5262 483.422 34.4377C500.51 17.3493 523.687 7.74905 547.854 7.74905C572.021 7.74906 595.198 17.3493 612.286 34.4378C629.374 51.5262 638.975 74.7032 638.975 98.87H646.724Z" fill="#FC4F4F"/>
<path d="M456.694 98.8703C456.694 125.092 446.277 150.24 427.736 168.782C409.194 187.324 384.046 197.74 357.824 197.74C331.602 197.74 306.454 187.324 287.912 168.782C269.371 150.24 258.954 125.092 258.954 98.8703L266.703 98.8703C266.703 123.037 276.303 146.214 293.392 163.302C310.48 180.391 333.657 189.991 357.824 189.991C381.991 189.991 405.168 180.391 422.256 163.302C439.345 146.214 448.945 123.037 448.945 98.8703H456.694Z" fill="#FC4F4F"/>
<path d="M1026.83 98.9276C1026.83 72.7056 1016.41 47.5577 997.872 29.016C979.33 10.4742 954.182 0.0576192 927.96 0.0576172C901.739 0.0576152 876.591 10.4742 858.049 29.0159C839.507 47.5577 829.091 72.7056 829.091 98.9276L836.84 98.9276C836.84 74.7608 846.44 51.5838 863.528 34.4954C880.617 17.4069 903.794 7.80667 927.96 7.80667C952.127 7.80667 975.304 17.4069 992.393 34.4954C1009.48 51.5839 1019.08 74.7608 1019.08 98.9276H1026.83Z" fill="#FC4F4F"/>
<path d="M836.714 98.1769C836.714 124.399 826.297 149.547 807.755 168.089C789.213 186.63 764.066 197.047 737.844 197.047C711.622 197.047 686.474 186.63 667.932 168.089C649.39 149.547 638.974 124.383 638.974 98.1613L646.723 98.1769C646.723 122.344 656.323 145.521 673.411 162.609C690.5 179.698 713.677 189.298 737.844 189.298C762.01 189.298 785.187 179.698 802.276 162.609C819.364 145.521 828.964 122.344 828.964 98.1769H836.714Z" fill="#FC4F4F"/>
<circle cx="1022.98" cy="101.153" r="14.5599" fill="#FC4F4F"/>
<g filter="url(#filter0_b_983_361)">
<circle cx="1022.98" cy="101.153" r="8.42944" fill="#5E424E"/>
</g>
<path d="M1025.71 98.218H1022.18V100.266C1022.3 100.213 1022.48 100.186 1022.7 100.186C1023.88 100.186 1024.79 100.479 1025.44 101.066C1026.06 101.631 1026.37 102.405 1026.37 103.386C1026.37 104.421 1025.98 105.279 1025.22 105.962C1024.54 106.559 1023.73 106.858 1022.77 106.858C1021.49 106.858 1020.37 106.394 1019.42 105.466L1020.29 104.138C1021.07 104.725 1021.82 105.018 1022.54 105.018C1023.66 105.018 1024.22 104.517 1024.22 103.514C1024.22 102.394 1023.5 101.834 1022.06 101.834C1021.56 101.834 1020.91 101.925 1020.1 102.106V96.538H1025.71V98.218Z" fill="white"/>
<circle cx="737.915" cy="101.153" r="14.5599" fill="#FC4F4F"/>
<g filter="url(#filter1_b_983_361)">
<circle cx="737.915" cy="101.153" r="8.42944" fill="#5E424E"/>
</g>
<path d="M734.004 103.018C735.444 100.821 736.863 98.6607 738.26 96.538H740.324V103.018H741.988V104.698H740.324V106.666H738.244V104.698H734.004V103.018ZM735.812 103.018H738.244V99.226L735.812 103.018Z" fill="white"/>
<circle cx="547.87" cy="101.153" r="14.5599" fill="#FC4F4F"/>
<g filter="url(#filter2_b_983_361)">
<circle cx="547.87" cy="101.153" r="8.42944" fill="#5E424E"/>
</g>
<path d="M548.109 102.138H546.589V100.442H548.109C548.535 100.442 548.829 100.383 548.989 100.266C549.234 100.085 549.357 99.7593 549.357 99.29C549.357 98.9273 549.25 98.6393 549.037 98.426C548.823 98.202 548.535 98.09 548.173 98.09C547.522 98.09 546.845 98.3887 546.141 98.986L545.373 97.642C546.258 96.778 547.261 96.346 548.381 96.346C549.319 96.346 550.087 96.6073 550.685 97.13C551.261 97.642 551.549 98.3033 551.549 99.114C551.549 100.117 551.133 100.789 550.301 101.13C551.378 101.546 551.917 102.346 551.917 103.53C551.917 104.778 551.49 105.685 550.637 106.25C550.039 106.645 549.293 106.842 548.397 106.842C547.906 106.842 547.346 106.714 546.717 106.458C546.098 106.191 545.591 105.871 545.197 105.498L546.045 104.234C546.621 104.757 547.357 105.018 548.253 105.018C548.711 105.018 549.074 104.89 549.341 104.634C549.607 104.367 549.741 104.01 549.741 103.562C549.741 102.613 549.197 102.138 548.109 102.138Z" fill="white"/>
<circle cx="357.824" cy="101.153" r="14.5599" fill="#FC4F4F"/>
<g filter="url(#filter3_b_983_361)">
<circle cx="357.824" cy="101.153" r="8.42944" fill="#5E424E"/>
</g>
<path d="M354.913 106.666V104.89C355.169 104.602 355.511 104.213 355.937 103.722C356.609 102.975 357.105 102.41 357.425 102.026C358.14 101.173 358.588 100.591 358.769 100.282C358.951 99.962 359.041 99.61 359.041 99.226C359.041 98.906 358.924 98.6393 358.689 98.426C358.455 98.2127 358.156 98.106 357.793 98.106C357.164 98.106 356.471 98.362 355.713 98.874L354.833 97.594C355.9 96.7513 357.015 96.33 358.177 96.33C359.105 96.33 359.847 96.5807 360.401 97.082C360.945 97.5727 361.217 98.25 361.217 99.114C361.217 99.754 361.004 100.426 360.577 101.13C360.161 101.823 359.345 102.858 358.129 104.234C357.831 104.575 357.612 104.826 357.473 104.986H361.105V106.666H354.913Z" fill="white"/>
<circle cx="72.7557" cy="101.153" r="14.5599" fill="#FC4F4F"/>
<g filter="url(#filter4_b_983_361)">
<circle cx="72.7557" cy="101.153" r="8.42944" fill="#5E424E"/>
</g>
<path d="M74.1709 96.538V106.666H72.0749V98.922C71.9255 99.018 71.7069 99.1513 71.4189 99.322C71.0029 99.5673 70.7042 99.754 70.5229 99.882C70.3842 99.6473 70.1495 99.258 69.8189 98.714L69.7229 98.57C69.6482 98.4313 69.5895 98.33 69.5469 98.266C69.8882 98.0207 70.4269 97.6527 71.1629 97.162C71.5469 96.906 71.8509 96.698 72.0749 96.538H74.1709Z" fill="white"/>
<defs>
<filter id="filter0_b_983_361" x="922.554" y="0.723633" width="200.859" height="200.858" filterUnits="userSpaceOnUse" color-interpolation-filters="sRGB">
<feFlood flood-opacity="0" result="BackgroundImageFix"/>
<feGaussianBlur in="BackgroundImage" stdDeviation="46"/>
<feComposite in2="SourceAlpha" operator="in" result="effect1_backgroundBlur_983_361"/>
<feBlend mode="normal" in="SourceGraphic" in2="effect1_backgroundBlur_983_361" result="shape"/>
</filter>
<filter id="filter1_b_983_361" x="637.486" y="0.723633" width="200.859" height="200.858" filterUnits="userSpaceOnUse" color-interpolation-filters="sRGB">
<feFlood flood-opacity="0" result="BackgroundImageFix"/>
<feGaussianBlur in="BackgroundImage" stdDeviation="46"/>
<feComposite in2="SourceAlpha" operator="in" result="effect1_backgroundBlur_983_361"/>
<feBlend mode="normal" in="SourceGraphic" in2="effect1_backgroundBlur_983_361" result="shape"/>
</filter>
<filter id="filter2_b_983_361" x="447.44" y="0.723633" width="200.859" height="200.858" filterUnits="userSpaceOnUse" color-interpolation-filters="sRGB">
<feFlood flood-opacity="0" result="BackgroundImageFix"/>
<feGaussianBlur in="BackgroundImage" stdDeviation="46"/>
<feComposite in2="SourceAlpha" operator="in" result="effect1_backgroundBlur_983_361"/>
<feBlend mode="normal" in="SourceGraphic" in2="effect1_backgroundBlur_983_361" result="shape"/>
</filter>
<filter id="filter3_b_983_361" x="257.395" y="0.723633" width="200.859" height="200.858" filterUnits="userSpaceOnUse" color-interpolation-filters="sRGB">
<feFlood flood-opacity="0" result="BackgroundImageFix"/>
<feGaussianBlur in="BackgroundImage" stdDeviation="46"/>
<feComposite in2="SourceAlpha" operator="in" result="effect1_backgroundBlur_983_361"/>
<feBlend mode="normal" in="SourceGraphic" in2="effect1_backgroundBlur_983_361" result="shape"/>
</filter>
<filter id="filter4_b_983_361" x="-27.6737" y="0.723633" width="200.859" height="200.858" filterUnits="userSpaceOnUse" color-interpolation-filters="sRGB">
<feFlood flood-opacity="0" result="BackgroundImageFix"/>
<feGaussianBlur in="BackgroundImage" stdDeviation="46"/>
<feComposite in2="SourceAlpha" operator="in" result="effect1_backgroundBlur_983_361"/>
<feBlend mode="normal" in="SourceGraphic" in2="effect1_backgroundBlur_983_361" result="shape"/>
</filter>
</defs>
</svg>
