<svg width="1059" height="198" viewBox="0 0 1059 198" fill="none" xmlns="http://www.w3.org/2000/svg">
<path d="M29.9795 137.026C29.0728 136.573 28.1595 136.346 27.2395 136.346C26.5861 136.346 26.0528 136.5 25.6395 136.806C25.2261 137.1 25.0195 137.48 25.0195 137.946C25.0195 138.786 25.5728 139.413 26.6795 139.826C28.3328 140.44 29.5061 141.086 30.1995 141.766C30.8928 142.433 31.2395 143.26 31.2395 144.246C31.2395 145.446 30.7795 146.386 29.8595 147.066C29.1128 147.626 28.1861 147.906 27.0795 147.906C25.7595 147.906 24.3861 147.453 22.9595 146.546L23.7595 145.406C24.6528 145.953 25.6928 146.226 26.8795 146.226C28.5061 146.226 29.3195 145.54 29.3195 144.166C29.3195 143.1 28.6328 142.333 27.2595 141.866C25.8195 141.373 24.7728 140.826 24.1195 140.226C23.4795 139.626 23.1595 138.9 23.1595 138.046C23.1595 137.033 23.5528 136.22 24.3395 135.606C25.0595 135.046 26.0061 134.766 27.1795 134.766C28.4995 134.766 29.6995 135.14 30.7795 135.886L29.9795 137.026ZM41.8054 143.706H35.4054C35.4987 144.586 35.8187 145.286 36.3654 145.806C36.9121 146.313 37.6121 146.566 38.4654 146.566C39.2921 146.566 40.1321 146.313 40.9854 145.806L41.5054 146.786C40.5721 147.533 39.4654 147.906 38.1854 147.906C36.7187 147.906 35.5521 147.446 34.6854 146.526C33.8854 145.673 33.4854 144.553 33.4854 143.166C33.4854 141.753 33.9187 140.573 34.7854 139.626C35.5721 138.773 36.5387 138.346 37.6854 138.346C39.0854 138.346 40.1587 138.873 40.9054 139.926C41.5054 140.766 41.8054 141.826 41.8054 143.106V143.706ZM35.3454 142.366H40.0454C40.0187 141.5 39.7987 140.833 39.3854 140.366C38.9854 139.886 38.4387 139.646 37.7454 139.646C37.0787 139.646 36.5254 139.893 36.0854 140.386C35.6587 140.88 35.4121 141.54 35.3454 142.366ZM51.1998 147.666H49.8598L49.6598 146.726C48.9398 147.513 47.9664 147.906 46.7398 147.906C45.8064 147.906 45.0664 147.653 44.5198 147.146C43.9864 146.626 43.7198 145.926 43.7198 145.046C43.7198 144.046 44.1264 143.28 44.9398 142.746C45.7664 142.2 46.9331 141.926 48.4398 141.926H49.4998V141.826C49.4998 140.44 48.7998 139.746 47.3998 139.746C46.5064 139.746 45.6731 140.033 44.8998 140.606L44.3798 139.686C45.4198 138.793 46.6131 138.346 47.9598 138.346C50.1198 138.346 51.1998 139.633 51.1998 142.206V147.666ZM49.4798 143.086H48.5998C46.5464 143.086 45.5198 143.7 45.5198 144.926C45.5198 145.433 45.6664 145.833 45.9598 146.126C46.2664 146.42 46.6731 146.566 47.1798 146.566C47.6864 146.566 48.1598 146.44 48.5998 146.186C49.0398 145.92 49.3331 145.586 49.4798 145.186V143.086ZM55.8621 139.486H55.9421C56.5688 138.726 57.3021 138.346 58.1421 138.346C59.2088 138.346 59.9954 138.76 60.5021 139.586L59.0621 140.486C58.6221 140.046 58.1421 139.826 57.6221 139.826C56.9554 139.826 56.3954 140.166 55.9421 140.846V147.666H54.2221V138.586H55.7021L55.8621 139.486ZM69.0788 146.746C68.3055 147.52 67.2655 147.906 65.9588 147.906C64.4655 147.906 63.2788 147.413 62.3988 146.426C61.6388 145.56 61.2588 144.473 61.2588 143.166C61.2588 141.7 61.7522 140.5 62.7388 139.566C63.5922 138.753 64.6255 138.346 65.8388 138.346C67.0122 138.346 68.0455 138.706 68.9388 139.426L68.4588 140.386C67.7522 139.906 66.9788 139.666 66.1388 139.666C65.2455 139.666 64.5122 140 63.9388 140.666C63.3655 141.333 63.0788 142.186 63.0788 143.226C63.0788 144.24 63.3988 145.066 64.0388 145.706C64.6255 146.28 65.3588 146.566 66.2388 146.566C67.1455 146.566 67.9122 146.293 68.5388 145.746L69.0788 146.746ZM73.2077 134.766V139.586C73.9544 138.76 74.8944 138.346 76.0277 138.346C78.2544 138.346 79.3677 139.653 79.3677 142.266V147.666H77.6477V142.366C77.6477 140.673 76.9011 139.826 75.4077 139.826C74.9944 139.826 74.5744 139.926 74.1477 140.126C73.7211 140.326 73.4077 140.566 73.2077 140.846V147.666H71.4877V135.686L73.2077 134.766ZM86.3341 139.986V138.586H87.6741V137.306C87.6741 135.613 88.4475 134.766 89.9941 134.766C90.8475 134.766 91.6408 135.04 92.3741 135.586L91.7741 136.506C91.3208 136.24 90.8608 136.106 90.3941 136.106C89.7275 136.106 89.3941 136.546 89.3941 137.426V138.586H91.8141V139.986H89.3941V147.666H87.6741V139.986H86.3341ZM97.691 147.906C96.3177 147.906 95.2043 147.393 94.351 146.366C93.6177 145.486 93.251 144.413 93.251 143.146C93.251 141.68 93.6977 140.493 94.591 139.586C95.391 138.76 96.4177 138.346 97.671 138.346C99.111 138.346 100.244 138.873 101.071 139.926C101.751 140.806 102.091 141.88 102.091 143.146C102.091 144.6 101.624 145.786 100.691 146.706C99.8643 147.506 98.8643 147.906 97.691 147.906ZM97.651 146.546C98.451 146.546 99.0843 146.24 99.551 145.626C100.031 145.013 100.271 144.186 100.271 143.146C100.271 142.066 100.018 141.206 99.511 140.566C99.0443 139.966 98.431 139.666 97.671 139.666C96.8977 139.666 96.271 139.986 95.791 140.626C95.311 141.266 95.071 142.106 95.071 143.146C95.071 144.266 95.3377 145.133 95.871 145.746C96.3377 146.28 96.931 146.546 97.651 146.546ZM106.253 139.486H106.333C106.959 138.726 107.693 138.346 108.533 138.346C109.599 138.346 110.386 138.76 110.893 139.586L109.453 140.486C109.013 140.046 108.533 139.826 108.013 139.826C107.346 139.826 106.786 140.166 106.333 140.846V147.666H104.613V138.586H106.093L106.253 139.486ZM122.405 147.906C120.525 147.906 119.079 147.166 118.065 145.686C117.265 144.513 116.865 143.086 116.865 141.406C116.865 139.433 117.392 137.82 118.445 136.566C119.445 135.366 120.765 134.766 122.405 134.766C124.272 134.766 125.719 135.533 126.745 137.066C127.545 138.266 127.945 139.713 127.945 141.406C127.945 143.366 127.419 144.953 126.365 146.166C125.365 147.326 124.045 147.906 122.405 147.906ZM122.405 146.306C123.645 146.306 124.579 145.793 125.205 144.766C125.725 143.913 125.985 142.793 125.985 141.406C125.985 139.793 125.645 138.533 124.965 137.626C124.339 136.786 123.485 136.366 122.405 136.366C121.179 136.366 120.245 136.906 119.605 137.986C119.085 138.866 118.825 140.006 118.825 141.406C118.825 143.006 119.165 144.24 119.845 145.106C120.472 145.906 121.325 146.306 122.405 146.306ZM132.151 139.486H132.231C132.858 138.726 133.591 138.346 134.431 138.346C135.498 138.346 136.285 138.76 136.791 139.586L135.351 140.486C134.911 140.046 134.431 139.826 133.911 139.826C133.245 139.826 132.685 140.166 132.231 140.846V147.666H130.511V138.586H131.991L132.151 139.486ZM144.785 147.666L144.525 146.706C143.925 147.506 143.025 147.906 141.825 147.906C140.478 147.906 139.418 147.413 138.645 146.426C137.992 145.6 137.665 144.56 137.665 143.306C137.665 141.653 138.145 140.373 139.105 139.466C139.878 138.72 140.818 138.346 141.925 138.346C142.938 138.346 143.765 138.666 144.405 139.306V135.766L146.125 134.806V147.666H144.785ZM144.405 144.806V141.206C144.312 140.793 144.045 140.433 143.605 140.126C143.178 139.82 142.718 139.666 142.225 139.666C141.412 139.666 140.752 139.986 140.245 140.626C139.738 141.266 139.485 142.093 139.485 143.106C139.485 144.266 139.752 145.153 140.285 145.766C140.752 146.3 141.352 146.566 142.085 146.566C142.592 146.566 143.065 146.4 143.505 146.066C143.958 145.72 144.258 145.3 144.405 144.806ZM156.962 143.706H150.562C150.655 144.586 150.975 145.286 151.522 145.806C152.068 146.313 152.768 146.566 153.622 146.566C154.448 146.566 155.288 146.313 156.142 145.806L156.662 146.786C155.728 147.533 154.622 147.906 153.342 147.906C151.875 147.906 150.708 147.446 149.842 146.526C149.042 145.673 148.642 144.553 148.642 143.166C148.642 141.753 149.075 140.573 149.942 139.626C150.728 138.773 151.695 138.346 152.842 138.346C154.242 138.346 155.315 138.873 156.062 139.926C156.662 140.766 156.962 141.826 156.962 143.106V143.706ZM150.502 142.366H155.202C155.175 141.5 154.955 140.833 154.542 140.366C154.142 139.886 153.595 139.646 152.902 139.646C152.235 139.646 151.682 139.893 151.242 140.386C150.815 140.88 150.568 141.54 150.502 142.366ZM161.116 139.486H161.196C161.823 138.726 162.556 138.346 163.396 138.346C164.463 138.346 165.249 138.76 165.756 139.586L164.316 140.486C163.876 140.046 163.396 139.826 162.876 139.826C162.209 139.826 161.649 140.166 161.196 140.846V147.666H159.476V138.586H160.956L161.116 139.486Z" fill="#3F3439"/>
<path d="M309.756 44.4463C308.636 45.4196 307.416 45.9063 306.096 45.9063C304.176 45.9063 302.69 45.1663 301.636 43.6863C300.81 42.5129 300.396 41.1063 300.396 39.4663C300.396 37.5996 300.91 36.0063 301.936 34.6863C302.95 33.4063 304.236 32.7663 305.796 32.7663C307.183 32.7663 308.45 33.2263 309.596 34.1463L308.856 35.2663C307.95 34.6663 307.05 34.3663 306.156 34.3663C304.943 34.3663 303.99 34.8663 303.296 35.8663C302.67 36.7729 302.356 37.9729 302.356 39.4663C302.356 40.9463 302.75 42.1329 303.536 43.0263C304.256 43.8529 305.19 44.2663 306.336 44.2663C307.203 44.2663 308.096 43.9529 309.016 43.3263L309.756 44.4463ZM314.044 32.7663V37.5863C314.79 36.7596 315.73 36.3463 316.864 36.3463C319.09 36.3463 320.204 37.6529 320.204 40.2663V45.6663H318.484V40.3663C318.484 38.6729 317.737 37.8263 316.244 37.8263C315.83 37.8263 315.41 37.9263 314.984 38.1263C314.557 38.3263 314.244 38.5663 314.044 38.8463V45.6663H312.324V33.6863L314.044 32.7663ZM327.062 45.9063C325.689 45.9063 324.575 45.3929 323.722 44.3663C322.989 43.4863 322.622 42.4129 322.622 41.1463C322.622 39.6796 323.069 38.4929 323.962 37.5863C324.762 36.7596 325.789 36.3463 327.042 36.3463C328.482 36.3463 329.615 36.8729 330.442 37.9263C331.122 38.8063 331.462 39.8796 331.462 41.1463C331.462 42.5996 330.995 43.7863 330.062 44.7063C329.235 45.5063 328.235 45.9063 327.062 45.9063ZM327.022 44.5463C327.822 44.5463 328.455 44.2396 328.922 43.6263C329.402 43.0129 329.642 42.1863 329.642 41.1463C329.642 40.0663 329.389 39.2063 328.882 38.5663C328.415 37.9663 327.802 37.6663 327.042 37.6663C326.269 37.6663 325.642 37.9863 325.162 38.6263C324.682 39.2663 324.442 40.1063 324.442 41.1463C324.442 42.2663 324.709 43.1329 325.242 43.7463C325.709 44.2796 326.302 44.5463 327.022 44.5463ZM337.824 45.9063C336.45 45.9063 335.337 45.3929 334.484 44.3663C333.75 43.4863 333.384 42.4129 333.384 41.1463C333.384 39.6796 333.83 38.4929 334.724 37.5863C335.524 36.7596 336.55 36.3463 337.804 36.3463C339.244 36.3463 340.377 36.8729 341.204 37.9263C341.884 38.8063 342.224 39.8796 342.224 41.1463C342.224 42.5996 341.757 43.7863 340.824 44.7063C339.997 45.5063 338.997 45.9063 337.824 45.9063ZM337.784 44.5463C338.584 44.5463 339.217 44.2396 339.684 43.6263C340.164 43.0129 340.404 42.1863 340.404 41.1463C340.404 40.0663 340.15 39.2063 339.644 38.5663C339.177 37.9663 338.564 37.6663 337.804 37.6663C337.03 37.6663 336.404 37.9863 335.924 38.6263C335.444 39.2663 335.204 40.1063 335.204 41.1463C335.204 42.2663 335.47 43.1329 336.004 43.7463C336.47 44.2796 337.064 44.5463 337.784 44.5463ZM349.686 38.2263C349.019 37.8529 348.286 37.6663 347.486 37.6663C347.046 37.6663 346.692 37.7729 346.426 37.9863C346.159 38.1863 346.026 38.4596 346.026 38.8063C346.026 39.1929 346.146 39.4929 346.386 39.7063C346.639 39.9063 347.106 40.0996 347.786 40.2863C348.812 40.5796 349.526 40.8929 349.926 41.2263C350.472 41.6929 350.746 42.3529 350.746 43.2063C350.746 44.0196 350.446 44.6729 349.846 45.1663C349.259 45.6596 348.479 45.9063 347.506 45.9063C346.212 45.9063 345.092 45.5463 344.146 44.8263L344.746 43.8663C345.492 44.3329 346.326 44.5663 347.246 44.5663C348.472 44.5663 349.086 44.0996 349.086 43.1663C349.086 42.7663 348.952 42.4663 348.686 42.2663C348.432 42.0529 347.939 41.8529 347.206 41.6663C345.259 41.1863 344.286 40.2463 344.286 38.8463C344.286 38.1263 344.572 37.5329 345.146 37.0663C345.732 36.5863 346.466 36.3463 347.346 36.3463C348.466 36.3463 349.446 36.6596 350.286 37.2863L349.686 38.2263ZM360.786 41.7063H354.386C354.479 42.5863 354.799 43.2863 355.346 43.8063C355.893 44.3129 356.593 44.5663 357.446 44.5663C358.273 44.5663 359.113 44.3129 359.966 43.8063L360.486 44.7863C359.553 45.5329 358.446 45.9063 357.166 45.9063C355.699 45.9063 354.533 45.4463 353.666 44.5263C352.866 43.6729 352.466 42.5529 352.466 41.1663C352.466 39.7529 352.899 38.5729 353.766 37.6263C354.553 36.7729 355.519 36.3463 356.666 36.3463C358.066 36.3463 359.139 36.8729 359.886 37.9263C360.486 38.7663 360.786 39.8263 360.786 41.1063V41.7063ZM354.326 40.3663H359.026C358.999 39.4996 358.779 38.8329 358.366 38.3663C357.966 37.8863 357.419 37.6463 356.726 37.6463C356.059 37.6463 355.506 37.8929 355.066 38.3863C354.639 38.8796 354.393 39.5396 354.326 40.3663ZM372.948 45.9063C371.068 45.9063 369.622 45.1663 368.608 43.6863C367.808 42.5129 367.408 41.0863 367.408 39.4063C367.408 37.4329 367.935 35.8196 368.988 34.5663C369.988 33.3663 371.308 32.7663 372.948 32.7663C374.815 32.7663 376.262 33.5329 377.288 35.0663C378.088 36.2663 378.488 37.7129 378.488 39.4063C378.488 41.3663 377.962 42.9529 376.908 44.1663C375.908 45.3263 374.588 45.9063 372.948 45.9063ZM372.948 44.3063C374.188 44.3063 375.122 43.7929 375.748 42.7663C376.268 41.9129 376.528 40.7929 376.528 39.4063C376.528 37.7929 376.188 36.5329 375.508 35.6263C374.882 34.7863 374.028 34.3663 372.948 34.3663C371.722 34.3663 370.788 34.9063 370.148 35.9863C369.628 36.8663 369.368 38.0063 369.368 39.4063C369.368 41.0063 369.708 42.2396 370.388 43.1063C371.015 43.9063 371.868 44.3063 372.948 44.3063ZM382.694 37.4863H382.774C383.401 36.7263 384.134 36.3463 384.974 36.3463C386.041 36.3463 386.827 36.7596 387.334 37.5863L385.894 38.4863C385.454 38.0463 384.974 37.8263 384.454 37.8263C383.787 37.8263 383.227 38.1663 382.774 38.8463V45.6663H381.054V36.5863H382.534L382.694 37.4863ZM395.328 45.6663L395.068 44.7063C394.468 45.5063 393.568 45.9063 392.368 45.9063C391.021 45.9063 389.961 45.4129 389.188 44.4263C388.535 43.5996 388.208 42.5596 388.208 41.3063C388.208 39.6529 388.688 38.3729 389.648 37.4663C390.421 36.7196 391.361 36.3463 392.468 36.3463C393.481 36.3463 394.308 36.6663 394.948 37.3063V33.7663L396.668 32.8063V45.6663H395.328ZM394.948 42.8063V39.2063C394.855 38.7929 394.588 38.4329 394.148 38.1263C393.721 37.8196 393.261 37.6663 392.768 37.6663C391.955 37.6663 391.295 37.9863 390.788 38.6263C390.281 39.2663 390.028 40.0929 390.028 41.1063C390.028 42.2663 390.295 43.1529 390.828 43.7663C391.295 44.2996 391.895 44.5663 392.628 44.5663C393.135 44.5663 393.608 44.3996 394.048 44.0663C394.501 43.7196 394.801 43.2996 394.948 42.8063ZM407.505 41.7063H401.105C401.198 42.5863 401.518 43.2863 402.065 43.8063C402.611 44.3129 403.311 44.5663 404.165 44.5663C404.991 44.5663 405.831 44.3129 406.685 43.8063L407.205 44.7863C406.271 45.5329 405.165 45.9063 403.885 45.9063C402.418 45.9063 401.251 45.4463 400.385 44.5263C399.585 43.6729 399.185 42.5529 399.185 41.1663C399.185 39.7529 399.618 38.5729 400.485 37.6263C401.271 36.7729 402.238 36.3463 403.385 36.3463C404.785 36.3463 405.858 36.8729 406.605 37.9263C407.205 38.7663 407.505 39.8263 407.505 41.1063V41.7063ZM401.045 40.3663H405.745C405.718 39.4996 405.498 38.8329 405.085 38.3663C404.685 37.8863 404.138 37.6463 403.445 37.6463C402.778 37.6463 402.225 37.8929 401.785 38.3863C401.358 38.8796 401.111 39.5396 401.045 40.3663ZM411.659 37.4863H411.739C412.366 36.7263 413.099 36.3463 413.939 36.3463C415.006 36.3463 415.792 36.7596 416.299 37.5863L414.859 38.4863C414.419 38.0463 413.939 37.8263 413.419 37.8263C412.752 37.8263 412.192 38.1663 411.739 38.8463V45.6663H410.019V36.5863H411.499L411.659 37.4863Z" fill="#3F3439"/>
<path d="M702.163 61V48.36C703.337 48.1867 704.417 48.1 705.403 48.1C708.47 48.1 710.003 49.3933 710.003 51.98C710.003 53.38 709.537 54.44 708.603 55.16C707.843 55.7467 706.87 56.04 705.683 56.04C705.11 56.04 704.557 55.9933 704.023 55.9V61H702.163ZM704.023 49.72V54.4C704.557 54.4933 705.11 54.54 705.683 54.54C707.257 54.54 708.043 53.6867 708.043 51.98C708.043 50.38 707.197 49.58 705.503 49.58C704.89 49.58 704.397 49.6267 704.023 49.72ZM719.057 61H717.717L717.517 60.06C716.797 60.8467 715.824 61.24 714.597 61.24C713.664 61.24 712.924 60.9867 712.377 60.48C711.844 59.96 711.577 59.26 711.577 58.38C711.577 57.38 711.984 56.6133 712.797 56.08C713.624 55.5333 714.791 55.26 716.297 55.26H717.357V55.16C717.357 53.7733 716.657 53.08 715.257 53.08C714.364 53.08 713.531 53.3667 712.757 53.94L712.237 53.02C713.277 52.1267 714.471 51.68 715.817 51.68C717.977 51.68 719.057 52.9667 719.057 55.54V61ZM717.337 56.42H716.457C714.404 56.42 713.377 57.0333 713.377 58.26C713.377 58.7667 713.524 59.1667 713.817 59.46C714.124 59.7533 714.531 59.9 715.037 59.9C715.544 59.9 716.017 59.7733 716.457 59.52C716.897 59.2533 717.191 58.92 717.337 58.52V56.42ZM729.64 51.92L725.74 62.36C725.113 64 724.266 64.82 723.2 64.82C722.48 64.82 721.733 64.5333 720.96 63.96L721.48 63.08C721.933 63.3467 722.326 63.48 722.66 63.48C723.273 63.48 723.76 63.04 724.12 62.16L724.58 61H724.22L720.82 51.92H722.6L725.18 59.12L727.84 51.92H729.64ZM733.094 52.82H733.194C733.874 52.06 734.814 51.68 736.014 51.68C737.52 51.68 738.5 52.22 738.954 53.3C739.727 52.22 740.827 51.68 742.254 51.68C744.44 51.68 745.534 52.9733 745.534 55.56V61H743.814V55.94C743.814 54.94 743.634 54.2267 743.274 53.8C742.927 53.3733 742.34 53.16 741.514 53.16C740.687 53.16 739.934 53.5267 739.254 54.26C739.334 54.6333 739.374 55.0667 739.374 55.56V61H737.654V55.8C737.654 54.88 737.467 54.2133 737.094 53.8C736.734 53.3733 736.147 53.16 735.334 53.16C734.947 53.16 734.547 53.26 734.134 53.46C733.72 53.66 733.414 53.9 733.214 54.18V61H731.494V51.92H732.934L733.094 52.82ZM756.264 57.04H749.864C749.958 57.92 750.278 58.62 750.824 59.14C751.371 59.6467 752.071 59.9 752.924 59.9C753.751 59.9 754.591 59.6467 755.444 59.14L755.964 60.12C755.031 60.8667 753.924 61.24 752.644 61.24C751.178 61.24 750.011 60.78 749.144 59.86C748.344 59.0067 747.944 57.8867 747.944 56.5C747.944 55.0867 748.378 53.9067 749.244 52.96C750.031 52.1067 750.998 51.68 752.144 51.68C753.544 51.68 754.618 52.2067 755.364 53.26C755.964 54.1 756.264 55.16 756.264 56.44V57.04ZM749.804 55.7H754.504C754.478 54.8333 754.258 54.1667 753.844 53.7C753.444 53.22 752.898 52.98 752.204 52.98C751.538 52.98 750.984 53.2267 750.544 53.72C750.118 54.2133 749.871 54.8733 749.804 55.7ZM760.379 52.82H760.479C761.159 52.06 762.105 51.68 763.319 51.68C765.545 51.68 766.659 52.9867 766.659 55.6V61H764.939V55.7C764.939 54.0067 764.192 53.16 762.699 53.16C762.285 53.16 761.865 53.26 761.439 53.46C761.012 53.66 760.699 53.9 760.499 54.18V61H758.779V51.92H760.219L760.379 52.82ZM771.842 53.32L771.822 58.6C771.822 59.48 772.155 59.92 772.822 59.92C773.289 59.92 773.749 59.7867 774.202 59.52L774.802 60.44C774.069 60.9867 773.275 61.26 772.422 61.26C770.875 61.26 770.102 60.4133 770.102 58.72V53.32H768.762V51.92H770.122V50.06L771.842 49.16V51.92H774.562V53.32H771.842Z" fill="#3F3439"/>
<path d="M496.614 146.78C495.494 147.753 494.274 148.24 492.954 148.24C491.034 148.24 489.547 147.5 488.494 146.02C487.667 144.847 487.254 143.44 487.254 141.8C487.254 139.933 487.767 138.34 488.794 137.02C489.807 135.74 491.094 135.1 492.654 135.1C494.041 135.1 495.307 135.56 496.454 136.48L495.714 137.6C494.807 137 493.907 136.7 493.014 136.7C491.801 136.7 490.847 137.2 490.154 138.2C489.527 139.107 489.214 140.307 489.214 141.8C489.214 143.28 489.607 144.467 490.394 145.36C491.114 146.187 492.047 146.6 493.194 146.6C494.061 146.6 494.954 146.287 495.874 145.66L496.614 146.78ZM502.513 148.24C501.14 148.24 500.027 147.727 499.173 146.7C498.44 145.82 498.073 144.747 498.073 143.48C498.073 142.013 498.52 140.827 499.413 139.92C500.213 139.093 501.24 138.68 502.493 138.68C503.933 138.68 505.067 139.207 505.893 140.26C506.573 141.14 506.913 142.213 506.913 143.48C506.913 144.933 506.447 146.12 505.513 147.04C504.687 147.84 503.687 148.24 502.513 148.24ZM502.473 146.88C503.273 146.88 503.907 146.573 504.373 145.96C504.853 145.347 505.093 144.52 505.093 143.48C505.093 142.4 504.84 141.54 504.333 140.9C503.867 140.3 503.253 140 502.493 140C501.72 140 501.093 140.32 500.613 140.96C500.133 141.6 499.893 142.44 499.893 143.48C499.893 144.6 500.16 145.467 500.693 146.08C501.16 146.613 501.753 146.88 502.473 146.88ZM511.035 139.82H511.135C511.815 139.06 512.762 138.68 513.975 138.68C516.202 138.68 517.315 139.987 517.315 142.6V148H515.595V142.7C515.595 141.007 514.848 140.16 513.355 140.16C512.942 140.16 512.522 140.26 512.095 140.46C511.668 140.66 511.355 140.9 511.155 141.18V148H509.435V138.92H510.875L511.035 139.82ZM527.553 140.32H522.673V148H520.953V140.32H519.613V138.92H520.953V137.64C520.953 135.947 521.727 135.1 523.273 135.1C524.127 135.1 524.92 135.373 525.653 135.92L525.053 136.84C524.6 136.573 524.14 136.44 523.673 136.44C523.007 136.44 522.673 136.88 522.673 137.76V138.92H529.273V148H527.553V140.32ZM527.413 136.12C527.413 135.84 527.513 135.6 527.713 135.4C527.913 135.2 528.153 135.1 528.433 135.1C528.713 135.1 528.953 135.2 529.153 135.4C529.367 135.6 529.473 135.84 529.473 136.12C529.473 136.413 529.373 136.66 529.173 136.86C528.973 137.06 528.727 137.16 528.433 137.16C528.14 137.16 527.893 137.06 527.693 136.86C527.507 136.66 527.413 136.413 527.413 136.12ZM534.083 139.82H534.163C534.789 139.06 535.523 138.68 536.363 138.68C537.429 138.68 538.216 139.093 538.723 139.92L537.283 140.82C536.843 140.38 536.363 140.16 535.843 140.16C535.176 140.16 534.616 140.5 534.163 141.18V148H532.443V138.92H533.923L534.083 139.82ZM541.992 139.82H542.092C542.772 139.06 543.712 138.68 544.912 138.68C546.419 138.68 547.399 139.22 547.852 140.3C548.625 139.22 549.725 138.68 551.152 138.68C553.339 138.68 554.432 139.973 554.432 142.56V148H552.712V142.94C552.712 141.94 552.532 141.227 552.172 140.8C551.825 140.373 551.239 140.16 550.412 140.16C549.585 140.16 548.832 140.527 548.152 141.26C548.232 141.633 548.272 142.067 548.272 142.56V148H546.552V142.8C546.552 141.88 546.365 141.213 545.992 140.8C545.632 140.373 545.045 140.16 544.232 140.16C543.845 140.16 543.445 140.26 543.032 140.46C542.619 140.66 542.312 140.9 542.112 141.18V148H540.392V138.92H541.832L541.992 139.82ZM567.091 148.24C565.211 148.24 563.764 147.5 562.751 146.02C561.951 144.847 561.551 143.42 561.551 141.74C561.551 139.767 562.077 138.153 563.131 136.9C564.131 135.7 565.451 135.1 567.091 135.1C568.957 135.1 570.404 135.867 571.431 137.4C572.231 138.6 572.631 140.047 572.631 141.74C572.631 143.7 572.104 145.287 571.051 146.5C570.051 147.66 568.731 148.24 567.091 148.24ZM567.091 146.64C568.331 146.64 569.264 146.127 569.891 145.1C570.411 144.247 570.671 143.127 570.671 141.74C570.671 140.127 570.331 138.867 569.651 137.96C569.024 137.12 568.171 136.7 567.091 136.7C565.864 136.7 564.931 137.24 564.291 138.32C563.771 139.2 563.511 140.34 563.511 141.74C563.511 143.34 563.851 144.573 564.531 145.44C565.157 146.24 566.011 146.64 567.091 146.64ZM576.837 139.82H576.917C577.543 139.06 578.277 138.68 579.117 138.68C580.183 138.68 580.97 139.093 581.477 139.92L580.037 140.82C579.597 140.38 579.117 140.16 578.597 140.16C577.93 140.16 577.37 140.5 576.917 141.18V148H575.197V138.92H576.677L576.837 139.82ZM589.471 148L589.211 147.04C588.611 147.84 587.711 148.24 586.511 148.24C585.164 148.24 584.104 147.747 583.331 146.76C582.677 145.933 582.351 144.893 582.351 143.64C582.351 141.987 582.831 140.707 583.791 139.8C584.564 139.053 585.504 138.68 586.611 138.68C587.624 138.68 588.451 139 589.091 139.64V136.1L590.811 135.14V148H589.471ZM589.091 145.14V141.54C588.997 141.127 588.731 140.767 588.291 140.46C587.864 140.153 587.404 140 586.911 140C586.097 140 585.437 140.32 584.931 140.96C584.424 141.6 584.171 142.427 584.171 143.44C584.171 144.6 584.437 145.487 584.971 146.1C585.437 146.633 586.037 146.9 586.771 146.9C587.277 146.9 587.751 146.733 588.191 146.4C588.644 146.053 588.944 145.633 589.091 145.14ZM601.647 144.04H595.247C595.341 144.92 595.661 145.62 596.207 146.14C596.754 146.647 597.454 146.9 598.307 146.9C599.134 146.9 599.974 146.647 600.827 146.14L601.347 147.12C600.414 147.867 599.307 148.24 598.027 148.24C596.561 148.24 595.394 147.78 594.527 146.86C593.727 146.007 593.327 144.887 593.327 143.5C593.327 142.087 593.761 140.907 594.627 139.96C595.414 139.107 596.381 138.68 597.527 138.68C598.927 138.68 600.001 139.207 600.747 140.26C601.347 141.1 601.647 142.16 601.647 143.44V144.04ZM595.187 142.7H599.887C599.861 141.833 599.641 141.167 599.227 140.7C598.827 140.22 598.281 139.98 597.587 139.98C596.921 139.98 596.367 140.227 595.927 140.72C595.501 141.213 595.254 141.873 595.187 142.7ZM605.802 139.82H605.882C606.508 139.06 607.242 138.68 608.082 138.68C609.148 138.68 609.935 139.093 610.442 139.92L609.002 140.82C608.562 140.38 608.082 140.16 607.562 140.16C606.895 140.16 606.335 140.5 605.882 141.18V148H604.162V138.92H605.642L605.802 139.82Z" fill="#3F3439"/>
<path d="M972.515 137.026C973.515 136.853 974.575 136.766 975.695 136.766C977.895 136.766 979.582 137.426 980.755 138.746C981.755 139.866 982.255 141.353 982.255 143.206C982.255 145.46 981.628 147.173 980.375 148.346C979.268 149.386 977.748 149.906 975.815 149.906C974.615 149.906 973.515 149.82 972.515 149.646V137.026ZM974.375 148.286C974.802 148.38 975.282 148.426 975.815 148.426C977.322 148.426 978.462 147.946 979.235 146.986C979.942 146.106 980.295 144.873 980.295 143.286C980.295 141.58 979.802 140.273 978.815 139.366C978.015 138.62 976.995 138.246 975.755 138.246C975.208 138.246 974.748 138.293 974.375 138.386V148.286ZM992.534 145.706H986.134C986.227 146.586 986.547 147.286 987.094 147.806C987.641 148.313 988.341 148.566 989.194 148.566C990.021 148.566 990.861 148.313 991.714 147.806L992.234 148.786C991.301 149.533 990.194 149.906 988.914 149.906C987.447 149.906 986.281 149.446 985.414 148.526C984.614 147.673 984.214 146.553 984.214 145.166C984.214 143.753 984.647 142.573 985.514 141.626C986.301 140.773 987.267 140.346 988.414 140.346C989.814 140.346 990.887 140.873 991.634 141.926C992.234 142.766 992.534 143.826 992.534 145.106V145.706ZM986.074 144.366H990.774C990.747 143.5 990.527 142.833 990.114 142.366C989.714 141.886 989.167 141.646 988.474 141.646C987.807 141.646 987.254 141.893 986.814 142.386C986.387 142.88 986.141 143.54 986.074 144.366ZM996.768 136.766V149.666H995.048V137.686L996.768 136.766ZM1001.65 140.586V149.666H999.932V140.586H1001.65ZM999.792 137.786C999.792 137.506 999.892 137.266 1000.09 137.066C1000.29 136.866 1000.53 136.766 1000.81 136.766C1001.09 136.766 1001.33 136.866 1001.53 137.066C1001.75 137.266 1001.85 137.506 1001.85 137.786C1001.85 138.08 1001.75 138.326 1001.55 138.526C1001.35 138.726 1001.11 138.826 1000.81 138.826C1000.52 138.826 1000.27 138.726 1000.07 138.526C999.885 138.326 999.792 138.08 999.792 137.786ZM1008.57 149.666H1007.01L1003.55 140.586H1005.35L1007.79 147.586L1010.25 140.586H1012.09L1008.57 149.666ZM1021.48 145.706H1015.08C1015.17 146.586 1015.49 147.286 1016.04 147.806C1016.59 148.313 1017.29 148.566 1018.14 148.566C1018.97 148.566 1019.81 148.313 1020.66 147.806L1021.18 148.786C1020.25 149.533 1019.14 149.906 1017.86 149.906C1016.39 149.906 1015.23 149.446 1014.36 148.526C1013.56 147.673 1013.16 146.553 1013.16 145.166C1013.16 143.753 1013.59 142.573 1014.46 141.626C1015.25 140.773 1016.21 140.346 1017.36 140.346C1018.76 140.346 1019.83 140.873 1020.58 141.926C1021.18 142.766 1021.48 143.826 1021.48 145.106V145.706ZM1015.02 144.366H1019.72C1019.69 143.5 1019.47 142.833 1019.06 142.366C1018.66 141.886 1018.11 141.646 1017.42 141.646C1016.75 141.646 1016.2 141.893 1015.76 142.386C1015.33 142.88 1015.09 143.54 1015.02 144.366ZM1025.63 141.486H1025.71C1026.34 140.726 1027.07 140.346 1027.91 140.346C1028.98 140.346 1029.77 140.76 1030.27 141.586L1028.83 142.486C1028.39 142.046 1027.91 141.826 1027.39 141.826C1026.73 141.826 1026.17 142.166 1025.71 142.846V149.666H1023.99V140.586H1025.47L1025.63 141.486ZM1039.99 140.586L1036.09 151.026C1035.46 152.666 1034.62 153.486 1033.55 153.486C1032.83 153.486 1032.08 153.2 1031.31 152.626L1031.83 151.746C1032.28 152.013 1032.68 152.146 1033.01 152.146C1033.62 152.146 1034.11 151.706 1034.47 150.826L1034.93 149.666H1034.57L1031.17 140.586H1032.95L1035.53 147.786L1038.19 140.586H1039.99Z" fill="#3F3439"/>
<path d="M266.664 98.87C266.664 72.648 256.247 47.5001 237.706 28.9583C219.164 10.4166 194.016 1.9797e-06 167.794 0C141.572 -1.9797e-06 116.424 10.4166 97.8824 28.9583C79.3407 47.5 68.9241 72.648 68.9241 98.8699L76.6731 98.8699C76.6731 74.7032 86.2733 51.5262 103.362 34.4377C120.45 17.3493 143.627 7.74905 167.794 7.74905C191.961 7.74906 215.138 17.3493 232.226 34.4378C249.315 51.5262 258.915 74.7032 258.915 98.87H266.664Z" fill="#FC4F4F"/>
<path d="M646.724 98.8699C646.724 72.648 636.307 47.5 617.765 28.9583C599.224 10.4166 574.076 -5.64969e-06 547.854 -7.62939e-06C521.632 -9.6091e-06 496.484 10.4166 477.942 28.9583C459.401 47.5 448.984 72.648 448.984 98.8699L456.733 98.8699C456.733 74.7032 466.333 51.5262 483.422 34.4377C500.51 17.3493 523.687 7.74904 547.854 7.74905C572.021 7.74905 595.198 17.3493 612.286 34.4377C629.375 51.5262 638.975 74.7032 638.975 98.8699H646.724Z" fill="#FC4F4F"/>
<path d="M456.694 98.87C456.694 125.092 446.277 150.24 427.736 168.782C409.194 187.323 384.046 197.74 357.824 197.74C331.602 197.74 306.454 187.323 287.912 168.782C269.371 150.24 258.954 125.092 258.954 98.87L266.703 98.87C266.703 123.037 276.303 146.214 293.392 163.302C310.48 180.391 333.657 189.991 357.824 189.991C381.991 189.991 405.168 180.391 422.256 163.302C439.345 146.214 448.945 123.037 448.945 98.87H456.694Z" fill="#FC4F4F"/>
<path d="M1026.83 98.9278C1026.83 72.7058 1016.41 47.5579 997.872 29.0162C979.33 10.4744 954.182 0.0578099 927.961 0.0578079C901.739 0.0578059 876.591 10.4744 858.049 29.0161C839.507 47.5579 829.091 72.7058 829.091 98.9277L836.84 98.9278C836.84 74.761 846.44 51.584 863.528 34.4955C880.617 17.4071 903.794 7.80686 927.961 7.80686C952.127 7.80686 975.304 17.4071 992.393 34.4956C1009.48 51.584 1019.08 74.761 1019.08 98.9278H1026.83Z" fill="#FC4F4F"/>
<path d="M836.714 98.1769C836.714 124.399 826.297 149.547 807.755 168.089C789.213 186.63 764.066 197.047 737.844 197.047C711.622 197.047 686.474 186.63 667.932 168.089C649.39 149.547 638.974 124.383 638.974 98.1613L646.723 98.177C646.723 122.344 656.323 145.521 673.411 162.609C690.5 179.698 713.677 189.298 737.844 189.298C762.01 189.298 785.187 179.698 802.276 162.609C819.364 145.521 828.964 122.344 828.964 98.1769H836.714Z" fill="#FC4F4F"/>
<circle cx="1022.98" cy="101.153" r="14.5599" fill="#FC4F4F"/>
<g filter="url(#filter0_b_648_62)">
<circle cx="1022.98" cy="101.153" r="8.42944" fill="#5E424E"/>
</g>
<path d="M1025.71 98.2186H1022.18V100.267C1022.3 100.213 1022.48 100.187 1022.7 100.187C1023.88 100.187 1024.79 100.48 1025.44 101.067C1026.06 101.632 1026.37 102.405 1026.37 103.387C1026.37 104.421 1025.98 105.28 1025.22 105.963C1024.54 106.56 1023.73 106.859 1022.77 106.859C1021.49 106.859 1020.37 106.395 1019.42 105.467L1020.29 104.139C1021.07 104.725 1021.82 105.019 1022.54 105.019C1023.66 105.019 1024.22 104.517 1024.22 103.515C1024.22 102.395 1023.5 101.835 1022.06 101.835C1021.56 101.835 1020.91 101.925 1020.1 102.107V96.5386H1025.71V98.2186Z" fill="white"/>
<circle cx="737.915" cy="101.153" r="14.5599" fill="#FC4F4F"/>
<g filter="url(#filter1_b_648_62)">
<circle cx="737.915" cy="101.153" r="8.42944" fill="#5E424E"/>
</g>
<path d="M734.004 103.019C735.444 100.821 736.863 98.6613 738.26 96.5386H740.324V103.019H741.988V104.699H740.324V106.667H738.244V104.699H734.004V103.019ZM735.812 103.019H738.244V99.2266L735.812 103.019Z" fill="white"/>
<circle cx="547.87" cy="101.153" r="14.5599" fill="#FC4F4F"/>
<g filter="url(#filter2_b_648_62)">
<circle cx="547.87" cy="101.153" r="8.42944" fill="#5E424E"/>
</g>
<path d="M548.109 102.138H546.589V100.442H548.109C548.535 100.442 548.829 100.384 548.989 100.266C549.234 100.085 549.357 99.7596 549.357 99.2903C549.357 98.9276 549.25 98.6396 549.037 98.4263C548.823 98.2023 548.535 98.0903 548.173 98.0903C547.522 98.0903 546.845 98.3889 546.141 98.9863L545.373 97.6423C546.258 96.7783 547.261 96.3463 548.381 96.3463C549.319 96.3463 550.087 96.6076 550.685 97.1303C551.261 97.6423 551.549 98.3036 551.549 99.1143C551.549 100.117 551.133 100.789 550.301 101.13C551.378 101.546 551.917 102.346 551.917 103.53C551.917 104.778 551.49 105.685 550.637 106.25C550.039 106.645 549.293 106.842 548.397 106.842C547.906 106.842 547.346 106.714 546.717 106.458C546.098 106.192 545.591 105.872 545.197 105.498L546.045 104.234C546.621 104.757 547.357 105.018 548.253 105.018C548.711 105.018 549.074 104.89 549.341 104.634C549.607 104.368 549.741 104.01 549.741 103.562C549.741 102.613 549.197 102.138 548.109 102.138Z" fill="white"/>
<circle cx="357.824" cy="101.153" r="14.5599" fill="#FC4F4F"/>
<g filter="url(#filter3_b_648_62)">
<circle cx="357.824" cy="101.153" r="8.42944" fill="#5E424E"/>
</g>
<path d="M354.913 106.667V104.891C355.169 104.603 355.511 104.213 355.937 103.723C356.609 102.976 357.105 102.411 357.425 102.027C358.14 101.173 358.588 100.592 358.769 100.283C358.951 99.9626 359.041 99.6106 359.041 99.2266C359.041 98.9066 358.924 98.64 358.689 98.4266C358.455 98.2133 358.156 98.1066 357.793 98.1066C357.164 98.1066 356.471 98.3626 355.713 98.8746L354.833 97.5946C355.9 96.752 357.015 96.3306 358.177 96.3306C359.105 96.3306 359.847 96.5813 360.401 97.0826C360.945 97.5733 361.217 98.2506 361.217 99.1146C361.217 99.7546 361.004 100.427 360.577 101.131C360.161 101.824 359.345 102.859 358.129 104.235C357.831 104.576 357.612 104.827 357.473 104.987H361.105V106.667H354.913Z" fill="white"/>
<circle cx="72.7557" cy="101.153" r="14.5599" fill="#FC4F4F"/>
<g filter="url(#filter4_b_648_62)">
<circle cx="72.7557" cy="101.153" r="8.42944" fill="#5E424E"/>
</g>
<path d="M74.1709 96.5386V106.667H72.0749V98.9226C71.9255 99.0186 71.7069 99.152 71.4189 99.3226C71.0029 99.568 70.7042 99.7546 70.5229 99.8826C70.3842 99.648 70.1495 99.2586 69.8189 98.7146L69.7229 98.5706C69.6482 98.432 69.5895 98.3306 69.5469 98.2666C69.8882 98.0213 70.4269 97.6533 71.1629 97.1626C71.5469 96.9066 71.8509 96.6986 72.0749 96.5386H74.1709Z" fill="white"/>
<defs>
<filter id="filter0_b_648_62" x="922.554" y="0.723877" width="200.859" height="200.859" filterUnits="userSpaceOnUse" color-interpolation-filters="sRGB">
<feFlood flood-opacity="0" result="BackgroundImageFix"/>
<feGaussianBlur in="BackgroundImage" stdDeviation="46"/>
<feComposite in2="SourceAlpha" operator="in" result="effect1_backgroundBlur_648_62"/>
<feBlend mode="normal" in="SourceGraphic" in2="effect1_backgroundBlur_648_62" result="shape"/>
</filter>
<filter id="filter1_b_648_62" x="637.486" y="0.723877" width="200.859" height="200.859" filterUnits="userSpaceOnUse" color-interpolation-filters="sRGB">
<feFlood flood-opacity="0" result="BackgroundImageFix"/>
<feGaussianBlur in="BackgroundImage" stdDeviation="46"/>
<feComposite in2="SourceAlpha" operator="in" result="effect1_backgroundBlur_648_62"/>
<feBlend mode="normal" in="SourceGraphic" in2="effect1_backgroundBlur_648_62" result="shape"/>
</filter>
<filter id="filter2_b_648_62" x="447.44" y="0.723877" width="200.859" height="200.859" filterUnits="userSpaceOnUse" color-interpolation-filters="sRGB">
<feFlood flood-opacity="0" result="BackgroundImageFix"/>
<feGaussianBlur in="BackgroundImage" stdDeviation="46"/>
<feComposite in2="SourceAlpha" operator="in" result="effect1_backgroundBlur_648_62"/>
<feBlend mode="normal" in="SourceGraphic" in2="effect1_backgroundBlur_648_62" result="shape"/>
</filter>
<filter id="filter3_b_648_62" x="257.395" y="0.723877" width="200.859" height="200.859" filterUnits="userSpaceOnUse" color-interpolation-filters="sRGB">
<feFlood flood-opacity="0" result="BackgroundImageFix"/>
<feGaussianBlur in="BackgroundImage" stdDeviation="46"/>
<feComposite in2="SourceAlpha" operator="in" result="effect1_backgroundBlur_648_62"/>
<feBlend mode="normal" in="SourceGraphic" in2="effect1_backgroundBlur_648_62" result="shape"/>
</filter>
<filter id="filter4_b_648_62" x="-27.6737" y="0.723877" width="200.859" height="200.859" filterUnits="userSpaceOnUse" color-interpolation-filters="sRGB">
<feFlood flood-opacity="0" result="BackgroundImageFix"/>
<feGaussianBlur in="BackgroundImage" stdDeviation="46"/>
<feComposite in2="SourceAlpha" operator="in" result="effect1_backgroundBlur_648_62"/>
<feBlend mode="normal" in="SourceGraphic" in2="effect1_backgroundBlur_648_62" result="shape"/>
</filter>
</defs>
</svg>
