<svg width="1059" height="198" viewBox="0 0 1059 198" fill="none" xmlns="http://www.w3.org/2000/svg">
<path d="M42.2278 146.046H43.1478V147.666H42.0278C40.9078 147.666 40.0345 147.32 39.4078 146.626C38.7811 147.32 37.9078 147.666 36.7878 147.666H29.6478C28.5678 147.666 27.7211 147.306 27.1078 146.586C26.5745 145.96 26.3078 145.14 26.3078 144.126V141.706L28.0278 140.786V143.966C28.0278 145.353 28.6745 146.046 29.9678 146.046H36.6078C37.9011 146.046 38.5478 145.353 38.5478 143.966V139.906L40.2678 138.986V144.046C40.2678 145.38 40.9211 146.046 42.2278 146.046ZM32.5678 149.666C33.2078 149.666 33.5278 149.993 33.5278 150.646C33.5278 151.313 33.2078 151.646 32.5678 151.646C31.9145 151.646 31.5878 151.313 31.5878 150.646C31.5878 149.993 31.9145 149.666 32.5678 149.666ZM48.7747 146.046H50.0947V147.666H48.5747C47.428 147.666 46.5414 147.3 45.9147 146.566C45.248 147.3 44.328 147.666 43.1547 147.666H41.9547V146.046H43.0147C44.4014 146.046 45.0947 145.32 45.0947 143.866V135.686L46.8347 134.766V143.886C46.8347 144.66 46.9814 145.213 47.2747 145.546C47.5814 145.88 48.0814 146.046 48.7747 146.046ZM66.7683 146.046H68.0883V147.666H66.5683C65.5016 147.666 64.6683 147.353 64.0683 146.726C63.5216 147.353 62.7483 147.666 61.7483 147.666H48.8883V146.046H52.6083L52.6683 145.826V135.686L54.3883 134.766V142.086C55.9083 139.846 57.7949 138.726 60.0483 138.726C61.5549 138.726 62.7616 139.253 63.6683 140.306C64.4416 141.2 64.8283 142.3 64.8283 143.606V144.086C64.8283 145.393 65.4749 146.046 66.7683 146.046ZM63.0883 144.166V143.606C63.0883 142.566 62.7683 141.74 62.1283 141.126C61.5816 140.593 60.8949 140.326 60.0683 140.326C58.6949 140.326 57.4549 140.946 56.3483 142.186C55.5216 143.12 54.8683 144.286 54.3883 145.686V146.046H61.6083C62.1816 146.046 62.5683 145.913 62.7683 145.646C62.9816 145.38 63.0883 144.886 63.0883 144.166ZM66.8961 147.666V146.046H67.9561C69.3428 146.046 70.0361 145.32 70.0361 143.866V135.686L71.7761 134.766V143.886C71.7761 145.073 71.4228 146.013 70.7161 146.706C70.0494 147.346 69.1761 147.666 68.0961 147.666H66.8961ZM75.3703 147.666V135.686L77.0903 134.766V147.666H75.3703ZM89.9908 138.646C89.3374 138.646 89.0108 138.313 89.0108 137.646C89.0108 136.993 89.3374 136.666 89.9908 136.666C90.6308 136.666 90.9508 136.993 90.9508 137.646C90.9508 138.313 90.6308 138.646 89.9908 138.646ZM97.2908 146.046H98.6108V147.666H97.0908C96.3974 147.666 95.7974 147.526 95.2908 147.246C95.1308 148.606 94.5374 149.666 93.5108 150.426C92.5908 151.12 91.4508 151.466 90.0908 151.466C88.3574 151.466 87.0108 150.853 86.0508 149.626C85.3174 148.68 84.9508 147.56 84.9508 146.266C84.9508 145.146 85.2308 144.186 85.7908 143.386L87.4508 143.026C86.8508 143.973 86.5508 144.993 86.5508 146.086C86.5508 147.206 86.8974 148.126 87.5908 148.846C88.2441 149.513 89.0774 149.846 90.0908 149.846C91.2641 149.846 92.1708 149.506 92.8108 148.826C93.3441 148.253 93.6108 147.506 93.6108 146.586V139.906L95.3308 138.986V144.046C95.3308 145.38 95.9841 146.046 97.2908 146.046ZM108.184 146.046V147.666H97.4039V146.046H100.864C100.211 145.206 99.8839 144.173 99.8839 142.946C99.8839 141.586 100.351 140.506 101.284 139.706C102.044 139.066 102.924 138.74 103.924 138.726C105.337 138.726 106.437 139.293 107.224 140.426V142.046C106.371 140.9 105.337 140.326 104.124 140.326C103.364 140.326 102.751 140.573 102.284 141.066C101.831 141.546 101.604 142.193 101.604 143.006C101.604 143.926 101.877 144.666 102.424 145.226C102.984 145.773 103.724 146.046 104.644 146.046H108.184ZM122.464 135.986C121.837 135.986 121.524 135.673 121.524 135.046C121.524 134.433 121.837 134.126 122.464 134.126C123.064 134.126 123.364 134.433 123.364 135.046C123.364 135.673 123.064 135.986 122.464 135.986ZM121.204 138.366C120.55 138.366 120.224 138.033 120.224 137.366C120.224 136.713 120.55 136.386 121.204 136.386C121.844 136.386 122.164 136.713 122.164 137.366C122.164 138.033 121.844 138.366 121.204 138.366ZM122.764 137.366C122.764 136.713 123.09 136.386 123.744 136.386C124.384 136.386 124.704 136.713 124.704 137.366C124.704 138.033 124.384 138.366 123.744 138.366C123.09 138.366 122.764 138.033 122.764 137.366ZM131.564 146.046H132.484V147.666H131.364C130.244 147.666 129.37 147.32 128.744 146.626C128.117 147.32 127.244 147.666 126.124 147.666H118.984C117.904 147.666 117.057 147.306 116.444 146.586C115.91 145.96 115.644 145.14 115.644 144.126V141.706L117.364 140.786V143.966C117.364 145.353 118.01 146.046 119.304 146.046H125.944C127.237 146.046 127.884 145.353 127.884 143.966V139.906L129.604 138.986V144.046C129.604 145.38 130.257 146.046 131.564 146.046ZM144.331 146.046H145.631V147.666H144.311C143.231 147.666 142.364 147.546 141.711 147.306C141.057 147.053 140.451 146.613 139.891 145.986C138.211 147.106 136.251 147.666 134.011 147.666H131.291V146.046H134.031C136.737 146.046 138.877 145.153 140.451 143.366C139.344 141.326 137.997 140.306 136.411 140.306C135.331 140.306 134.217 140.88 133.071 142.026V140.426C134.191 139.293 135.377 138.726 136.631 138.726C137.657 138.726 138.651 139.1 139.611 139.846C140.571 140.58 141.417 141.633 142.151 143.006V143.886C141.737 144.406 141.344 144.826 140.971 145.146C141.691 145.746 142.811 146.046 144.331 146.046ZM151.395 146.046H152.715V147.666H151.195C150.088 147.666 149.215 147.313 148.575 146.606C147.935 147.313 147.062 147.666 145.955 147.666H144.435V146.046H145.755C147.062 146.046 147.715 145.38 147.715 144.046V139.906L149.435 138.986V144.046C149.435 145.38 150.088 146.046 151.395 146.046ZM148.455 149.666C149.095 149.666 149.415 149.993 149.415 150.646C149.415 151.313 149.095 151.646 148.455 151.646C147.802 151.646 147.475 151.313 147.475 150.646C147.475 149.993 147.802 149.666 148.455 149.666ZM151.505 147.666V146.046H152.565C153.952 146.046 154.645 145.32 154.645 143.866V135.686L156.385 134.766V143.886C156.385 145.073 156.032 146.013 155.325 146.706C154.659 147.346 153.785 147.666 152.705 147.666H151.505ZM159.98 147.666V135.686L161.7 134.766V147.666H159.98Z" fill="#3F3439"/>
<path d="M324.46 44.0463H325.38V45.6663H324.26C323.14 45.6663 322.267 45.3196 321.64 44.6263C321.014 45.3196 320.14 45.6663 319.02 45.6663H311.88C310.8 45.6663 309.954 45.3063 309.34 44.5863C308.807 43.9596 308.54 43.1396 308.54 42.1263V39.7063L310.26 38.7863V41.9663C310.26 43.3529 310.907 44.0463 312.2 44.0463H318.84C320.134 44.0463 320.78 43.3529 320.78 41.9663V37.9063L322.5 36.9863V42.0463C322.5 43.3796 323.154 44.0463 324.46 44.0463ZM314.8 47.6663C315.44 47.6663 315.76 47.9929 315.76 48.6463C315.76 49.3129 315.44 49.6463 314.8 49.6463C314.147 49.6463 313.82 49.3129 313.82 48.6463C313.82 47.9929 314.147 47.6663 314.8 47.6663ZM331.007 44.0463H332.327V45.6663H330.807C329.66 45.6663 328.774 45.2996 328.147 44.5663C327.48 45.2996 326.56 45.6663 325.387 45.6663H324.187V44.0463H325.247C326.634 44.0463 327.327 43.3196 327.327 41.8663V33.6863L329.067 32.7663V41.8863C329.067 42.6596 329.214 43.2129 329.507 43.5463C329.814 43.8796 330.314 44.0463 331.007 44.0463ZM349.001 44.0463H350.321V45.6663H348.801C347.734 45.6663 346.901 45.3529 346.301 44.7263C345.754 45.3529 344.981 45.6663 343.981 45.6663H331.121V44.0463H334.841L334.901 43.8263V33.6863L336.621 32.7663V40.0863C338.141 37.8463 340.027 36.7263 342.281 36.7263C343.787 36.7263 344.994 37.2529 345.901 38.3063C346.674 39.1996 347.061 40.2996 347.061 41.6063V42.0863C347.061 43.3929 347.707 44.0463 349.001 44.0463ZM345.321 42.1663V41.6063C345.321 40.5663 345.001 39.7396 344.361 39.1263C343.814 38.5929 343.127 38.3263 342.301 38.3263C340.927 38.3263 339.687 38.9463 338.581 40.1863C337.754 41.1196 337.101 42.2863 336.621 43.6863V44.0463H343.841C344.414 44.0463 344.801 43.9129 345.001 43.6463C345.214 43.3796 345.321 42.8863 345.321 42.1663ZM349.129 45.6663V44.0463H350.189C351.575 44.0463 352.269 43.3196 352.269 41.8663V33.6863L354.009 32.7663V41.8863C354.009 43.0729 353.655 44.0129 352.949 44.7063C352.282 45.3463 351.409 45.6663 350.329 45.6663H349.129ZM357.603 45.6663V33.6863L359.323 32.7663V45.6663H357.603ZM370.543 44.6063C370.543 46.0996 370.15 47.2996 369.363 48.2063C368.617 49.0729 367.623 49.5063 366.383 49.5063C365.583 49.5063 364.803 49.3063 364.043 48.9063V47.4063C364.723 47.7796 365.403 47.9663 366.083 47.9663C366.937 47.9663 367.603 47.6796 368.083 47.1063C368.563 46.5329 368.803 45.7396 368.803 44.7263V37.9063L370.543 36.9863V44.6063ZM377.626 45.6663C376.466 45.6663 375.572 45.2929 374.946 44.5463C374.412 43.9063 374.146 43.0929 374.146 42.1063V33.6863L375.866 32.7663V42.0463C375.866 43.3796 376.519 44.0463 377.826 44.0463H379.146V45.6663H377.626ZM384.897 44.0463H386.217V45.6663H384.697C383.59 45.6663 382.717 45.3129 382.077 44.6063C381.437 45.3129 380.564 45.6663 379.457 45.6663H377.937V44.0463H379.257C380.564 44.0463 381.217 43.3796 381.217 42.0463V37.9063L382.937 36.9863V42.0463C382.937 43.3796 383.59 44.0463 384.897 44.0463ZM380.117 47.6663C380.757 47.6663 381.077 47.9996 381.077 48.6663C381.077 49.3196 380.757 49.6463 380.117 49.6463C379.464 49.6463 379.137 49.3196 379.137 48.6663C379.137 47.9996 379.464 47.6663 380.117 47.6663ZM382.657 47.6663C383.297 47.6663 383.617 47.9996 383.617 48.6663C383.617 49.3196 383.297 49.6463 382.657 49.6463C382.004 49.6463 381.677 49.3196 381.677 48.6663C381.677 47.9996 382.004 47.6663 382.657 47.6663ZM387.247 34.7063C386.594 34.7063 386.267 34.3729 386.267 33.7063C386.267 33.0529 386.594 32.7263 387.247 32.7263C387.887 32.7263 388.207 33.0529 388.207 33.7063C388.207 34.3729 387.887 34.7063 387.247 34.7063ZM389.807 34.7063C389.154 34.7063 388.827 34.3729 388.827 33.7063C388.827 33.0529 389.154 32.7263 389.807 32.7263C390.447 32.7263 390.767 33.0529 390.767 33.7063C390.767 34.3729 390.447 34.7063 389.807 34.7063ZM391.967 44.0463H393.287V45.6663H391.767C390.661 45.6663 389.787 45.3129 389.147 44.6063C388.507 45.3129 387.634 45.6663 386.527 45.6663H385.007V44.0463H386.327C387.634 44.0463 388.287 43.3796 388.287 42.0463V37.9063L390.007 36.9863V42.0463C390.007 43.3796 390.661 44.0463 391.967 44.0463ZM398.138 34.5663C397.484 34.5663 397.158 34.2329 397.158 33.5663C397.158 32.9129 397.484 32.5863 398.138 32.5863C398.778 32.5863 399.098 32.9129 399.098 33.5663C399.098 34.2329 398.778 34.5663 398.138 34.5663ZM392.078 45.6663V44.0463H394.818C397.524 44.0463 399.664 43.1529 401.238 41.3663C400.131 39.3263 398.784 38.3063 397.198 38.3063C396.118 38.3063 395.004 38.8796 393.858 40.0263V38.4263C394.978 37.2929 396.164 36.7263 397.418 36.7263C398.444 36.7263 399.438 37.0996 400.398 37.8463C401.358 38.5796 402.204 39.6329 402.938 41.0063V41.8863C400.978 44.4063 398.264 45.6663 394.798 45.6663H392.078ZM405.747 45.6663V33.6863L407.467 32.7663V45.6663H405.747Z" fill="#3F3439"/>
<path d="M720.694 63.1863C719.427 63.9463 718.661 64.4663 718.394 64.7463C717.861 65.2663 717.594 65.9129 717.594 66.6863C717.594 67.5396 717.887 68.2263 718.474 68.7463C719.061 69.2796 719.821 69.5463 720.754 69.5463C722.221 69.5329 723.447 69.1796 724.434 68.4863V70.1063C723.287 70.8129 722.034 71.1663 720.674 71.1663C719.194 71.1663 718.007 70.6796 717.114 69.7063C716.341 68.8796 715.954 67.8596 715.954 66.6463C715.954 65.7396 716.194 64.9663 716.674 64.3263C717.154 63.6996 718.001 63.0396 719.214 62.3463C718.121 61.5463 717.001 60.2929 715.854 58.5863V57.7063C716.507 56.7729 717.274 56.0463 718.154 55.5263C719.034 54.9929 719.927 54.7263 720.834 54.7263C721.727 54.7263 722.621 54.9996 723.514 55.5463C724.407 56.0796 725.174 56.8129 725.814 57.7463V58.5863C725.134 59.6129 724.007 60.7529 722.434 62.0063C722.727 62.0329 722.961 62.0463 723.134 62.0463H728.414L728.434 63.6663H722.994C722.207 63.6663 721.441 63.5063 720.694 63.1863ZM717.454 58.1663C718.654 59.8063 719.747 60.8929 720.734 61.4263C722.027 60.5463 723.187 59.4463 724.214 58.1263C723.227 56.9263 722.101 56.3196 720.834 56.3063C719.554 56.3063 718.427 56.9263 717.454 58.1663ZM733.752 52.6863C733.099 52.6863 732.772 52.3529 732.772 51.6863C732.772 51.0329 733.099 50.7063 733.752 50.7063C734.392 50.7063 734.712 51.0329 734.712 51.6863C734.712 52.3529 734.392 52.6863 733.752 52.6863ZM727.232 63.6663V62.0463H730.832C730.219 61.3663 729.912 60.4196 729.912 59.2063C729.912 57.7529 730.292 56.6196 731.052 55.8063C731.719 55.0863 732.605 54.7263 733.712 54.7263C734.845 54.7263 735.725 55.0796 736.352 55.7863C736.885 56.4129 737.152 57.2329 737.152 58.2463V60.1463C737.139 61.2529 736.812 62.1263 736.172 62.7663C735.545 63.3663 734.712 63.6663 733.672 63.6663H727.232ZM735.432 58.3263C735.432 56.9929 734.859 56.3263 733.712 56.3263C733.059 56.3263 732.545 56.5796 732.172 57.0863C731.799 57.5796 731.612 58.2729 731.612 59.1663C731.612 60.0463 731.792 60.7463 732.152 61.2663C732.512 61.7863 732.992 62.0463 733.592 62.0463C734.819 62.0463 735.432 61.4063 735.432 60.1263V58.3263ZM738.95 63.6663L739.79 62.0463H743.35C743.883 62.0463 744.257 61.9129 744.47 61.6463C744.697 61.3796 744.81 60.9196 744.81 60.2663C744.81 58.4929 743.99 57.1596 742.35 56.2663L743.23 54.7863C745.323 56.0129 746.417 57.7063 746.51 59.8663C746.537 60.6396 746.71 61.1996 747.03 61.5463C747.363 61.8796 747.89 62.0463 748.61 62.0463H749.79V63.6663H748.47C747.363 63.6663 746.497 63.3129 745.87 62.6063C745.43 63.3129 744.69 63.6663 743.65 63.6663H738.95ZM748.599 63.6663V62.0463H749.659C751.046 62.0463 751.739 61.3196 751.739 59.8663V51.6863L753.479 50.7663V59.8863C753.479 61.0729 753.126 62.0129 752.419 62.7063C751.753 63.3463 750.879 63.6663 749.799 63.6663H748.599ZM757.073 63.6663V51.6863L758.793 50.7663V63.6663H757.073Z" fill="#3F3439"/>
<path d="M516.443 146.046H517.363V147.666H516.243C515.123 147.666 514.249 147.32 513.623 146.626C512.996 147.32 512.123 147.666 511.003 147.666H503.863C502.783 147.666 501.936 147.306 501.323 146.586C500.789 145.96 500.523 145.14 500.523 144.126V141.706L502.243 140.786V143.966C502.243 145.353 502.889 146.046 504.183 146.046H510.823C512.116 146.046 512.763 145.353 512.763 143.966V139.906L514.483 138.986V144.046C514.483 145.38 515.136 146.046 516.443 146.046ZM506.783 149.666C507.423 149.666 507.743 149.993 507.743 150.646C507.743 151.313 507.423 151.646 506.783 151.646C506.129 151.646 505.803 151.313 505.803 150.646C505.803 149.993 506.129 149.666 506.783 149.666ZM522.99 146.046H524.31V147.666H522.79C521.643 147.666 520.756 147.3 520.13 146.566C519.463 147.3 518.543 147.666 517.37 147.666H516.17V146.046H517.23C518.616 146.046 519.31 145.32 519.31 143.866V135.686L521.05 134.766V143.886C521.05 144.66 521.196 145.213 521.49 145.546C521.796 145.88 522.296 146.046 522.99 146.046ZM540.983 146.046H542.303V147.666H540.783C539.716 147.666 538.883 147.353 538.283 146.726C537.736 147.353 536.963 147.666 535.963 147.666H523.103V146.046H526.823L526.883 145.826V135.686L528.603 134.766V142.086C530.123 139.846 532.01 138.726 534.263 138.726C535.77 138.726 536.976 139.253 537.883 140.306C538.656 141.2 539.043 142.3 539.043 143.606V144.086C539.043 145.393 539.69 146.046 540.983 146.046ZM537.303 144.166V143.606C537.303 142.566 536.983 141.74 536.343 141.126C535.796 140.593 535.11 140.326 534.283 140.326C532.91 140.326 531.67 140.946 530.563 142.186C529.736 143.12 529.083 144.286 528.603 145.686V146.046H535.823C536.396 146.046 536.783 145.913 536.983 145.646C537.196 145.38 537.303 144.886 537.303 144.166ZM541.111 147.666V146.046H542.171C543.558 146.046 544.251 145.32 544.251 143.866V135.686L545.991 134.766V143.886C545.991 145.073 545.638 146.013 544.931 146.706C544.264 147.346 543.391 147.666 542.311 147.666H541.111ZM549.585 147.666V135.686L551.305 134.766V147.666H549.585ZM557.966 147.666L558.806 146.046H562.366C562.899 146.046 563.272 145.913 563.486 145.646C563.712 145.38 563.826 144.92 563.826 144.266C563.826 142.493 563.006 141.16 561.366 140.266L562.246 138.786C564.339 140.013 565.432 141.706 565.526 143.866C565.552 144.64 565.726 145.2 566.046 145.546C566.379 145.88 566.906 146.046 567.626 146.046H568.806V147.666H567.486C566.379 147.666 565.512 147.313 564.886 146.606C564.446 147.313 563.706 147.666 562.666 147.666H557.966ZM574.575 146.046H575.895V147.666H574.375C573.268 147.666 572.395 147.313 571.755 146.606C571.115 147.313 570.242 147.666 569.135 147.666H567.615V146.046H568.935C570.242 146.046 570.895 145.38 570.895 144.046V139.906L572.615 138.986V144.046C572.615 145.38 573.268 146.046 574.575 146.046ZM569.795 149.666C570.435 149.666 570.755 150 570.755 150.666C570.755 151.32 570.435 151.646 569.795 151.646C569.142 151.646 568.815 151.32 568.815 150.666C568.815 150 569.142 149.666 569.795 149.666ZM572.335 149.666C572.975 149.666 573.295 150 573.295 150.666C573.295 151.32 572.975 151.646 572.335 151.646C571.682 151.646 571.355 151.32 571.355 150.666C571.355 150 571.682 149.666 572.335 149.666ZM578.625 139.206C578.638 139.206 578.658 139.206 578.685 139.206C578.712 139.206 578.732 139.206 578.745 139.206C580.252 139.206 581.472 139.673 582.405 140.606C583.258 141.446 583.685 142.52 583.685 143.826V144.166C583.685 145.313 583.332 146.206 582.625 146.846C581.998 147.393 581.192 147.666 580.205 147.666H574.685V146.046H580.045C581.325 146.046 581.965 145.373 581.965 144.026V143.846C581.965 142.86 581.578 142.1 580.805 141.566C580.192 141.153 579.445 140.946 578.565 140.946C577.858 140.946 577.145 141.073 576.425 141.326V139.626L580.805 134.766H582.565L578.625 139.206ZM585.635 134.486L586.095 133.626H586.635C586.501 133.386 586.435 133.133 586.435 132.866C586.435 132.48 586.581 132.146 586.875 131.866C587.168 131.573 587.508 131.426 587.895 131.426C588.228 131.426 588.548 131.533 588.855 131.746V132.626C588.575 132.4 588.295 132.286 588.015 132.286C587.521 132.286 587.275 132.513 587.275 132.966C587.275 133.18 587.375 133.4 587.575 133.626H589.395L588.935 134.486H585.635ZM590.175 147.666C589.015 147.666 588.121 147.293 587.495 146.546C586.961 145.906 586.695 145.093 586.695 144.106V136.486L588.415 135.566V144.046C588.415 145.38 589.068 146.046 590.375 146.046H591.695V147.666H590.175ZM592.026 136.566C591.373 136.566 591.046 136.233 591.046 135.566C591.046 134.913 591.373 134.586 592.026 134.586C592.666 134.586 592.986 134.913 592.986 135.566C592.986 136.233 592.666 136.566 592.026 136.566ZM594.566 136.566C593.913 136.566 593.586 136.233 593.586 135.566C593.586 134.913 593.913 134.586 594.566 134.586C595.206 134.586 595.526 134.913 595.526 135.566C595.526 136.233 595.206 136.566 594.566 136.566ZM590.486 147.666V146.046H591.806C593.113 146.046 593.766 145.38 593.766 144.046V139.906L595.486 138.986V144.106C595.486 145.24 595.146 146.133 594.466 146.786C593.839 147.373 593.019 147.666 592.006 147.666H590.486Z" fill="#3F3439"/>
<path d="M984.503 148.046H985.823V149.666H984.303C983.583 149.666 982.936 149.506 982.363 149.186C982.176 150.56 981.556 151.64 980.503 152.426C979.569 153.12 978.416 153.466 977.043 153.466C975.256 153.466 973.876 152.866 972.903 151.666C972.156 150.733 971.783 149.62 971.783 148.326C971.783 147.193 972.056 146.226 972.603 145.426L974.323 145.046C973.709 145.993 973.403 147.026 973.403 148.146C973.403 149.253 973.756 150.16 974.463 150.866C975.116 151.52 975.976 151.846 977.043 151.846C978.256 151.846 979.189 151.486 979.843 150.766C980.403 150.153 980.683 149.366 980.683 148.406V137.686L982.423 136.766V146.046C982.423 147.38 983.116 148.046 984.503 148.046ZM991.587 148.046H992.907V149.666H991.387C990.28 149.666 989.407 149.313 988.767 148.606C988.127 149.313 987.253 149.666 986.147 149.666H984.627V148.046H985.947C987.253 148.046 987.907 147.38 987.907 146.046V141.906L989.627 140.986V146.046C989.627 147.38 990.28 148.046 991.587 148.046ZM986.807 151.666C987.447 151.666 987.767 152 987.767 152.666C987.767 153.32 987.447 153.646 986.807 153.646C986.153 153.646 985.827 153.32 985.827 152.666C985.827 152 986.153 151.666 986.807 151.666ZM989.347 151.666C989.987 151.666 990.307 152 990.307 152.666C990.307 153.32 989.987 153.646 989.347 153.646C988.693 153.646 988.367 153.32 988.367 152.666C988.367 152 988.693 151.666 989.347 151.666ZM997.997 147.986C998.53 145.973 999.41 144.293 1000.64 142.946C1002.01 141.466 1003.61 140.726 1005.44 140.726C1006.96 140.726 1008.17 141.253 1009.08 142.306C1009.84 143.2 1010.22 144.3 1010.22 145.606V146.126C1010.22 147.286 1009.86 148.186 1009.16 148.826C1008.54 149.386 1007.74 149.666 1006.74 149.666H998.457C997.35 149.666 996.477 149.313 995.837 148.606C995.197 149.313 994.324 149.666 993.217 149.666H991.697V148.046H993.017C994.324 148.046 994.977 147.38 994.977 146.046V143.246L996.697 142.326V146.046C996.697 147.166 997.13 147.813 997.997 147.986ZM1008.5 145.966V145.606C1008.5 144.566 1008.18 143.74 1007.54 143.126C1006.98 142.593 1006.28 142.326 1005.46 142.326C1004.04 142.326 1002.77 142.98 1001.64 144.286C1000.77 145.286 1000.1 146.54 999.637 148.046H1006.64C1007.88 148.046 1008.5 147.353 1008.5 145.966ZM1022.75 148.046V149.666H1020.27C1020.22 150.813 1019.73 151.76 1018.79 152.506C1018.01 153.12 1017.11 153.426 1016.11 153.426C1015.29 153.426 1014.51 153.233 1013.77 152.846V151.326C1014.48 151.7 1015.18 151.886 1015.87 151.886C1016.58 151.886 1017.19 151.666 1017.71 151.226C1018.25 150.786 1018.52 150.26 1018.53 149.646C1017.84 149.62 1017.33 149.593 1016.99 149.566C1015.55 149.486 1014.47 149 1013.73 148.106C1013.12 147.36 1012.81 146.393 1012.81 145.206C1012.81 143.753 1013.2 142.62 1013.97 141.806C1014.67 141.086 1015.58 140.726 1016.71 140.726C1017.9 140.726 1018.81 141.08 1019.45 141.786C1020 142.413 1020.27 143.233 1020.27 144.246V148.046H1022.75ZM1018.53 144.366C1018.53 143.006 1017.93 142.326 1016.71 142.326C1016.02 142.326 1015.48 142.58 1015.09 143.086C1014.71 143.58 1014.51 144.273 1014.51 145.166C1014.51 146.913 1015.37 147.84 1017.07 147.946C1017.39 147.986 1017.88 148.02 1018.53 148.046V144.366ZM1023.8 138.706C1023.15 138.706 1022.82 138.373 1022.82 137.706C1022.82 137.053 1023.15 136.726 1023.8 136.726C1024.44 136.726 1024.76 137.053 1024.76 137.706C1024.76 138.373 1024.44 138.706 1023.8 138.706ZM1026.36 138.706C1025.71 138.706 1025.38 138.373 1025.38 137.706C1025.38 137.053 1025.71 136.726 1026.36 136.726C1027 136.726 1027.32 137.053 1027.32 137.706C1027.32 138.373 1027 138.706 1026.36 138.706ZM1028.52 148.046H1029.84V149.666H1028.32C1027.21 149.666 1026.34 149.313 1025.7 148.606C1025.06 149.313 1024.19 149.666 1023.08 149.666H1021.56V148.046H1022.88C1024.19 148.046 1024.84 147.38 1024.84 146.046V141.906L1026.56 140.986V146.046C1026.56 147.38 1027.21 148.046 1028.52 148.046ZM1028.63 149.666V148.046H1029.69C1031.08 148.046 1031.77 147.32 1031.77 145.866V137.686L1033.51 136.766V145.886C1033.51 147.073 1033.16 148.013 1032.45 148.706C1031.78 149.346 1030.91 149.666 1029.83 149.666H1028.63ZM1037.1 149.666V137.686L1038.82 136.766V149.666H1037.1Z" fill="#3F3439"/>
<path d="M266.664 98.87C266.664 72.648 256.247 47.5001 237.706 28.9583C219.164 10.4166 194.016 1.9797e-06 167.794 0C141.572 -1.9797e-06 116.424 10.4166 97.8824 28.9583C79.3407 47.5 68.9241 72.648 68.9241 98.8699L76.6731 98.8699C76.6731 74.7032 86.2733 51.5262 103.362 34.4377C120.45 17.3493 143.627 7.74905 167.794 7.74905C191.961 7.74906 215.138 17.3493 232.226 34.4378C249.315 51.5262 258.915 74.7032 258.915 98.87H266.664Z" fill="#FC4F4F"/>
<path d="M646.724 98.87C646.724 72.648 636.307 47.5001 617.765 28.9583C599.224 10.4166 574.076 1.9797e-06 547.854 0C521.632 -1.9797e-06 496.484 10.4166 477.942 28.9583C459.401 47.5 448.984 72.648 448.984 98.8699L456.733 98.8699C456.733 74.7032 466.333 51.5262 483.422 34.4377C500.51 17.3493 523.687 7.74905 547.854 7.74905C572.021 7.74906 595.198 17.3493 612.286 34.4378C629.375 51.5262 638.975 74.7032 638.975 98.87H646.724Z" fill="#FC4F4F"/>
<path d="M456.694 98.87C456.694 125.092 446.277 150.24 427.735 168.782C409.194 187.323 384.046 197.74 357.824 197.74C331.602 197.74 306.454 187.323 287.912 168.782C269.37 150.24 258.954 125.092 258.954 98.87L266.703 98.87C266.703 123.037 276.303 146.214 293.392 163.302C310.48 180.391 333.657 189.991 357.824 189.991C381.991 189.991 405.168 180.391 422.256 163.302C439.345 146.214 448.945 123.037 448.945 98.87H456.694Z" fill="#FC4F4F"/>
<path d="M1026.83 98.9278C1026.83 72.7058 1016.41 47.5579 997.872 29.0162C979.33 10.4744 954.182 0.0578175 927.961 0.0578156C901.739 0.0578136 876.591 10.4744 858.049 29.0161C839.507 47.5579 829.091 72.7058 829.091 98.9278L836.84 98.9278C836.84 74.761 846.44 51.584 863.528 34.4956C880.617 17.4071 903.794 7.80687 927.961 7.80687C952.127 7.80687 975.304 17.4071 992.393 34.4956C1009.48 51.5841 1019.08 74.761 1019.08 98.9278H1026.83Z" fill="#FC4F4F"/>
<path d="M836.714 98.1769C836.714 124.399 826.297 149.547 807.755 168.089C789.213 186.63 764.066 197.047 737.844 197.047C711.622 197.047 686.474 186.63 667.932 168.089C649.39 149.547 638.974 124.383 638.974 98.1613L646.723 98.177C646.723 122.344 656.323 145.521 673.411 162.609C690.5 179.698 713.677 189.298 737.844 189.298C762.01 189.298 785.187 179.698 802.276 162.609C819.364 145.521 828.964 122.344 828.964 98.1769H836.714Z" fill="#FC4F4F"/>
<circle cx="1022.98" cy="101.153" r="14.5599" fill="#FC4F4F"/>
<g filter="url(#filter0_b_649_95)">
<circle cx="1022.98" cy="101.153" r="8.42944" fill="#5E424E"/>
</g>
<path d="M1025.71 98.2186H1022.18V100.267C1022.3 100.213 1022.48 100.187 1022.7 100.187C1023.88 100.187 1024.79 100.48 1025.44 101.067C1026.06 101.632 1026.37 102.405 1026.37 103.387C1026.37 104.421 1025.98 105.28 1025.22 105.963C1024.54 106.56 1023.73 106.859 1022.77 106.859C1021.49 106.859 1020.37 106.395 1019.42 105.467L1020.29 104.139C1021.07 104.725 1021.82 105.019 1022.54 105.019C1023.66 105.019 1024.22 104.517 1024.22 103.515C1024.22 102.395 1023.5 101.835 1022.06 101.835C1021.56 101.835 1020.91 101.925 1020.1 102.107V96.5386H1025.71V98.2186Z" fill="white"/>
<circle cx="737.915" cy="101.153" r="14.5599" fill="#FC4F4F"/>
<g filter="url(#filter1_b_649_95)">
<circle cx="737.915" cy="101.153" r="8.42944" fill="#5E424E"/>
</g>
<path d="M734.004 103.019C735.444 100.821 736.863 98.6613 738.26 96.5386H740.324V103.019H741.988V104.699H740.324V106.667H738.244V104.699H734.004V103.019ZM735.812 103.019H738.244V99.2266L735.812 103.019Z" fill="white"/>
<circle cx="547.87" cy="101.153" r="14.5599" fill="#FC4F4F"/>
<g filter="url(#filter2_b_649_95)">
<circle cx="547.869" cy="101.153" r="8.42944" fill="#5E424E"/>
</g>
<path d="M548.109 102.138H546.589V100.442H548.109C548.535 100.442 548.829 100.384 548.989 100.266C549.234 100.085 549.357 99.7596 549.357 99.2903C549.357 98.9276 549.25 98.6396 549.037 98.4263C548.823 98.2023 548.535 98.0903 548.173 98.0903C547.522 98.0903 546.845 98.3889 546.141 98.9863L545.373 97.6423C546.258 96.7783 547.261 96.3463 548.381 96.3463C549.319 96.3463 550.087 96.6076 550.685 97.1303C551.261 97.6423 551.549 98.3036 551.549 99.1143C551.549 100.117 551.133 100.789 550.301 101.13C551.378 101.546 551.917 102.346 551.917 103.53C551.917 104.778 551.49 105.685 550.637 106.25C550.039 106.645 549.293 106.842 548.397 106.842C547.906 106.842 547.346 106.714 546.717 106.458C546.098 106.192 545.591 105.872 545.197 105.498L546.045 104.234C546.621 104.757 547.357 105.018 548.253 105.018C548.711 105.018 549.074 104.89 549.341 104.634C549.607 104.368 549.741 104.01 549.741 103.562C549.741 102.613 549.197 102.138 548.109 102.138Z" fill="white"/>
<circle cx="357.824" cy="101.153" r="14.5599" fill="#FC4F4F"/>
<g filter="url(#filter3_b_649_95)">
<circle cx="357.824" cy="101.153" r="8.42944" fill="#5E424E"/>
</g>
<path d="M354.913 106.667V104.891C355.169 104.603 355.511 104.213 355.937 103.723C356.609 102.976 357.105 102.411 357.425 102.027C358.14 101.173 358.588 100.592 358.769 100.283C358.951 99.9626 359.041 99.6106 359.041 99.2266C359.041 98.9066 358.924 98.64 358.689 98.4266C358.455 98.2133 358.156 98.1066 357.793 98.1066C357.164 98.1066 356.471 98.3626 355.713 98.8746L354.833 97.5946C355.9 96.752 357.015 96.3306 358.177 96.3306C359.105 96.3306 359.847 96.5813 360.401 97.0826C360.945 97.5733 361.217 98.2506 361.217 99.1146C361.217 99.7546 361.004 100.427 360.577 101.131C360.161 101.824 359.345 102.859 358.129 104.235C357.831 104.576 357.612 104.827 357.473 104.987H361.105V106.667H354.913Z" fill="white"/>
<circle cx="72.7557" cy="101.153" r="14.5599" fill="#FC4F4F"/>
<g filter="url(#filter4_b_649_95)">
<circle cx="72.7559" cy="101.153" r="8.42944" fill="#5E424E"/>
</g>
<path d="M74.1709 96.5386V106.667H72.0749V98.9226C71.9255 99.0186 71.7069 99.152 71.4189 99.3226C71.0029 99.568 70.7042 99.7546 70.5229 99.8826C70.3842 99.648 70.1495 99.2586 69.8189 98.7146L69.7229 98.5706C69.6482 98.432 69.5895 98.3306 69.5469 98.2666C69.8882 98.0213 70.4269 97.6533 71.1629 97.1626C71.5469 96.9066 71.8509 96.6986 72.0749 96.5386H74.1709Z" fill="white"/>
<defs>
<filter id="filter0_b_649_95" x="922.554" y="0.723885" width="200.859" height="200.859" filterUnits="userSpaceOnUse" color-interpolation-filters="sRGB">
<feFlood flood-opacity="0" result="BackgroundImageFix"/>
<feGaussianBlur in="BackgroundImage" stdDeviation="46"/>
<feComposite in2="SourceAlpha" operator="in" result="effect1_backgroundBlur_649_95"/>
<feBlend mode="normal" in="SourceGraphic" in2="effect1_backgroundBlur_649_95" result="shape"/>
</filter>
<filter id="filter1_b_649_95" x="637.485" y="0.723885" width="200.859" height="200.859" filterUnits="userSpaceOnUse" color-interpolation-filters="sRGB">
<feFlood flood-opacity="0" result="BackgroundImageFix"/>
<feGaussianBlur in="BackgroundImage" stdDeviation="46"/>
<feComposite in2="SourceAlpha" operator="in" result="effect1_backgroundBlur_649_95"/>
<feBlend mode="normal" in="SourceGraphic" in2="effect1_backgroundBlur_649_95" result="shape"/>
</filter>
<filter id="filter2_b_649_95" x="447.44" y="0.723885" width="200.859" height="200.859" filterUnits="userSpaceOnUse" color-interpolation-filters="sRGB">
<feFlood flood-opacity="0" result="BackgroundImageFix"/>
<feGaussianBlur in="BackgroundImage" stdDeviation="46"/>
<feComposite in2="SourceAlpha" operator="in" result="effect1_backgroundBlur_649_95"/>
<feBlend mode="normal" in="SourceGraphic" in2="effect1_backgroundBlur_649_95" result="shape"/>
</filter>
<filter id="filter3_b_649_95" x="257.395" y="0.723885" width="200.859" height="200.859" filterUnits="userSpaceOnUse" color-interpolation-filters="sRGB">
<feFlood flood-opacity="0" result="BackgroundImageFix"/>
<feGaussianBlur in="BackgroundImage" stdDeviation="46"/>
<feComposite in2="SourceAlpha" operator="in" result="effect1_backgroundBlur_649_95"/>
<feBlend mode="normal" in="SourceGraphic" in2="effect1_backgroundBlur_649_95" result="shape"/>
</filter>
<filter id="filter4_b_649_95" x="-27.6736" y="0.723885" width="200.859" height="200.859" filterUnits="userSpaceOnUse" color-interpolation-filters="sRGB">
<feFlood flood-opacity="0" result="BackgroundImageFix"/>
<feGaussianBlur in="BackgroundImage" stdDeviation="46"/>
<feComposite in2="SourceAlpha" operator="in" result="effect1_backgroundBlur_649_95"/>
<feBlend mode="normal" in="SourceGraphic" in2="effect1_backgroundBlur_649_95" result="shape"/>
</filter>
</defs>
</svg>
