<svg width="153" height="68" viewBox="0 0 153 68" fill="none" xmlns="http://www.w3.org/2000/svg">
<path d="M38.9941 4.05L39.8941 2.13L46.3141 0.959999L45.4141 2.88L38.9941 4.05ZM41.04 32.05C40.06 32.05 39.57 31.55 39.57 30.55C39.57 29.57 40.06 29.08 41.04 29.08C42 29.08 42.48 29.57 42.48 30.55C42.48 31.55 42 32.05 41.04 32.05ZM44.85 32.05C43.87 32.05 43.38 31.55 43.38 30.55C43.38 29.57 43.87 29.08 44.85 29.08C45.81 29.08 46.29 29.57 46.29 30.55C46.29 31.55 45.81 32.05 44.85 32.05ZM56.88 43.57H58.26V46H56.58C54.9 46 53.59 45.48 52.65 44.44C51.71 45.48 50.4 46 48.72 46H38.01C36.39 46 35.12 45.46 34.2 44.38C33.4 43.44 33 42.21 33 40.69V37.06L35.58 35.68V40.45C35.58 42.53 36.55 43.57 38.49 43.57H48.45C50.39 43.57 51.36 42.53 51.36 40.45V34.36L53.94 32.98V40.57C53.94 42.57 54.92 43.57 56.88 43.57ZM62.8903 29.35C61.9103 29.35 61.4203 28.85 61.4203 27.85C61.4203 26.87 61.9103 26.38 62.8903 26.38C63.8503 26.38 64.3303 26.87 64.3303 27.85C64.3303 28.85 63.8503 29.35 62.8903 29.35ZM56.7703 46V43.57H58.7503C60.7103 43.57 61.6903 42.57 61.6903 40.57V34.36L64.2703 32.98V40.66C64.2703 42.36 63.7603 43.7 62.7403 44.68C61.8003 45.56 60.5703 46 59.0503 46H56.7703ZM68.3674 26.23L69.0574 24.94H69.8674C69.6674 24.58 69.5674 24.21 69.5674 23.83C69.5674 23.23 69.7874 22.72 70.2274 22.3C70.6674 21.86 71.1874 21.64 71.7874 21.64C72.2874 21.64 72.7674 21.8 73.2274 22.12V23.44C72.7874 23.1 72.3674 22.93 71.9674 22.93C71.2274 22.93 70.8574 23.26 70.8574 23.92C70.8574 24.26 70.9974 24.6 71.2774 24.94H74.0074L73.3174 26.23H68.3674ZM69.9574 46V29.23L72.5374 27.85V46H69.9574ZM102.838 46C102.638 47.76 101.678 49.17 99.9581 50.23C98.3581 51.21 96.3181 51.7 93.8381 51.7C90.6781 51.7 88.2981 50.78 86.6981 48.94C85.5181 47.58 84.9281 45.9 84.9281 43.9C84.9281 42.22 85.3481 40.78 86.1881 39.58L88.6781 39.04C87.7781 40.46 87.3281 41.99 87.3281 43.63C87.3281 45.41 87.9081 46.81 89.0681 47.83C90.2081 48.85 91.7981 49.36 93.8381 49.36C95.5581 49.36 96.9781 49.06 98.0981 48.46C99.2181 47.86 99.8981 47.04 100.138 46H97.1381L98.3981 43.57H102.928V46H102.838ZM91.8281 57.01C90.8481 57.01 90.3581 56.51 90.3581 55.51C90.3581 54.53 90.8481 54.04 91.8281 54.04C92.7881 54.04 93.2681 54.53 93.2681 55.51C93.2681 56.51 92.7881 57.01 91.8281 57.01ZM95.6381 57.01C94.6581 57.01 94.1681 56.51 94.1681 55.51C94.1681 54.53 94.6581 54.04 95.6381 54.04C96.5981 54.04 97.0781 54.53 97.0781 55.51C97.0781 56.51 96.5981 57.01 95.6381 57.01ZM107.772 29.35C106.792 29.35 106.302 28.85 106.302 27.85C106.302 26.87 106.792 26.38 107.772 26.38C108.732 26.38 109.212 26.87 109.212 27.85C109.212 28.85 108.732 29.35 107.772 29.35ZM101.652 46V43.57H103.632C105.592 43.57 106.572 42.57 106.572 40.57V34.36L109.152 32.98V40.66C109.152 42.36 108.642 43.7 107.622 44.68C106.682 45.56 105.452 46 103.932 46H101.652ZM128.849 43.57V46H125.129C125.049 47.72 124.309 49.14 122.909 50.26C121.729 51.18 120.389 51.64 118.889 51.64C117.649 51.64 116.479 51.35 115.379 50.77V48.49C116.439 49.05 117.489 49.33 118.529 49.33C119.589 49.33 120.509 49 121.289 48.34C122.089 47.68 122.499 46.89 122.519 45.97C121.479 45.93 120.709 45.89 120.209 45.85C118.049 45.73 116.419 45 115.319 43.66C114.399 42.54 113.939 41.09 113.939 39.31C113.939 37.13 114.519 35.43 115.679 34.21C116.719 33.13 118.089 32.59 119.789 32.59C121.569 32.59 122.939 33.12 123.899 34.18C124.719 35.12 125.129 36.35 125.129 37.87V43.57H128.849ZM122.519 38.05C122.519 36.01 121.609 34.99 119.789 34.99C118.749 34.99 117.939 35.37 117.359 36.13C116.779 36.87 116.489 37.91 116.489 39.25C116.489 41.87 117.769 43.26 120.329 43.42C120.809 43.48 121.539 43.53 122.519 43.57V38.05ZM133.269 33.31C133.289 33.31 133.319 33.31 133.359 33.31C133.399 33.31 133.429 33.31 133.449 33.31C135.709 33.31 137.539 34.01 138.939 35.41C140.219 36.67 140.859 38.28 140.859 40.24V40.75C140.859 42.47 140.329 43.81 139.269 44.77C138.329 45.59 137.119 46 135.639 46H127.359V43.57H135.399C137.319 43.57 138.279 42.56 138.279 40.54V40.27C138.279 38.79 137.699 37.65 136.539 36.85C135.619 36.23 134.499 35.92 133.179 35.92C132.119 35.92 131.049 36.11 129.969 36.49V33.94L136.539 26.65H139.179L133.269 33.31Z" fill="#FC4F4F"/>
<path opacity="0.8" d="M18.8286 17.6612C18.3203 16.9055 17.6652 16.1265 16.7639 16.0021C16.0008 15.9745 15.2528 16.2199 14.6542 16.694C12.1588 18.291 10.2371 20.6416 9.16781 23.4047C8.11539 26.1864 8.1918 29.2692 9.38075 31.9954C9.93424 33.1159 10.5884 34.1839 11.3352 35.1861L13.0943 35.9655L16.293 32.444C17.407 31.283 18.4222 30.031 19.3278 28.701C20.2363 27.3637 20.7953 25.82 20.9534 24.2109C21.1163 21.8776 20.1335 19.6015 18.8286 17.6612Z" fill="#FF9900"/>
<path opacity="0.8" d="M27.4584 29.1399C26.6638 28.1941 25.2248 28.1743 24.0059 28.3736C21.7399 28.7589 19.5802 29.6162 17.6669 30.89C15.7537 32.1638 14.1296 33.8256 12.9 35.7676L18.8907 38.9972C22.1886 38.162 25.0671 36.1492 26.9835 33.3382C27.4335 32.7258 27.7547 32.0286 27.9278 31.2886C28.0112 30.9179 28.0124 30.5335 27.9313 30.1622C27.8502 29.791 27.6888 29.4421 27.4584 29.1399V29.1399Z" fill="#FF9900"/>
<path d="M15.6238 36.6819C18.8018 38.4522 21.2245 40.1649 21.0359 40.5033C20.8472 40.8417 18.1179 39.6798 14.9405 37.908C11.7631 36.1361 9.33977 34.4249 9.52844 34.0861C9.7171 33.7472 12.4474 34.91 15.6238 36.6819Z" fill="#2D241C"/>
<path d="M9.66596 33.1749C9.81516 33.2581 9.93634 33.3837 10.0142 33.5358C10.092 33.6879 10.1229 33.8597 10.1032 34.0294C10.0834 34.1991 10.0137 34.3591 9.90299 34.4893C9.79226 34.6194 9.64543 34.7137 9.48108 34.7604C9.31673 34.8071 9.14223 34.804 8.97964 34.7515C8.81706 34.699 8.67368 34.5995 8.56766 34.4655C8.46163 34.3315 8.3977 34.1691 8.38396 33.9988C8.37023 33.8285 8.40729 33.658 8.49048 33.5087C8.54573 33.4096 8.61996 33.3223 8.70894 33.2519C8.79792 33.1815 8.89991 33.1293 9.00906 33.0983C9.11822 33.0673 9.23241 33.0581 9.34512 33.0712C9.45784 33.0844 9.56686 33.1196 9.66596 33.1749V33.1749Z" fill="#2D241C"/>
<path d="M9.8592 31.426C9.08432 29.0137 9.55319 26.3825 10.2613 23.95C11.0858 21.1175 12.8171 18.4144 15.4265 16.9162C18.5155 15.1428 21.5735 17.0937 22.3681 20.3699C22.7793 22.0659 22.3949 23.6314 21.6716 25.1711C19.9901 28.7343 17.5003 31.856 14.4003 34.2878" stroke="#2D241C" stroke-width="2" stroke-miterlimit="10"/>
<path d="M14.6461 35.1598C16.985 32.3348 20.3516 30.4137 23.8719 29.3019C25.0353 28.9352 26.2851 28.6444 27.4631 28.9681C28.0146 29.0919 28.4977 29.4222 28.8131 29.8912C29.2385 30.6064 29.0326 31.5285 28.6892 32.2862C27.7686 34.3181 25.9831 35.8598 24.006 36.8922C22.7044 37.5466 21.3405 38.069 19.9348 38.4516" stroke="#2D241C" stroke-width="2" stroke-miterlimit="10"/>
<path d="M8.90881 33.6186C9.01518 31.1016 8.11771 28.6455 6.4137 26.7901C5.84534 26.1752 5.06321 25.8012 4.22781 25.7448C3.39241 25.6883 2.56708 25.9538 1.92119 26.4866C1.29754 27.0157 0.69513 27.9029 1.17159 28.7188C1.23163 28.8305 1.33145 28.9156 1.45127 28.9572C1.57109 28.9988 1.70216 28.9938 1.81851 28.9433" stroke="#2D241C" stroke-width="0.75" stroke-miterlimit="10"/>
<path d="M8.70745 33.9161C8.47596 32.3421 7.93552 30.8294 7.11722 29.465C6.52291 28.4731 5.33427 27.1165 4.02273 27.4832C3.41577 27.6532 2.83411 28.5904 3.32372 29.1478C3.39415 29.2317 3.49051 29.2897 3.59759 29.3127C3.70466 29.3357 3.81635 29.3224 3.915 29.2748" stroke="#2D241C" stroke-width="0.75" stroke-miterlimit="10"/>
</svg>
